{
 "cells": [
  {
   "cell_type": "code",
   "execution_count": 1,
   "id": "prerequisite-crest",
   "metadata": {},
   "outputs": [],
   "source": [
    "import mido\n",
    "from mido import MidiFile\n",
    "import time"
   ]
  },
  {
   "cell_type": "markdown",
   "id": "dutch-excess",
   "metadata": {},
   "source": [
    "### Set up of midi and Python\n",
    "\n",
    "As per this blog post, setting up a Python-Midi port connection is extremely simple on a Mac. Just follow these steps: \n",
    "\n",
    "https://natespilman.com/blog/2020-03-23-generating-midi-music-stream-with-python/\n",
    "\n",
    "We have created a port called 'python' using the IAC Driver. The IAC Driver let's you route MIDI messages between applications. Hence, Inter Application Communication. \n",
    "\n",
    "Having done that, we can use mido to send messages to the 'IAC Driver port'"
   ]
  },
  {
   "cell_type": "code",
   "execution_count": 25,
   "id": "understood-processing",
   "metadata": {},
   "outputs": [],
   "source": [
    "msg = mido.Message('note_off', note=72, velocity=64, time=5000)\n",
    "outport = mido.open_output('IAC Driver python')\n",
    "outport.send(msg)"
   ]
  },
  {
   "cell_type": "markdown",
   "id": "speaking-marking",
   "metadata": {},
   "source": [
    "# Notes on MIDI messages\n",
    "\n",
    "A MIDI message is made up of an eight-bit status byte which is generally followed by one or two data bytes. There are a number of different types of MIDI messages. At the highest level, MIDI messages are classified as being either Channel Messages or System Messages. Channel messages are those which apply to a specific Channel, and the Channel number is included in the status byte for these messages. System messages are not Channel specific, and no Channel number is indicated in their status bytes.\n",
    "\n",
    "Channel Messages may be further classified as being either Channel Voice Messages, or Mode Messages. Channel Voice Messages carry musical performance data, and these messages comprise most of the traffic in a typical MIDI data stream. Channel Mode messages affect the way a receiving instrument will respond to the Channel Voice messages."
   ]
  },
  {
   "cell_type": "markdown",
   "id": "bacterial-population",
   "metadata": {},
   "source": [
    "We can just create a two note interval and send them as messages with a velocity of 64. "
   ]
  },
  {
   "cell_type": "code",
   "execution_count": 30,
   "id": "surprised-crisis",
   "metadata": {},
   "outputs": [],
   "source": [
    "notes = []\n",
    "for i in range(60,65,4):\n",
    "    notes.append(i)\n",
    "    "
   ]
  },
  {
   "cell_type": "code",
   "execution_count": 35,
   "id": "compliant-pizza",
   "metadata": {},
   "outputs": [],
   "source": [
    "for n in notes:\n",
    "    msg = mido.Message('note_off', note = n, velocity = 64, time=1440)\n",
    "    outport.send(msg)"
   ]
  },
  {
   "cell_type": "markdown",
   "id": "rolled-influence",
   "metadata": {},
   "source": [
    "Now, let's read a file"
   ]
  },
  {
   "cell_type": "code",
   "execution_count": null,
   "id": "destroyed-double",
   "metadata": {},
   "outputs": [],
   "source": [
    "mid = MidiFile('/Users/rodolfoocampo/Documents/PhD/DCAI/Audio and midi experiments/Music Transformer/Output - Clair de lune - 6.midi')"
   ]
  },
  {
   "cell_type": "markdown",
   "id": "alleged-semiconductor",
   "metadata": {},
   "source": [
    "# Managing time\n",
    "\n",
    "For some reason, the DAW is playing the note whenever the message is sent, ignoring the time attribute in the message. That means we need to manage the time before we send the message. \n",
    "\n",
    "The time attribute indicates the delta in time between the last message and the current message, given in ticks. \n",
    "\n",
    "We need to transform these ticks into seconds. To do that, we need to have certain parameters defined:\n",
    "\n",
    "Ticks per beat and microseconds per beat.\n",
    "\n",
    "For the above MIDI, those values are\n",
    "\n",
    "Ticks per beat: 220\n",
    "Microseconds per beat: 500,000\n",
    "\n",
    "Given that we have 1,000,000 microseconds in a second. That means we have two beats per second. \n",
    "\n",
    "How many seconds are in a tick?\n",
    "\n",
    "\n",
    "Transform beat to secons.\n",
    "\n",
    "Seconds per beat: .5\n",
    "220"
   ]
  },
  {
   "cell_type": "code",
   "execution_count": 48,
   "id": "extreme-local",
   "metadata": {},
   "outputs": [
    {
     "data": {
      "text/plain": [
       "0.0022727272727272726"
      ]
     },
     "execution_count": 48,
     "metadata": {},
     "output_type": "execute_result"
    }
   ],
   "source": [
    ".5/220"
   ]
  },
  {
   "cell_type": "code",
   "execution_count": 50,
   "id": "grave-medicaid",
   "metadata": {},
   "outputs": [
    {
     "data": {
      "text/plain": [
       "7.120454545454545"
      ]
     },
     "execution_count": 50,
     "metadata": {},
     "output_type": "execute_result"
    }
   ],
   "source": [
    "def seconds_per_tick(ticks_per_beat, microseconds_per_beat):\n",
    "    return (microseconds_per_beat / 1000000) / ticks_per_beat\n",
    "\n",
    "def ticks_to_seconds(ticks, ticks_per_beat, microseconds_per_beat):\n",
    "    return seconds_per_tick(ticks_per_beat, microseconds_per_beat) * ticks\n",
    "\n",
    "ticks_to_seconds(3133, 220, 500000)"
   ]
  },
  {
   "cell_type": "code",
   "execution_count": 54,
   "id": "alive-blank",
   "metadata": {},
   "outputs": [],
   "source": [
    "for i, track in enumerate(mid.tracks):\n",
    "    for msg in track:\n",
    "        if msg.bytes()[0] == 144:\n",
    "            delta = ticks_to_seconds(msg.time, 220, 500000)\n",
    "            time.sleep(delta)\n",
    "            outport.send(msg)"
   ]
  },
  {
   "cell_type": "code",
   "execution_count": 58,
   "id": "elegant-possibility",
   "metadata": {},
   "outputs": [],
   "source": [
    "for msg in note_msgs:\n",
    "    delta = ticks_to_seconds(msg.time, 220, 500000)\n",
    "    time.sleep(delta)\n",
    "    outport.send(msg)"
   ]
  },
  {
   "cell_type": "code",
   "execution_count": 107,
   "id": "funny-tattoo",
   "metadata": {},
   "outputs": [
    {
     "name": "stdout",
     "output_type": "stream",
     "text": [
      "program_change channel=0 program=0 time=0\n",
      "note_on channel=0 note=66 velocity=100 time=3133\n",
      "note_on channel=0 note=69 velocity=100 time=0\n",
      "note_on channel=0 note=72 velocity=61 time=171\n",
      "note_on channel=0 note=75 velocity=65 time=0\n",
      "note_on channel=0 note=73 velocity=57 time=308\n",
      "note_on channel=0 note=77 velocity=57 time=0\n",
      "note_on channel=0 note=69 velocity=0 time=198\n",
      "note_on channel=0 note=69 velocity=49 time=0\n",
      "note_on channel=0 note=72 velocity=0 time=0\n",
      "note_on channel=0 note=72 velocity=57 time=0\n",
      "note_on channel=0 note=73 velocity=0 time=0\n",
      "note_on channel=0 note=75 velocity=0 time=0\n",
      "note_on channel=0 note=75 velocity=61 time=0\n",
      "note_on channel=0 note=77 velocity=0 time=14\n",
      "note_on channel=0 note=80 velocity=61 time=167\n",
      "note_on channel=0 note=66 velocity=0 time=198\n",
      "note_on channel=0 note=69 velocity=0 time=0\n",
      "note_on channel=0 note=72 velocity=0 time=0\n",
      "note_on channel=0 note=75 velocity=0 time=0\n",
      "note_on channel=0 note=80 velocity=0 time=0\n",
      "note_on channel=0 note=62 velocity=37 time=31\n",
      "note_on channel=0 note=72 velocity=53 time=0\n",
      "note_on channel=0 note=82 velocity=57 time=0\n",
      "note_on channel=0 note=67 velocity=45 time=13\n",
      "note_on channel=0 note=67 velocity=0 time=563\n",
      "note_on channel=0 note=67 velocity=45 time=0\n",
      "note_on channel=0 note=72 velocity=0 time=0\n",
      "note_on channel=0 note=72 velocity=41 time=0\n",
      "note_on channel=0 note=82 velocity=0 time=0\n",
      "note_on channel=0 note=82 velocity=57 time=0\n",
      "note_on channel=0 note=62 velocity=0 time=13\n",
      "note_on channel=0 note=62 velocity=41 time=0\n",
      "note_on channel=0 note=80 velocity=53 time=735\n",
      "note_on channel=0 note=61 velocity=49 time=13\n",
      "note_on channel=0 note=67 velocity=0 time=0\n",
      "note_on channel=0 note=67 velocity=53 time=0\n",
      "note_on channel=0 note=70 velocity=53 time=0\n",
      "note_on channel=0 note=72 velocity=0 time=27\n",
      "note_on channel=0 note=62 velocity=0 time=13\n",
      "note_on channel=0 note=82 velocity=0 time=0\n",
      "note_on channel=0 note=60 velocity=41 time=620\n",
      "note_on channel=0 note=63 velocity=45 time=0\n",
      "note_on channel=0 note=68 velocity=49 time=0\n",
      "note_on channel=0 note=80 velocity=0 time=13\n",
      "note_on channel=0 note=70 velocity=0 time=31\n",
      "note_on channel=0 note=61 velocity=0 time=13\n",
      "note_on channel=0 note=67 velocity=0 time=0\n",
      "note_on channel=0 note=70 velocity=53 time=115\n",
      "note_on channel=0 note=72 velocity=53 time=154\n",
      "note_on channel=0 note=70 velocity=0 time=154\n",
      "note_on channel=0 note=70 velocity=49 time=0\n",
      "note_on channel=0 note=72 velocity=0 time=57\n",
      "note_on channel=0 note=68 velocity=0 time=449\n",
      "note_on channel=0 note=68 velocity=45 time=0\n",
      "note_on channel=0 note=60 velocity=0 time=268\n",
      "note_on channel=0 note=63 velocity=0 time=0\n",
      "note_on channel=0 note=68 velocity=0 time=0\n",
      "note_on channel=0 note=70 velocity=0 time=0\n",
      "note_on channel=0 note=60 velocity=49 time=44\n",
      "note_on channel=0 note=67 velocity=53 time=0\n",
      "note_on channel=0 note=70 velocity=53 time=0\n",
      "note_on channel=0 note=60 velocity=0 time=577\n",
      "note_on channel=0 note=60 velocity=49 time=0\n",
      "note_on channel=0 note=67 velocity=0 time=0\n",
      "note_on channel=0 note=67 velocity=49 time=0\n",
      "note_on channel=0 note=70 velocity=0 time=0\n",
      "note_on channel=0 note=70 velocity=53 time=0\n",
      "note_on channel=0 note=73 velocity=57 time=0\n",
      "note_on channel=0 note=68 velocity=49 time=704\n",
      "note_on channel=0 note=60 velocity=0 time=13\n",
      "note_on channel=0 note=60 velocity=49 time=0\n",
      "note_on channel=0 note=63 velocity=49 time=0\n",
      "note_on channel=0 note=67 velocity=0 time=44\n",
      "note_on channel=0 note=70 velocity=0 time=13\n",
      "note_on channel=0 note=73 velocity=0 time=0\n",
      "note_on channel=0 note=65 velocity=45 time=717\n",
      "note_on channel=0 note=68 velocity=0 time=13\n",
      "note_on channel=0 note=68 velocity=41 time=0\n",
      "note_on channel=0 note=85 velocity=57 time=242\n",
      "note_on channel=0 note=77 velocity=49 time=14\n",
      "note_on channel=0 note=60 velocity=0 time=70\n",
      "note_on channel=0 note=68 velocity=0 time=339\n",
      "note_on channel=0 note=61 velocity=33 time=198\n",
      "note_on channel=0 note=89 velocity=61 time=39\n",
      "note_on channel=0 note=73 velocity=53 time=14\n",
      "note_on channel=0 note=77 velocity=0 time=0\n",
      "note_on channel=0 note=77 velocity=53 time=0\n",
      "note_on channel=0 note=63 velocity=0 time=536\n",
      "note_on channel=0 note=61 velocity=0 time=31\n",
      "note_on channel=0 note=85 velocity=0 time=71\n",
      "note_on channel=0 note=68 velocity=45 time=39\n",
      "note_on channel=0 note=73 velocity=0 time=31\n",
      "note_on channel=0 note=73 velocity=45 time=0\n",
      "note_on channel=0 note=65 velocity=0 time=26\n",
      "note_on channel=0 note=89 velocity=0 time=58\n",
      "note_on channel=0 note=80 velocity=49 time=96\n",
      "note_on channel=0 note=87 velocity=57 time=0\n",
      "note_on channel=0 note=85 velocity=57 time=339\n",
      "note_on channel=0 note=87 velocity=0 time=44\n",
      "note_on channel=0 note=77 velocity=0 time=123\n",
      "note_on channel=0 note=73 velocity=0 time=242\n",
      "note_on channel=0 note=73 velocity=45 time=0\n",
      "note_on channel=0 note=77 velocity=53 time=0\n",
      "note_on channel=0 note=62 velocity=37 time=14\n",
      "note_on channel=0 note=68 velocity=0 time=0\n",
      "note_on channel=0 note=68 velocity=41 time=0\n",
      "note_on channel=0 note=85 velocity=0 time=0\n",
      "note_on channel=0 note=63 velocity=37 time=589\n",
      "note_on channel=0 note=67 velocity=41 time=0\n",
      "note_on channel=0 note=70 velocity=41 time=0\n",
      "note_on channel=0 note=62 velocity=0 time=18\n",
      "note_on channel=0 note=68 velocity=0 time=0\n",
      "note_on channel=0 note=73 velocity=0 time=0\n",
      "note_on channel=0 note=80 velocity=0 time=13\n",
      "note_on channel=0 note=77 velocity=0 time=13\n",
      "note_on channel=0 note=72 velocity=45 time=115\n",
      "note_on channel=0 note=73 velocity=41 time=154\n",
      "note_on channel=0 note=72 velocity=0 time=154\n",
      "note_on channel=0 note=72 velocity=37 time=0\n",
      "note_on channel=0 note=63 velocity=0 time=448\n",
      "note_on channel=0 note=70 velocity=0 time=0\n",
      "note_on channel=0 note=70 velocity=37 time=0\n",
      "note_on channel=0 note=72 velocity=0 time=198\n",
      "note_on channel=0 note=67 velocity=0 time=31\n",
      "note_on channel=0 note=73 velocity=0 time=0\n",
      "note_on channel=0 note=77 velocity=49 time=40\n",
      "note_on channel=0 note=63 velocity=33 time=13\n",
      "note_on channel=0 note=67 velocity=33 time=0\n",
      "note_on channel=0 note=70 velocity=0 time=0\n",
      "note_on channel=0 note=70 velocity=37 time=0\n",
      "note_on channel=0 note=73 velocity=49 time=229\n",
      "note_on channel=0 note=77 velocity=0 time=180\n",
      "note_on channel=0 note=75 velocity=53 time=13\n",
      "note_on channel=0 note=63 velocity=0 time=493\n",
      "note_on channel=0 note=70 velocity=0 time=18\n",
      "note_on channel=0 note=67 velocity=0 time=39\n",
      "note_on channel=0 note=56 velocity=37 time=454\n",
      "note_on channel=0 note=60 velocity=41 time=0\n",
      "note_on channel=0 note=63 velocity=49 time=0\n",
      "note_on channel=0 note=68 velocity=53 time=0\n",
      "note_on channel=0 note=73 velocity=0 time=26\n",
      "note_on channel=0 note=70 velocity=53 time=128\n",
      "note_on channel=0 note=75 velocity=0 time=26\n",
      "note_on channel=0 note=72 velocity=53 time=141\n",
      "note_on channel=0 note=70 velocity=0 time=185\n",
      "note_on channel=0 note=70 velocity=53 time=0\n",
      "note_on channel=0 note=56 velocity=0 time=519\n",
      "note_on channel=0 note=56 velocity=33 time=0\n",
      "note_on channel=0 note=68 velocity=0 time=13\n",
      "note_on channel=0 note=68 velocity=45 time=0\n",
      "note_on channel=0 note=56 velocity=0 time=268\n",
      "note_on channel=0 note=60 velocity=0 time=0\n",
      "note_on channel=0 note=63 velocity=0 time=0\n",
      "note_on channel=0 note=68 velocity=0 time=0\n",
      "note_on channel=0 note=70 velocity=0 time=0\n",
      "note_on channel=0 note=72 velocity=0 time=0\n",
      "note_on channel=0 note=60 velocity=45 time=84\n",
      "note_on channel=0 note=70 velocity=53 time=0\n",
      "note_on channel=0 note=53 velocity=41 time=18\n",
      "note_on channel=0 note=56 velocity=37 time=0\n",
      "note_on channel=0 note=73 velocity=57 time=0\n",
      "note_on channel=0 note=68 velocity=57 time=616\n",
      "note_on channel=0 note=72 velocity=57 time=0\n",
      "note_on channel=0 note=60 velocity=0 time=17\n",
      "note_on channel=0 note=60 velocity=41 time=0\n",
      "note_on channel=0 note=70 velocity=0 time=53\n",
      "note_on channel=0 note=73 velocity=0 time=0\n",
      "note_on channel=0 note=56 velocity=0 time=57\n",
      "note_on channel=0 note=60 velocity=0 time=550\n",
      "note_on channel=0 note=68 velocity=0 time=0\n",
      "note_on channel=0 note=53 velocity=0 time=13\n",
      "note_on channel=0 note=72 velocity=0 time=14\n",
      "note_on channel=0 note=56 velocity=41 time=30\n",
      "note_on channel=0 note=60 velocity=45 time=0\n",
      "note_on channel=0 note=67 velocity=49 time=0\n",
      "note_on channel=0 note=70 velocity=53 time=0\n",
      "note_on channel=0 note=56 velocity=0 time=647\n",
      "note_on channel=0 note=56 velocity=45 time=0\n",
      "note_on channel=0 note=67 velocity=0 time=0\n",
      "note_on channel=0 note=67 velocity=53 time=0\n",
      "note_on channel=0 note=70 velocity=0 time=0\n"
     ]
    },
    {
     "name": "stdout",
     "output_type": "stream",
     "text": [
      "note_on channel=0 note=70 velocity=49 time=0\n",
      "note_on channel=0 note=73 velocity=53 time=0\n",
      "note_on channel=0 note=55 velocity=49 time=691\n",
      "note_on channel=0 note=72 velocity=45 time=466\n",
      "note_on channel=0 note=73 velocity=0 time=264\n",
      "note_on channel=0 note=67 velocity=0 time=256\n",
      "note_on channel=0 note=73 velocity=45 time=0\n",
      "note_on channel=0 note=70 velocity=0 time=211\n",
      "note_on channel=0 note=70 velocity=53 time=0\n",
      "note_on channel=0 note=72 velocity=0 time=44\n",
      "note_on channel=0 note=56 velocity=0 time=167\n",
      "note_on channel=0 note=73 velocity=0 time=13\n",
      "note_on channel=0 note=73 velocity=53 time=0\n",
      "note_on channel=0 note=70 velocity=0 time=13\n",
      "note_on channel=0 note=70 velocity=33 time=0\n",
      "note_on channel=0 note=72 velocity=53 time=172\n",
      "note_on channel=0 note=70 velocity=0 time=40\n",
      "note_on channel=0 note=73 velocity=0 time=0\n",
      "note_on channel=0 note=60 velocity=0 time=30\n",
      "note_on channel=0 note=70 velocity=53 time=128\n",
      "note_on channel=0 note=72 velocity=0 time=26\n",
      "note_on channel=0 note=55 velocity=0 time=14\n",
      "note_on channel=0 note=53 velocity=41 time=1650\n",
      "note_on channel=0 note=56 velocity=41 time=0\n",
      "note_on channel=0 note=60 velocity=41 time=0\n",
      "note_on channel=0 note=68 velocity=49 time=0\n",
      "note_on channel=0 note=70 velocity=0 time=70\n",
      "note_on channel=0 note=70 velocity=45 time=40\n",
      "note_on channel=0 note=68 velocity=0 time=83\n",
      "note_on channel=0 note=68 velocity=41 time=0\n",
      "note_on channel=0 note=70 velocity=0 time=88\n",
      "note_on channel=0 note=70 velocity=49 time=0\n",
      "note_on channel=0 note=68 velocity=0 time=97\n",
      "note_on channel=0 note=68 velocity=41 time=0\n",
      "note_on channel=0 note=70 velocity=0 time=84\n",
      "note_on channel=0 note=70 velocity=49 time=0\n",
      "note_on channel=0 note=56 velocity=0 time=101\n",
      "note_on channel=0 note=56 velocity=37 time=0\n",
      "note_on channel=0 note=60 velocity=0 time=0\n",
      "note_on channel=0 note=60 velocity=45 time=0\n",
      "note_on channel=0 note=68 velocity=0 time=0\n",
      "note_on channel=0 note=68 velocity=53 time=0\n",
      "note_on channel=0 note=72 velocity=53 time=97\n",
      "note_on channel=0 note=70 velocity=0 time=96\n",
      "note_on channel=0 note=70 velocity=37 time=0\n",
      "note_on channel=0 note=68 velocity=0 time=88\n",
      "note_on channel=0 note=68 velocity=45 time=0\n",
      "note_on channel=0 note=70 velocity=0 time=84\n",
      "note_on channel=0 note=70 velocity=53 time=0\n",
      "note_on channel=0 note=68 velocity=0 time=97\n",
      "note_on channel=0 note=68 velocity=45 time=0\n",
      "note_on channel=0 note=67 velocity=49 time=83\n",
      "note_on channel=0 note=51 velocity=33 time=18\n",
      "note_on channel=0 note=55 velocity=33 time=0\n",
      "note_on channel=0 note=60 velocity=0 time=0\n",
      "note_on channel=0 note=60 velocity=29 time=0\n",
      "note_on channel=0 note=70 velocity=0 time=0\n",
      "note_on channel=0 note=72 velocity=0 time=0\n",
      "note_on channel=0 note=53 velocity=0 time=13\n",
      "note_on channel=0 note=56 velocity=0 time=0\n",
      "note_on channel=0 note=68 velocity=0 time=0\n",
      "note_on channel=0 note=68 velocity=41 time=84\n",
      "note_on channel=0 note=67 velocity=0 time=83\n",
      "note_on channel=0 note=67 velocity=41 time=0\n",
      "note_on channel=0 note=68 velocity=0 time=102\n",
      "note_on channel=0 note=68 velocity=37 time=0\n",
      "note_on channel=0 note=67 velocity=0 time=83\n",
      "note_on channel=0 note=67 velocity=37 time=0\n",
      "note_on channel=0 note=68 velocity=0 time=97\n",
      "note_on channel=0 note=68 velocity=45 time=0\n",
      "note_on channel=0 note=67 velocity=0 time=84\n",
      "note_on channel=0 note=67 velocity=49 time=0\n",
      "note_on channel=0 note=60 velocity=0 time=17\n",
      "note_on channel=0 note=60 velocity=37 time=0\n",
      "note_on channel=0 note=70 velocity=49 time=84\n",
      "note_on channel=0 note=51 velocity=0 time=13\n",
      "note_on channel=0 note=68 velocity=0 time=84\n",
      "note_on channel=0 note=68 velocity=45 time=0\n",
      "note_on channel=0 note=67 velocity=0 time=83\n",
      "note_on channel=0 note=67 velocity=45 time=0\n",
      "note_on channel=0 note=68 velocity=0 time=101\n",
      "note_on channel=0 note=68 velocity=49 time=0\n",
      "note_on channel=0 note=70 velocity=0 time=14\n",
      "note_on channel=0 note=60 velocity=0 time=70\n",
      "note_on channel=0 note=67 velocity=0 time=0\n",
      "note_on channel=0 note=67 velocity=49 time=0\n",
      "note_on channel=0 note=68 velocity=0 time=13\n",
      "note_on channel=0 note=55 velocity=0 time=13\n",
      "note_on channel=0 note=49 velocity=41 time=71\n",
      "note_on channel=0 note=53 velocity=49 time=0\n",
      "note_on channel=0 note=56 velocity=45 time=0\n",
      "note_on channel=0 note=65 velocity=49 time=0\n",
      "note_on channel=0 note=67 velocity=0 time=88\n",
      "note_on channel=0 note=67 velocity=41 time=0\n",
      "note_on channel=0 note=65 velocity=0 time=83\n",
      "note_on channel=0 note=65 velocity=37 time=0\n",
      "note_on channel=0 note=67 velocity=0 time=97\n",
      "note_on channel=0 note=67 velocity=49 time=0\n",
      "note_on channel=0 note=65 velocity=0 time=84\n",
      "note_on channel=0 note=65 velocity=45 time=0\n",
      "note_on channel=0 note=67 velocity=0 time=101\n",
      "note_on channel=0 note=67 velocity=49 time=0\n",
      "note_on channel=0 note=65 velocity=0 time=84\n",
      "note_on channel=0 note=65 velocity=41 time=0\n",
      "note_on channel=0 note=49 velocity=0 time=13\n",
      "note_on channel=0 note=49 velocity=33 time=0\n",
      "note_on channel=0 note=53 velocity=0 time=0\n",
      "note_on channel=0 note=53 velocity=33 time=0\n",
      "note_on channel=0 note=56 velocity=0 time=0\n",
      "note_on channel=0 note=56 velocity=37 time=0\n",
      "note_on channel=0 note=68 velocity=45 time=83\n",
      "note_on channel=0 note=67 velocity=0 time=102\n",
      "note_on channel=0 note=67 velocity=45 time=0\n",
      "note_on channel=0 note=65 velocity=0 time=13\n",
      "note_on channel=0 note=65 velocity=37 time=70\n",
      "note_on channel=0 note=68 velocity=0 time=13\n",
      "note_on channel=0 note=67 velocity=0 time=71\n",
      "note_on channel=0 note=67 velocity=45 time=0\n",
      "note_on channel=0 note=65 velocity=0 time=114\n",
      "note_on channel=0 note=65 velocity=45 time=0\n",
      "note_on channel=0 note=58 velocity=41 time=84\n",
      "note_on channel=0 note=63 velocity=53 time=0\n",
      "note_on channel=0 note=51 velocity=33 time=13\n",
      "note_on channel=0 note=55 velocity=33 time=0\n",
      "note_on channel=0 note=67 velocity=0 time=0\n",
      "note_on channel=0 note=65 velocity=0 time=13\n",
      "note_on channel=0 note=56 velocity=0 time=18\n",
      "note_on channel=0 note=53 velocity=0 time=13\n",
      "note_on channel=0 note=63 velocity=0 time=13\n",
      "note_on channel=0 note=65 velocity=37 time=27\n",
      "note_on channel=0 note=63 velocity=37 time=101\n",
      "note_on channel=0 note=65 velocity=0 time=83\n",
      "note_on channel=0 note=65 velocity=49 time=0\n",
      "note_on channel=0 note=63 velocity=0 time=27\n",
      "note_on channel=0 note=63 velocity=45 time=70\n",
      "note_on channel=0 note=65 velocity=0 time=31\n",
      "note_on channel=0 note=65 velocity=41 time=57\n",
      "note_on channel=0 note=63 velocity=0 time=53\n",
      "note_on channel=0 note=63 velocity=41 time=44\n",
      "note_on channel=0 note=55 velocity=0 time=13\n",
      "note_on channel=0 note=55 velocity=33 time=0\n",
      "note_on channel=0 note=58 velocity=0 time=0\n",
      "note_on channel=0 note=58 velocity=25 time=0\n",
      "note_on channel=0 note=49 velocity=0 time=13\n",
      "note_on channel=0 note=49 velocity=25 time=0\n",
      "note_on channel=0 note=63 velocity=0 time=383\n",
      "note_on channel=0 note=63 velocity=49 time=0\n",
      "note_on channel=0 note=44 velocity=41 time=225\n",
      "note_on channel=0 note=48 velocity=41 time=0\n",
      "note_on channel=0 note=68 velocity=57 time=0\n",
      "note_on channel=0 note=51 velocity=0 time=26\n",
      "note_on channel=0 note=55 velocity=0 time=0\n",
      "note_on channel=0 note=58 velocity=0 time=0\n",
      "note_on channel=0 note=65 velocity=0 time=0\n",
      "note_on channel=0 note=49 velocity=0 time=18\n",
      "note_on channel=0 note=51 velocity=49 time=140\n",
      "note_on channel=0 note=56 velocity=45 time=168\n",
      "note_on channel=0 note=70 velocity=53 time=0\n",
      "note_on channel=0 note=51 velocity=0 time=184\n",
      "note_on channel=0 note=51 velocity=41 time=0\n",
      "note_on channel=0 note=68 velocity=0 time=0\n",
      "note_on channel=0 note=68 velocity=57 time=0\n",
      "note_on channel=0 note=56 velocity=0 time=168\n",
      "note_on channel=0 note=56 velocity=49 time=0\n",
      "note_on channel=0 note=51 velocity=0 time=184\n",
      "note_on channel=0 note=51 velocity=49 time=0\n",
      "note_on channel=0 note=48 velocity=0 time=168\n",
      "note_on channel=0 note=48 velocity=53 time=0\n",
      "note_on channel=0 note=44 velocity=0 time=26\n",
      "note_on channel=0 note=56 velocity=0 time=0\n",
      "note_on channel=0 note=68 velocity=0 time=0\n",
      "note_on channel=0 note=70 velocity=0 time=0\n",
      "note_on channel=0 note=51 velocity=0 time=18\n",
      "note_on channel=0 note=63 velocity=0 time=0\n",
      "note_on channel=0 note=51 velocity=53 time=154\n",
      "note_on channel=0 note=56 velocity=49 time=167\n",
      "note_on channel=0 note=51 velocity=0 time=185\n",
      "note_on channel=0 note=51 velocity=49 time=0\n",
      "note_on channel=0 note=56 velocity=0 time=154\n",
      "note_on channel=0 note=56 velocity=49 time=0\n",
      "note_on channel=0 note=51 velocity=0 time=184\n",
      "note_on channel=0 note=51 velocity=49 time=0\n"
     ]
    },
    {
     "name": "stdout",
     "output_type": "stream",
     "text": [
      "note_on channel=0 note=73 velocity=53 time=0\n",
      "note_on channel=0 note=48 velocity=0 time=168\n",
      "note_on channel=0 note=48 velocity=45 time=0\n",
      "note_on channel=0 note=70 velocity=49 time=13\n",
      "note_on channel=0 note=48 velocity=0 time=31\n",
      "note_on channel=0 note=51 velocity=0 time=0\n",
      "note_on channel=0 note=73 velocity=0 time=0\n",
      "note_on channel=0 note=56 velocity=0 time=13\n",
      "note_on channel=0 note=73 velocity=49 time=141\n",
      "note_on channel=0 note=56 velocity=49 time=39\n",
      "note_on channel=0 note=72 velocity=49 time=128\n",
      "note_on channel=0 note=51 velocity=41 time=13\n",
      "note_on channel=0 note=70 velocity=0 time=172\n",
      "note_on channel=0 note=70 velocity=53 time=0\n",
      "note_on channel=0 note=41 velocity=37 time=13\n",
      "note_on channel=0 note=51 velocity=0 time=0\n",
      "note_on channel=0 note=56 velocity=0 time=0\n",
      "note_on channel=0 note=72 velocity=0 time=0\n",
      "note_on channel=0 note=73 velocity=0 time=0\n",
      "note_on channel=0 note=48 velocity=45 time=167\n",
      "note_on channel=0 note=53 velocity=53 time=185\n",
      "note_on channel=0 note=48 velocity=0 time=167\n",
      "note_on channel=0 note=48 velocity=45 time=0\n",
      "note_on channel=0 note=53 velocity=0 time=172\n",
      "note_on channel=0 note=53 velocity=45 time=0\n",
      "note_on channel=0 note=48 velocity=0 time=180\n",
      "note_on channel=0 note=48 velocity=41 time=0\n",
      "note_on channel=0 note=68 velocity=57 time=0\n",
      "note_on channel=0 note=67 velocity=49 time=185\n",
      "note_on channel=0 note=41 velocity=0 time=13\n",
      "note_on channel=0 note=46 velocity=29 time=0\n",
      "note_on channel=0 note=48 velocity=0 time=0\n",
      "note_on channel=0 note=53 velocity=0 time=0\n",
      "note_on channel=0 note=70 velocity=0 time=0\n",
      "note_on channel=0 note=68 velocity=0 time=13\n",
      "note_on channel=0 note=53 velocity=37 time=159\n",
      "note_on channel=0 note=58 velocity=45 time=180\n",
      "note_on channel=0 note=53 velocity=0 time=172\n",
      "note_on channel=0 note=53 velocity=49 time=0\n",
      "note_on channel=0 note=65 velocity=57 time=0\n",
      "note_on channel=0 note=58 velocity=0 time=167\n",
      "note_on channel=0 note=58 velocity=45 time=0\n",
      "note_on channel=0 note=53 velocity=0 time=167\n",
      "note_on channel=0 note=53 velocity=49 time=0\n",
      "note_on channel=0 note=44 velocity=45 time=185\n",
      "note_on channel=0 note=46 velocity=0 time=26\n",
      "note_on channel=0 note=53 velocity=0 time=0\n",
      "note_on channel=0 note=58 velocity=0 time=0\n",
      "note_on channel=0 note=67 velocity=0 time=0\n",
      "note_on channel=0 note=65 velocity=0 time=18\n",
      "note_on channel=0 note=48 velocity=45 time=154\n",
      "note_on channel=0 note=53 velocity=53 time=167\n",
      "note_on channel=0 note=65 velocity=57 time=0\n",
      "note_on channel=0 note=68 velocity=57 time=154\n",
      "note_on channel=0 note=48 velocity=0 time=18\n",
      "note_on channel=0 note=48 velocity=41 time=0\n",
      "note_on channel=0 note=53 velocity=0 time=167\n",
      "note_on channel=0 note=53 velocity=49 time=0\n",
      "note_on channel=0 note=70 velocity=57 time=0\n",
      "note_on channel=0 note=65 velocity=0 time=83\n",
      "note_on channel=0 note=68 velocity=0 time=58\n",
      "note_on channel=0 note=48 velocity=0 time=26\n",
      "note_on channel=0 note=48 velocity=45 time=0\n",
      "note_on channel=0 note=68 velocity=57 time=0\n",
      "note_on channel=0 note=67 velocity=53 time=172\n",
      "note_on channel=0 note=46 velocity=41 time=13\n",
      "note_on channel=0 note=44 velocity=0 time=13\n",
      "note_on channel=0 note=48 velocity=0 time=0\n",
      "note_on channel=0 note=53 velocity=0 time=0\n",
      "note_on channel=0 note=68 velocity=0 time=0\n",
      "note_on channel=0 note=70 velocity=0 time=44\n",
      "note_on channel=0 note=53 velocity=45 time=110\n",
      "note_on channel=0 note=58 velocity=45 time=172\n",
      "note_on channel=0 note=65 velocity=49 time=154\n",
      "note_on channel=0 note=53 velocity=0 time=13\n",
      "note_on channel=0 note=53 velocity=41 time=0\n",
      "note_on channel=0 note=58 velocity=0 time=154\n",
      "note_on channel=0 note=58 velocity=41 time=0\n",
      "note_on channel=0 note=53 velocity=0 time=185\n",
      "note_on channel=0 note=53 velocity=45 time=0\n",
      "note_on channel=0 note=44 velocity=41 time=167\n",
      "note_on channel=0 note=67 velocity=0 time=44\n",
      "note_on channel=0 note=46 velocity=0 time=13\n",
      "note_on channel=0 note=53 velocity=0 time=0\n",
      "note_on channel=0 note=58 velocity=0 time=0\n",
      "note_on channel=0 note=65 velocity=0 time=13\n",
      "note_on channel=0 note=48 velocity=41 time=115\n",
      "note_on channel=0 note=65 velocity=57 time=167\n",
      "note_on channel=0 note=53 velocity=49 time=17\n",
      "note_on channel=0 note=48 velocity=0 time=154\n",
      "note_on channel=0 note=48 velocity=37 time=0\n",
      "note_on channel=0 note=68 velocity=53 time=0\n",
      "note_on channel=0 note=53 velocity=0 time=168\n",
      "note_on channel=0 note=53 velocity=49 time=0\n",
      "note_on channel=0 note=70 velocity=53 time=0\n",
      "note_on channel=0 note=48 velocity=0 time=171\n",
      "note_on channel=0 note=48 velocity=45 time=0\n",
      "note_on channel=0 note=68 velocity=0 time=0\n",
      "note_on channel=0 note=68 velocity=53 time=0\n",
      "note_on channel=0 note=46 velocity=41 time=167\n",
      "note_on channel=0 note=67 velocity=53 time=0\n",
      "note_on channel=0 note=44 velocity=0 time=27\n",
      "note_on channel=0 note=48 velocity=0 time=0\n",
      "note_on channel=0 note=53 velocity=0 time=0\n",
      "note_on channel=0 note=65 velocity=0 time=0\n",
      "note_on channel=0 note=68 velocity=0 time=0\n",
      "note_on channel=0 note=70 velocity=0 time=44\n",
      "note_on channel=0 note=53 velocity=41 time=114\n",
      "note_on channel=0 note=58 velocity=33 time=181\n",
      "note_on channel=0 note=65 velocity=49 time=154\n",
      "note_on channel=0 note=53 velocity=0 time=17\n",
      "note_on channel=0 note=53 velocity=41 time=0\n",
      "note_on channel=0 note=58 velocity=0 time=154\n",
      "note_on channel=0 note=58 velocity=41 time=0\n",
      "note_on channel=0 note=53 velocity=0 time=167\n",
      "note_on channel=0 note=53 velocity=45 time=0\n",
      "note_on channel=0 note=49 velocity=49 time=185\n",
      "note_on channel=0 note=46 velocity=0 time=13\n",
      "note_on channel=0 note=53 velocity=0 time=14\n",
      "note_on channel=0 note=58 velocity=0 time=0\n",
      "note_on channel=0 note=65 velocity=0 time=0\n",
      "note_on channel=0 note=67 velocity=0 time=0\n",
      "note_on channel=0 note=53 velocity=53 time=140\n",
      "note_on channel=0 note=65 velocity=57 time=0\n",
      "note_on channel=0 note=56 velocity=45 time=172\n",
      "note_on channel=0 note=67 velocity=53 time=0\n",
      "note_on channel=0 note=53 velocity=0 time=167\n",
      "note_on channel=0 note=53 velocity=45 time=0\n",
      "note_on channel=0 note=68 velocity=53 time=0\n",
      "note_on channel=0 note=49 velocity=0 time=27\n",
      "note_on channel=0 note=56 velocity=0 time=0\n",
      "note_on channel=0 note=65 velocity=0 time=0\n",
      "note_on channel=0 note=67 velocity=0 time=0\n",
      "note_on channel=0 note=68 velocity=0 time=114\n",
      "note_on channel=0 note=56 velocity=45 time=26\n",
      "note_on channel=0 note=53 velocity=0 time=172\n",
      "note_on channel=0 note=53 velocity=41 time=0\n",
      "note_on channel=0 note=70 velocity=53 time=0\n",
      "note_on channel=0 note=51 velocity=45 time=167\n",
      "note_on channel=0 note=68 velocity=53 time=0\n",
      "note_on channel=0 note=53 velocity=0 time=44\n",
      "note_on channel=0 note=56 velocity=0 time=0\n",
      "note_on channel=0 note=70 velocity=0 time=0\n",
      "note_on channel=0 note=55 velocity=49 time=110\n",
      "note_on channel=0 note=58 velocity=49 time=185\n",
      "note_on channel=0 note=68 velocity=0 time=0\n",
      "note_on channel=0 note=68 velocity=53 time=0\n",
      "note_on channel=0 note=55 velocity=0 time=167\n",
      "note_on channel=0 note=55 velocity=49 time=0\n",
      "note_on channel=0 note=67 velocity=53 time=0\n",
      "note_on channel=0 note=58 velocity=0 time=172\n",
      "note_on channel=0 note=58 velocity=41 time=0\n",
      "note_on channel=0 note=65 velocity=53 time=0\n",
      "note_on channel=0 note=68 velocity=0 time=26\n",
      "note_on channel=0 note=63 velocity=53 time=115\n",
      "note_on channel=0 note=55 velocity=0 time=13\n",
      "note_on channel=0 note=55 velocity=49 time=0\n",
      "note_on channel=0 note=58 velocity=0 time=167\n",
      "note_on channel=0 note=63 velocity=0 time=0\n",
      "note_on channel=0 note=65 velocity=0 time=0\n",
      "note_on channel=0 note=51 velocity=0 time=18\n",
      "note_on channel=0 note=54 velocity=41 time=0\n",
      "note_on channel=0 note=55 velocity=0 time=0\n",
      "note_on channel=0 note=61 velocity=41 time=0\n",
      "note_on channel=0 note=67 velocity=0 time=0\n",
      "note_on channel=0 note=58 velocity=37 time=13\n",
      "note_on channel=0 note=54 velocity=0 time=352\n",
      "note_on channel=0 note=54 velocity=53 time=0\n",
      "note_on channel=0 note=58 velocity=0 time=0\n",
      "note_on channel=0 note=58 velocity=49 time=0\n",
      "note_on channel=0 note=61 velocity=0 time=0\n",
      "note_on channel=0 note=61 velocity=53 time=0\n",
      "note_on channel=0 note=65 velocity=57 time=0\n",
      "note_on channel=0 note=61 velocity=0 time=378\n",
      "note_on channel=0 note=61 velocity=45 time=0\n",
      "note_on channel=0 note=66 velocity=57 time=0\n",
      "note_on channel=0 note=54 velocity=0 time=13\n",
      "note_on channel=0 note=54 velocity=49 time=0\n",
      "note_on channel=0 note=58 velocity=0 time=0\n",
      "note_on channel=0 note=58 velocity=49 time=0\n",
      "note_on channel=0 note=65 velocity=0 time=31\n"
     ]
    },
    {
     "name": "stdout",
     "output_type": "stream",
     "text": [
      "note_on channel=0 note=54 velocity=0 time=321\n",
      "note_on channel=0 note=54 velocity=45 time=0\n",
      "note_on channel=0 note=58 velocity=0 time=0\n",
      "note_on channel=0 note=58 velocity=49 time=0\n",
      "note_on channel=0 note=61 velocity=0 time=18\n",
      "note_on channel=0 note=61 velocity=49 time=0\n",
      "note_on channel=0 note=54 velocity=0 time=378\n",
      "note_on channel=0 note=58 velocity=0 time=0\n",
      "note_on channel=0 note=58 velocity=53 time=0\n",
      "note_on channel=0 note=61 velocity=0 time=0\n",
      "note_on channel=0 note=61 velocity=49 time=0\n",
      "note_on channel=0 note=65 velocity=57 time=0\n",
      "note_on channel=0 note=66 velocity=0 time=0\n",
      "note_on channel=0 note=51 velocity=49 time=14\n",
      "note_on channel=0 note=58 velocity=0 time=396\n",
      "note_on channel=0 note=58 velocity=53 time=0\n",
      "note_on channel=0 note=61 velocity=0 time=0\n",
      "note_on channel=0 note=61 velocity=57 time=0\n",
      "note_on channel=0 note=68 velocity=57 time=0\n",
      "note_on channel=0 note=51 velocity=0 time=13\n",
      "note_on channel=0 note=51 velocity=53 time=0\n",
      "note_on channel=0 note=65 velocity=0 time=0\n",
      "note_on channel=0 note=65 velocity=53 time=0\n",
      "note_on channel=0 note=58 velocity=0 time=396\n",
      "note_on channel=0 note=58 velocity=45 time=0\n",
      "note_on channel=0 note=61 velocity=0 time=0\n",
      "note_on channel=0 note=61 velocity=45 time=0\n",
      "note_on channel=0 note=66 velocity=57 time=0\n",
      "note_on channel=0 note=70 velocity=53 time=0\n",
      "note_on channel=0 note=51 velocity=0 time=26\n",
      "note_on channel=0 note=51 velocity=49 time=0\n",
      "note_on channel=0 note=65 velocity=0 time=0\n",
      "note_on channel=0 note=70 velocity=0 time=0\n",
      "note_on channel=0 note=68 velocity=0 time=13\n",
      "note_on channel=0 note=63 velocity=57 time=423\n",
      "note_on channel=0 note=58 velocity=0 time=83\n",
      "note_on channel=0 note=61 velocity=0 time=18\n",
      "note_on channel=0 note=66 velocity=0 time=0\n",
      "note_on channel=0 note=51 velocity=0 time=84\n",
      "note_on channel=0 note=63 velocity=0 time=96\n",
      "note_on channel=0 note=49 velocity=49 time=282\n",
      "note_on channel=0 note=68 velocity=57 time=0\n",
      "note_on channel=0 note=53 velocity=49 time=172\n",
      "note_on channel=0 note=56 velocity=41 time=154\n",
      "note_on channel=0 note=53 velocity=0 time=180\n",
      "note_on channel=0 note=53 velocity=49 time=0\n",
      "note_on channel=0 note=61 velocity=49 time=185\n",
      "note_on channel=0 note=56 velocity=0 time=167\n",
      "note_on channel=0 note=56 velocity=41 time=0\n",
      "note_on channel=0 note=53 velocity=0 time=154\n",
      "note_on channel=0 note=53 velocity=49 time=0\n",
      "note_on channel=0 note=49 velocity=0 time=172\n",
      "note_on channel=0 note=49 velocity=53 time=0\n",
      "note_on channel=0 note=53 velocity=0 time=26\n",
      "note_on channel=0 note=56 velocity=0 time=0\n",
      "note_on channel=0 note=68 velocity=0 time=0\n",
      "note_on channel=0 note=53 velocity=45 time=141\n",
      "note_on channel=0 note=56 velocity=45 time=154\n",
      "note_on channel=0 note=53 velocity=0 time=171\n",
      "note_on channel=0 note=53 velocity=45 time=0\n",
      "note_on channel=0 note=61 velocity=0 time=154\n",
      "note_on channel=0 note=61 velocity=49 time=0\n",
      "note_on channel=0 note=56 velocity=0 time=168\n",
      "note_on channel=0 note=56 velocity=41 time=0\n",
      "note_on channel=0 note=73 velocity=53 time=0\n",
      "note_on channel=0 note=53 velocity=0 time=171\n",
      "note_on channel=0 note=53 velocity=45 time=0\n",
      "note_on channel=0 note=69 velocity=45 time=13\n",
      "note_on channel=0 note=70 velocity=53 time=141\n",
      "note_on channel=0 note=48 velocity=37 time=13\n",
      "note_on channel=0 note=49 velocity=0 time=14\n",
      "note_on channel=0 note=56 velocity=0 time=0\n",
      "note_on channel=0 note=61 velocity=0 time=0\n",
      "note_on channel=0 note=53 velocity=0 time=17\n",
      "note_on channel=0 note=69 velocity=0 time=0\n",
      "note_on channel=0 note=73 velocity=0 time=0\n",
      "note_on channel=0 note=51 velocity=41 time=123\n",
      "note_on channel=0 note=56 velocity=45 time=172\n",
      "note_on channel=0 note=51 velocity=0 time=167\n",
      "note_on channel=0 note=51 velocity=49 time=0\n",
      "note_on channel=0 note=63 velocity=49 time=154\n",
      "note_on channel=0 note=70 velocity=0 time=0\n",
      "note_on channel=0 note=48 velocity=0 time=18\n",
      "note_on channel=0 note=51 velocity=0 time=0\n",
      "note_on channel=0 note=56 velocity=0 time=0\n",
      "note_on channel=0 note=56 velocity=37 time=154\n",
      "note_on channel=0 note=51 velocity=45 time=154\n",
      "note_on channel=0 note=48 velocity=41 time=167\n",
      "note_on channel=0 note=51 velocity=0 time=18\n",
      "note_on channel=0 note=56 velocity=0 time=13\n",
      "note_on channel=0 note=51 velocity=45 time=141\n",
      "note_on channel=0 note=56 velocity=41 time=167\n",
      "note_on channel=0 note=68 velocity=57 time=154\n",
      "note_on channel=0 note=51 velocity=0 time=17\n",
      "note_on channel=0 note=51 velocity=41 time=0\n",
      "note_on channel=0 note=63 velocity=0 time=154\n",
      "note_on channel=0 note=63 velocity=57 time=0\n",
      "note_on channel=0 note=48 velocity=0 time=14\n",
      "note_on channel=0 note=51 velocity=0 time=154\n",
      "note_on channel=0 note=56 velocity=0 time=0\n",
      "note_on channel=0 note=56 velocity=37 time=0\n",
      "note_on channel=0 note=51 velocity=49 time=154\n",
      "note_on channel=0 note=61 velocity=49 time=184\n",
      "note_on channel=0 note=49 velocity=37 time=14\n",
      "note_on channel=0 note=51 velocity=0 time=13\n",
      "note_on channel=0 note=56 velocity=0 time=0\n",
      "note_on channel=0 note=63 velocity=0 time=0\n",
      "note_on channel=0 note=68 velocity=0 time=0\n",
      "note_on channel=0 note=53 velocity=41 time=141\n",
      "note_on channel=0 note=56 velocity=37 time=158\n",
      "note_on channel=0 note=53 velocity=0 time=167\n",
      "note_on channel=0 note=53 velocity=49 time=0\n",
      "note_on channel=0 note=49 velocity=0 time=13\n",
      "note_on channel=0 note=61 velocity=0 time=141\n",
      "note_on channel=0 note=61 velocity=41 time=0\n",
      "note_on channel=0 note=65 velocity=45 time=0\n",
      "note_on channel=0 note=56 velocity=0 time=185\n",
      "note_on channel=0 note=56 velocity=37 time=0\n",
      "note_on channel=0 note=53 velocity=0 time=154\n",
      "note_on channel=0 note=53 velocity=45 time=0\n",
      "note_on channel=0 note=49 velocity=49 time=167\n",
      "note_on channel=0 note=53 velocity=0 time=31\n",
      "note_on channel=0 note=56 velocity=0 time=0\n",
      "note_on channel=0 note=65 velocity=0 time=13\n",
      "note_on channel=0 note=53 velocity=45 time=128\n",
      "note_on channel=0 note=56 velocity=41 time=167\n",
      "note_on channel=0 note=53 velocity=0 time=172\n",
      "note_on channel=0 note=53 velocity=45 time=0\n",
      "note_on channel=0 note=61 velocity=0 time=167\n",
      "note_on channel=0 note=61 velocity=53 time=0\n",
      "note_on channel=0 note=73 velocity=49 time=141\n",
      "note_on channel=0 note=56 velocity=0 time=13\n",
      "note_on channel=0 note=56 velocity=41 time=0\n",
      "note_on channel=0 note=69 velocity=45 time=154\n",
      "note_on channel=0 note=53 velocity=0 time=17\n",
      "note_on channel=0 note=53 velocity=41 time=0\n",
      "note_on channel=0 note=70 velocity=53 time=154\n",
      "note_on channel=0 note=48 velocity=29 time=14\n",
      "note_on channel=0 note=49 velocity=0 time=0\n",
      "note_on channel=0 note=56 velocity=0 time=0\n",
      "note_on channel=0 note=69 velocity=0 time=0\n",
      "note_on channel=0 note=53 velocity=0 time=13\n",
      "note_on channel=0 note=61 velocity=0 time=0\n",
      "note_on channel=0 note=73 velocity=0 time=0\n",
      "note_on channel=0 note=51 velocity=41 time=141\n",
      "note_on channel=0 note=56 velocity=49 time=184\n",
      "note_on channel=0 note=51 velocity=0 time=154\n",
      "note_on channel=0 note=51 velocity=45 time=0\n",
      "note_on channel=0 note=75 velocity=53 time=154\n",
      "note_on channel=0 note=48 velocity=0 time=14\n",
      "note_on channel=0 note=70 velocity=0 time=0\n",
      "note_on channel=0 note=51 velocity=0 time=13\n",
      "note_on channel=0 note=56 velocity=0 time=0\n",
      "note_on channel=0 note=56 velocity=29 time=141\n",
      "note_on channel=0 note=51 velocity=41 time=158\n",
      "note_on channel=0 note=48 velocity=41 time=167\n",
      "note_on channel=0 note=51 velocity=0 time=27\n",
      "note_on channel=0 note=56 velocity=0 time=0\n",
      "note_on channel=0 note=48 velocity=0 time=140\n",
      "note_on channel=0 note=51 velocity=45 time=0\n",
      "note_on channel=0 note=56 velocity=37 time=159\n",
      "note_on channel=0 note=51 velocity=0 time=154\n",
      "note_on channel=0 note=51 velocity=37 time=0\n",
      "note_on channel=0 note=68 velocity=53 time=0\n",
      "note_on channel=0 note=63 velocity=49 time=154\n",
      "note_on channel=0 note=56 velocity=0 time=13\n",
      "note_on channel=0 note=56 velocity=33 time=0\n",
      "note_on channel=0 note=75 velocity=0 time=13\n",
      "note_on channel=0 note=51 velocity=0 time=141\n",
      "note_on channel=0 note=51 velocity=53 time=0\n",
      "note_on channel=0 note=49 velocity=53 time=172\n",
      "note_on channel=0 note=63 velocity=0 time=13\n",
      "note_on channel=0 note=51 velocity=0 time=13\n",
      "note_on channel=0 note=56 velocity=0 time=0\n",
      "note_on channel=0 note=68 velocity=0 time=44\n",
      "note_on channel=0 note=53 velocity=37 time=110\n",
      "note_on channel=0 note=56 velocity=37 time=158\n",
      "note_on channel=0 note=53 velocity=0 time=181\n",
      "note_on channel=0 note=53 velocity=45 time=0\n",
      "note_on channel=0 note=61 velocity=53 time=171\n",
      "note_on channel=0 note=65 velocity=61 time=0\n"
     ]
    },
    {
     "name": "stdout",
     "output_type": "stream",
     "text": [
      "note_on channel=0 note=56 velocity=0 time=154\n",
      "note_on channel=0 note=56 velocity=37 time=0\n",
      "note_on channel=0 note=53 velocity=0 time=168\n",
      "note_on channel=0 note=53 velocity=49 time=0\n",
      "note_on channel=0 note=49 velocity=0 time=171\n",
      "note_on channel=0 note=49 velocity=49 time=0\n",
      "note_on channel=0 note=53 velocity=0 time=27\n",
      "note_on channel=0 note=56 velocity=0 time=0\n",
      "note_on channel=0 note=61 velocity=0 time=13\n",
      "note_on channel=0 note=65 velocity=0 time=0\n",
      "note_on channel=0 note=53 velocity=41 time=127\n",
      "note_on channel=0 note=56 velocity=41 time=141\n",
      "note_on channel=0 note=53 velocity=0 time=185\n",
      "note_on channel=0 note=53 velocity=49 time=0\n",
      "note_on channel=0 note=61 velocity=57 time=154\n",
      "note_on channel=0 note=65 velocity=53 time=0\n",
      "note_on channel=0 note=73 velocity=49 time=167\n",
      "note_on channel=0 note=56 velocity=0 time=13\n",
      "note_on channel=0 note=56 velocity=37 time=0\n",
      "note_on channel=0 note=69 velocity=49 time=159\n",
      "note_on channel=0 note=53 velocity=0 time=13\n",
      "note_on channel=0 note=53 velocity=41 time=0\n",
      "note_on channel=0 note=48 velocity=45 time=154\n",
      "note_on channel=0 note=70 velocity=49 time=0\n",
      "note_on channel=0 note=49 velocity=0 time=44\n",
      "note_on channel=0 note=53 velocity=0 time=0\n",
      "note_on channel=0 note=56 velocity=0 time=0\n",
      "note_on channel=0 note=61 velocity=0 time=0\n",
      "note_on channel=0 note=65 velocity=0 time=0\n",
      "note_on channel=0 note=69 velocity=0 time=0\n",
      "note_on channel=0 note=73 velocity=0 time=0\n",
      "note_on channel=0 note=51 velocity=45 time=123\n"
     ]
    },
    {
     "ename": "KeyboardInterrupt",
     "evalue": "",
     "output_type": "error",
     "traceback": [
      "\u001b[0;31m---------------------------------------------------------------------------\u001b[0m",
      "\u001b[0;31mKeyboardInterrupt\u001b[0m                         Traceback (most recent call last)",
      "\u001b[0;32m<ipython-input-107-310fdc4d3f54>\u001b[0m in \u001b[0;36m<module>\u001b[0;34m\u001b[0m\n\u001b[1;32m      1\u001b[0m \u001b[0;32mfor\u001b[0m \u001b[0mmsg\u001b[0m \u001b[0;32min\u001b[0m \u001b[0mmid\u001b[0m\u001b[0;34m.\u001b[0m\u001b[0mtracks\u001b[0m\u001b[0;34m[\u001b[0m\u001b[0;36m1\u001b[0m\u001b[0;34m]\u001b[0m\u001b[0;34m:\u001b[0m\u001b[0;34m\u001b[0m\u001b[0;34m\u001b[0m\u001b[0m\n\u001b[1;32m      2\u001b[0m     \u001b[0mprint\u001b[0m\u001b[0;34m(\u001b[0m\u001b[0mmsg\u001b[0m\u001b[0;34m)\u001b[0m\u001b[0;34m\u001b[0m\u001b[0;34m\u001b[0m\u001b[0m\n\u001b[0;32m----> 3\u001b[0;31m     \u001b[0mtime\u001b[0m\u001b[0;34m.\u001b[0m\u001b[0msleep\u001b[0m\u001b[0;34m(\u001b[0m\u001b[0;36m.3\u001b[0m\u001b[0;34m)\u001b[0m\u001b[0;34m\u001b[0m\u001b[0;34m\u001b[0m\u001b[0m\n\u001b[0m\u001b[1;32m      4\u001b[0m     \u001b[0moutport\u001b[0m\u001b[0;34m.\u001b[0m\u001b[0msend\u001b[0m\u001b[0;34m(\u001b[0m\u001b[0mmsg\u001b[0m\u001b[0;34m)\u001b[0m\u001b[0;34m\u001b[0m\u001b[0;34m\u001b[0m\u001b[0m\n",
      "\u001b[0;31mKeyboardInterrupt\u001b[0m: "
     ]
    }
   ],
   "source": [
    "for msg in mid.tracks[1]:\n",
    "    print(msg)\n",
    "    time.sleep(.3)\n",
    "    outport.send(msg)"
   ]
  },
  {
   "cell_type": "code",
   "execution_count": 100,
   "id": "worthy-memphis",
   "metadata": {},
   "outputs": [
    {
     "data": {
      "text/plain": [
       "0.17708333333333334"
      ]
     },
     "execution_count": 100,
     "metadata": {},
     "output_type": "execute_result"
    }
   ],
   "source": [
    "mido.tick2second(170,480,500000)"
   ]
  },
  {
   "cell_type": "code",
   "execution_count": 77,
   "id": "creative-eleven",
   "metadata": {},
   "outputs": [
    {
     "data": {
      "text/plain": [
       "['IAC Driver Bus 1',\n",
       " 'IAC Driver python',\n",
       " 'Network Session 1',\n",
       " 'iPad',\n",
       " 'IAC Driver Bus 1',\n",
       " 'IAC Driver python',\n",
       " 'Network Session 1',\n",
       " 'iPad']"
      ]
     },
     "execution_count": 77,
     "metadata": {},
     "output_type": "execute_result"
    }
   ],
   "source": [
    "inport = mido.open_input()\n",
    "mido.get_input_names()"
   ]
  }
 ],
 "metadata": {
  "kernelspec": {
   "display_name": "Python 3",
   "language": "python",
   "name": "python3"
  },
  "language_info": {
   "codemirror_mode": {
    "name": "ipython",
    "version": 3
   },
   "file_extension": ".py",
   "mimetype": "text/x-python",
   "name": "python",
   "nbconvert_exporter": "python",
   "pygments_lexer": "ipython3",
   "version": "3.8.2"
  }
 },
 "nbformat": 4,
 "nbformat_minor": 5
}
