{
 "cells": [
  {
   "cell_type": "code",
   "execution_count": 92,
   "id": "prerequisite-crest",
   "metadata": {},
   "outputs": [],
   "source": [
    "import mido\n",
    "from mido import MidiFile\n",
    "import time"
   ]
  },
  {
   "cell_type": "markdown",
   "id": "dutch-excess",
   "metadata": {},
   "source": [
    "### Set up of midi and Python\n",
    "\n",
    "As per this blog post, setting up a Python-Midi port connection is extremely simple on a Mac. Just follow these steps: \n",
    "\n",
    "https://natespilman.com/blog/2020-03-23-generating-midi-music-stream-with-python/\n",
    "\n",
    "We have created a port called 'python' using the IAC Driver. The IAC Driver let's you route MIDI messages between applications. Hence, Inter Application Communication. \n",
    "\n",
    "Having done that, we can use mido to send messages to the 'IAC Driver port'"
   ]
  },
  {
   "cell_type": "code",
   "execution_count": 88,
   "id": "understood-processing",
   "metadata": {},
   "outputs": [],
   "source": [
    "msg = mido.Message('note_on', note=80, velocity=64)\n",
    "outport = mido.open_output('IAC Driver python')\n",
    "outport.send(msg)"
   ]
  },
  {
   "cell_type": "markdown",
   "id": "bacterial-population",
   "metadata": {},
   "source": [
    "We can just create a two note interval and send them as messages with a velocity of 64. "
   ]
  },
  {
   "cell_type": "code",
   "execution_count": 41,
   "id": "surprised-crisis",
   "metadata": {},
   "outputs": [],
   "source": [
    "notes = []\n",
    "for i in range(60,65,4):\n",
    "    notes.append(i)\n",
    "    "
   ]
  },
  {
   "cell_type": "code",
   "execution_count": 43,
   "id": "compliant-pizza",
   "metadata": {},
   "outputs": [],
   "source": [
    "outport = mido.open_output('IAC Driver python')\n",
    "\n",
    "for n in notes:\n",
    "    msg = mido.Message('note_on', note = n, velocity = 64)\n",
    "    outport.send(msg)"
   ]
  },
  {
   "cell_type": "markdown",
   "id": "rolled-influence",
   "metadata": {},
   "source": [
    "Now, let's read a file"
   ]
  },
  {
   "cell_type": "code",
   "execution_count": 46,
   "id": "cellular-delta",
   "metadata": {},
   "outputs": [],
   "source": [
    "mid = MidiFile('/Users/rodolfoocampo/Documents/PhD/DCAI/Audio and midi experiments/Music Transformer/Output - Clair de lune - 6.midi')"
   ]
  },
  {
   "cell_type": "code",
   "execution_count": 49,
   "id": "alive-blank",
   "metadata": {},
   "outputs": [
    {
     "ename": "ValueError",
     "evalue": "'message' longer than 3 bytes but does not start with 0xF0.",
     "output_type": "error",
     "traceback": [
      "\u001b[0;31m---------------------------------------------------------------------------\u001b[0m",
      "\u001b[0;31mValueError\u001b[0m                                Traceback (most recent call last)",
      "\u001b[0;32m<ipython-input-49-50a3922b6bec>\u001b[0m in \u001b[0;36m<module>\u001b[0;34m\u001b[0m\n\u001b[1;32m      1\u001b[0m \u001b[0;32mfor\u001b[0m \u001b[0mi\u001b[0m\u001b[0;34m,\u001b[0m \u001b[0mtrack\u001b[0m \u001b[0;32min\u001b[0m \u001b[0menumerate\u001b[0m\u001b[0;34m(\u001b[0m\u001b[0mmid\u001b[0m\u001b[0;34m.\u001b[0m\u001b[0mtracks\u001b[0m\u001b[0;34m)\u001b[0m\u001b[0;34m:\u001b[0m\u001b[0;34m\u001b[0m\u001b[0;34m\u001b[0m\u001b[0m\n\u001b[1;32m      2\u001b[0m     \u001b[0;32mfor\u001b[0m \u001b[0mmsg\u001b[0m \u001b[0;32min\u001b[0m \u001b[0mtrack\u001b[0m\u001b[0;34m:\u001b[0m\u001b[0;34m\u001b[0m\u001b[0;34m\u001b[0m\u001b[0m\n\u001b[0;32m----> 3\u001b[0;31m         \u001b[0moutport\u001b[0m\u001b[0;34m.\u001b[0m\u001b[0msend\u001b[0m\u001b[0;34m(\u001b[0m\u001b[0mmsg\u001b[0m\u001b[0;34m)\u001b[0m\u001b[0;34m\u001b[0m\u001b[0;34m\u001b[0m\u001b[0m\n\u001b[0m",
      "\u001b[0;32m/Library/Python/3.8/site-packages/mido/backends/rtmidi.py\u001b[0m in \u001b[0;36msend\u001b[0;34m(self, msg)\u001b[0m\n\u001b[1;32m    200\u001b[0m         \u001b[0;34m\"\"\"Send a message on the port.\"\"\"\u001b[0m\u001b[0;34m\u001b[0m\u001b[0;34m\u001b[0m\u001b[0m\n\u001b[1;32m    201\u001b[0m         \u001b[0;32mwith\u001b[0m \u001b[0mself\u001b[0m\u001b[0;34m.\u001b[0m\u001b[0m_send_lock\u001b[0m\u001b[0;34m:\u001b[0m\u001b[0;34m\u001b[0m\u001b[0;34m\u001b[0m\u001b[0m\n\u001b[0;32m--> 202\u001b[0;31m             \u001b[0mself\u001b[0m\u001b[0;34m.\u001b[0m\u001b[0m_rt\u001b[0m\u001b[0;34m.\u001b[0m\u001b[0msend_message\u001b[0m\u001b[0;34m(\u001b[0m\u001b[0mmsg\u001b[0m\u001b[0;34m.\u001b[0m\u001b[0mbytes\u001b[0m\u001b[0;34m(\u001b[0m\u001b[0;34m)\u001b[0m\u001b[0;34m)\u001b[0m\u001b[0;34m\u001b[0m\u001b[0;34m\u001b[0m\u001b[0m\n\u001b[0m\u001b[1;32m    203\u001b[0m \u001b[0;34m\u001b[0m\u001b[0m\n\u001b[1;32m    204\u001b[0m     \u001b[0msend\u001b[0m\u001b[0;34m.\u001b[0m\u001b[0m__doc__\u001b[0m \u001b[0;34m=\u001b[0m \u001b[0mports\u001b[0m\u001b[0;34m.\u001b[0m\u001b[0mBaseOutput\u001b[0m\u001b[0;34m.\u001b[0m\u001b[0msend\u001b[0m\u001b[0;34m.\u001b[0m\u001b[0m__doc__\u001b[0m\u001b[0;34m\u001b[0m\u001b[0;34m\u001b[0m\u001b[0m\n",
      "\u001b[0;32msrc/_rtmidi.pyx\u001b[0m in \u001b[0;36mrtmidi._rtmidi.MidiOut.send_message\u001b[0;34m()\u001b[0m\n",
      "\u001b[0;31mValueError\u001b[0m: 'message' longer than 3 bytes but does not start with 0xF0."
     ]
    }
   ],
   "source": [
    "for i, track in enumerate(mid.tracks):\n",
    "    for msg in track:\n",
    "        outport.send(msg)"
   ]
  },
  {
   "cell_type": "code",
   "execution_count": 86,
   "id": "elegant-possibility",
   "metadata": {
    "collapsed": true
   },
   "outputs": [
    {
     "data": {
      "text/plain": [
       "[MidiTrack([\n",
       "   MetaMessage('set_tempo', tempo=500000, time=0),\n",
       "   MetaMessage('time_signature', numerator=4, denominator=4, clocks_per_click=24, notated_32nd_notes_per_beat=8, time=0),\n",
       "   MetaMessage('end_of_track', time=1)]),\n",
       " MidiTrack([\n",
       "   Message('program_change', channel=0, program=0, time=0),\n",
       "   Message('note_on', channel=0, note=66, velocity=100, time=3133),\n",
       "   Message('note_on', channel=0, note=69, velocity=100, time=0),\n",
       "   Message('note_on', channel=0, note=72, velocity=61, time=171),\n",
       "   Message('note_on', channel=0, note=75, velocity=65, time=0),\n",
       "   Message('note_on', channel=0, note=73, velocity=57, time=308),\n",
       "   Message('note_on', channel=0, note=77, velocity=57, time=0),\n",
       "   Message('note_on', channel=0, note=69, velocity=0, time=198),\n",
       "   Message('note_on', channel=0, note=69, velocity=49, time=0),\n",
       "   Message('note_on', channel=0, note=72, velocity=0, time=0),\n",
       "   Message('note_on', channel=0, note=72, velocity=57, time=0),\n",
       "   Message('note_on', channel=0, note=73, velocity=0, time=0),\n",
       "   Message('note_on', channel=0, note=75, velocity=0, time=0),\n",
       "   Message('note_on', channel=0, note=75, velocity=61, time=0),\n",
       "   Message('note_on', channel=0, note=77, velocity=0, time=14),\n",
       "   Message('note_on', channel=0, note=80, velocity=61, time=167),\n",
       "   Message('note_on', channel=0, note=66, velocity=0, time=198),\n",
       "   Message('note_on', channel=0, note=69, velocity=0, time=0),\n",
       "   Message('note_on', channel=0, note=72, velocity=0, time=0),\n",
       "   Message('note_on', channel=0, note=75, velocity=0, time=0),\n",
       "   Message('note_on', channel=0, note=80, velocity=0, time=0),\n",
       "   Message('note_on', channel=0, note=62, velocity=37, time=31),\n",
       "   Message('note_on', channel=0, note=72, velocity=53, time=0),\n",
       "   Message('note_on', channel=0, note=82, velocity=57, time=0),\n",
       "   Message('note_on', channel=0, note=67, velocity=45, time=13),\n",
       "   Message('note_on', channel=0, note=67, velocity=0, time=563),\n",
       "   Message('note_on', channel=0, note=67, velocity=45, time=0),\n",
       "   Message('note_on', channel=0, note=72, velocity=0, time=0),\n",
       "   Message('note_on', channel=0, note=72, velocity=41, time=0),\n",
       "   Message('note_on', channel=0, note=82, velocity=0, time=0),\n",
       "   Message('note_on', channel=0, note=82, velocity=57, time=0),\n",
       "   Message('note_on', channel=0, note=62, velocity=0, time=13),\n",
       "   Message('note_on', channel=0, note=62, velocity=41, time=0),\n",
       "   Message('note_on', channel=0, note=80, velocity=53, time=735),\n",
       "   Message('note_on', channel=0, note=61, velocity=49, time=13),\n",
       "   Message('note_on', channel=0, note=67, velocity=0, time=0),\n",
       "   Message('note_on', channel=0, note=67, velocity=53, time=0),\n",
       "   Message('note_on', channel=0, note=70, velocity=53, time=0),\n",
       "   Message('note_on', channel=0, note=72, velocity=0, time=27),\n",
       "   Message('note_on', channel=0, note=62, velocity=0, time=13),\n",
       "   Message('note_on', channel=0, note=82, velocity=0, time=0),\n",
       "   Message('note_on', channel=0, note=60, velocity=41, time=620),\n",
       "   Message('note_on', channel=0, note=63, velocity=45, time=0),\n",
       "   Message('note_on', channel=0, note=68, velocity=49, time=0),\n",
       "   Message('note_on', channel=0, note=80, velocity=0, time=13),\n",
       "   Message('note_on', channel=0, note=70, velocity=0, time=31),\n",
       "   Message('note_on', channel=0, note=61, velocity=0, time=13),\n",
       "   Message('note_on', channel=0, note=67, velocity=0, time=0),\n",
       "   Message('note_on', channel=0, note=70, velocity=53, time=115),\n",
       "   Message('note_on', channel=0, note=72, velocity=53, time=154),\n",
       "   Message('note_on', channel=0, note=70, velocity=0, time=154),\n",
       "   Message('note_on', channel=0, note=70, velocity=49, time=0),\n",
       "   Message('note_on', channel=0, note=72, velocity=0, time=57),\n",
       "   Message('note_on', channel=0, note=68, velocity=0, time=449),\n",
       "   Message('note_on', channel=0, note=68, velocity=45, time=0),\n",
       "   Message('note_on', channel=0, note=60, velocity=0, time=268),\n",
       "   Message('note_on', channel=0, note=63, velocity=0, time=0),\n",
       "   Message('note_on', channel=0, note=68, velocity=0, time=0),\n",
       "   Message('note_on', channel=0, note=70, velocity=0, time=0),\n",
       "   Message('note_on', channel=0, note=60, velocity=49, time=44),\n",
       "   Message('note_on', channel=0, note=67, velocity=53, time=0),\n",
       "   Message('note_on', channel=0, note=70, velocity=53, time=0),\n",
       "   Message('note_on', channel=0, note=60, velocity=0, time=577),\n",
       "   Message('note_on', channel=0, note=60, velocity=49, time=0),\n",
       "   Message('note_on', channel=0, note=67, velocity=0, time=0),\n",
       "   Message('note_on', channel=0, note=67, velocity=49, time=0),\n",
       "   Message('note_on', channel=0, note=70, velocity=0, time=0),\n",
       "   Message('note_on', channel=0, note=70, velocity=53, time=0),\n",
       "   Message('note_on', channel=0, note=73, velocity=57, time=0),\n",
       "   Message('note_on', channel=0, note=68, velocity=49, time=704),\n",
       "   Message('note_on', channel=0, note=60, velocity=0, time=13),\n",
       "   Message('note_on', channel=0, note=60, velocity=49, time=0),\n",
       "   Message('note_on', channel=0, note=63, velocity=49, time=0),\n",
       "   Message('note_on', channel=0, note=67, velocity=0, time=44),\n",
       "   Message('note_on', channel=0, note=70, velocity=0, time=13),\n",
       "   Message('note_on', channel=0, note=73, velocity=0, time=0),\n",
       "   Message('note_on', channel=0, note=65, velocity=45, time=717),\n",
       "   Message('note_on', channel=0, note=68, velocity=0, time=13),\n",
       "   Message('note_on', channel=0, note=68, velocity=41, time=0),\n",
       "   Message('note_on', channel=0, note=85, velocity=57, time=242),\n",
       "   Message('note_on', channel=0, note=77, velocity=49, time=14),\n",
       "   Message('note_on', channel=0, note=60, velocity=0, time=70),\n",
       "   Message('note_on', channel=0, note=68, velocity=0, time=339),\n",
       "   Message('note_on', channel=0, note=61, velocity=33, time=198),\n",
       "   Message('note_on', channel=0, note=89, velocity=61, time=39),\n",
       "   Message('note_on', channel=0, note=73, velocity=53, time=14),\n",
       "   Message('note_on', channel=0, note=77, velocity=0, time=0),\n",
       "   Message('note_on', channel=0, note=77, velocity=53, time=0),\n",
       "   Message('note_on', channel=0, note=63, velocity=0, time=536),\n",
       "   Message('note_on', channel=0, note=61, velocity=0, time=31),\n",
       "   Message('note_on', channel=0, note=85, velocity=0, time=71),\n",
       "   Message('note_on', channel=0, note=68, velocity=45, time=39),\n",
       "   Message('note_on', channel=0, note=73, velocity=0, time=31),\n",
       "   Message('note_on', channel=0, note=73, velocity=45, time=0),\n",
       "   Message('note_on', channel=0, note=65, velocity=0, time=26),\n",
       "   Message('note_on', channel=0, note=89, velocity=0, time=58),\n",
       "   Message('note_on', channel=0, note=80, velocity=49, time=96),\n",
       "   Message('note_on', channel=0, note=87, velocity=57, time=0),\n",
       "   Message('note_on', channel=0, note=85, velocity=57, time=339),\n",
       "   Message('note_on', channel=0, note=87, velocity=0, time=44),\n",
       "   Message('note_on', channel=0, note=77, velocity=0, time=123),\n",
       "   Message('note_on', channel=0, note=73, velocity=0, time=242),\n",
       "   Message('note_on', channel=0, note=73, velocity=45, time=0),\n",
       "   Message('note_on', channel=0, note=77, velocity=53, time=0),\n",
       "   Message('note_on', channel=0, note=62, velocity=37, time=14),\n",
       "   Message('note_on', channel=0, note=68, velocity=0, time=0),\n",
       "   Message('note_on', channel=0, note=68, velocity=41, time=0),\n",
       "   Message('note_on', channel=0, note=85, velocity=0, time=0),\n",
       "   Message('note_on', channel=0, note=63, velocity=37, time=589),\n",
       "   Message('note_on', channel=0, note=67, velocity=41, time=0),\n",
       "   Message('note_on', channel=0, note=70, velocity=41, time=0),\n",
       "   Message('note_on', channel=0, note=62, velocity=0, time=18),\n",
       "   Message('note_on', channel=0, note=68, velocity=0, time=0),\n",
       "   Message('note_on', channel=0, note=73, velocity=0, time=0),\n",
       "   Message('note_on', channel=0, note=80, velocity=0, time=13),\n",
       "   Message('note_on', channel=0, note=77, velocity=0, time=13),\n",
       "   Message('note_on', channel=0, note=72, velocity=45, time=115),\n",
       "   Message('note_on', channel=0, note=73, velocity=41, time=154),\n",
       "   Message('note_on', channel=0, note=72, velocity=0, time=154),\n",
       "   Message('note_on', channel=0, note=72, velocity=37, time=0),\n",
       "   Message('note_on', channel=0, note=63, velocity=0, time=448),\n",
       "   Message('note_on', channel=0, note=70, velocity=0, time=0),\n",
       "   Message('note_on', channel=0, note=70, velocity=37, time=0),\n",
       "   Message('note_on', channel=0, note=72, velocity=0, time=198),\n",
       "   Message('note_on', channel=0, note=67, velocity=0, time=31),\n",
       "   Message('note_on', channel=0, note=73, velocity=0, time=0),\n",
       "   Message('note_on', channel=0, note=77, velocity=49, time=40),\n",
       "   Message('note_on', channel=0, note=63, velocity=33, time=13),\n",
       "   Message('note_on', channel=0, note=67, velocity=33, time=0),\n",
       "   Message('note_on', channel=0, note=70, velocity=0, time=0),\n",
       "   Message('note_on', channel=0, note=70, velocity=37, time=0),\n",
       "   Message('note_on', channel=0, note=73, velocity=49, time=229),\n",
       "   Message('note_on', channel=0, note=77, velocity=0, time=180),\n",
       "   Message('note_on', channel=0, note=75, velocity=53, time=13),\n",
       "   Message('note_on', channel=0, note=63, velocity=0, time=493),\n",
       "   Message('note_on', channel=0, note=70, velocity=0, time=18),\n",
       "   Message('note_on', channel=0, note=67, velocity=0, time=39),\n",
       "   Message('note_on', channel=0, note=56, velocity=37, time=454),\n",
       "   Message('note_on', channel=0, note=60, velocity=41, time=0),\n",
       "   Message('note_on', channel=0, note=63, velocity=49, time=0),\n",
       "   Message('note_on', channel=0, note=68, velocity=53, time=0),\n",
       "   Message('note_on', channel=0, note=73, velocity=0, time=26),\n",
       "   Message('note_on', channel=0, note=70, velocity=53, time=128),\n",
       "   Message('note_on', channel=0, note=75, velocity=0, time=26),\n",
       "   Message('note_on', channel=0, note=72, velocity=53, time=141),\n",
       "   Message('note_on', channel=0, note=70, velocity=0, time=185),\n",
       "   Message('note_on', channel=0, note=70, velocity=53, time=0),\n",
       "   Message('note_on', channel=0, note=56, velocity=0, time=519),\n",
       "   Message('note_on', channel=0, note=56, velocity=33, time=0),\n",
       "   Message('note_on', channel=0, note=68, velocity=0, time=13),\n",
       "   Message('note_on', channel=0, note=68, velocity=45, time=0),\n",
       "   Message('note_on', channel=0, note=56, velocity=0, time=268),\n",
       "   Message('note_on', channel=0, note=60, velocity=0, time=0),\n",
       "   Message('note_on', channel=0, note=63, velocity=0, time=0),\n",
       "   Message('note_on', channel=0, note=68, velocity=0, time=0),\n",
       "   Message('note_on', channel=0, note=70, velocity=0, time=0),\n",
       "   Message('note_on', channel=0, note=72, velocity=0, time=0),\n",
       "   Message('note_on', channel=0, note=60, velocity=45, time=84),\n",
       "   Message('note_on', channel=0, note=70, velocity=53, time=0),\n",
       "   Message('note_on', channel=0, note=53, velocity=41, time=18),\n",
       "   Message('note_on', channel=0, note=56, velocity=37, time=0),\n",
       "   Message('note_on', channel=0, note=73, velocity=57, time=0),\n",
       "   Message('note_on', channel=0, note=68, velocity=57, time=616),\n",
       "   Message('note_on', channel=0, note=72, velocity=57, time=0),\n",
       "   Message('note_on', channel=0, note=60, velocity=0, time=17),\n",
       "   Message('note_on', channel=0, note=60, velocity=41, time=0),\n",
       "   Message('note_on', channel=0, note=70, velocity=0, time=53),\n",
       "   Message('note_on', channel=0, note=73, velocity=0, time=0),\n",
       "   Message('note_on', channel=0, note=56, velocity=0, time=57),\n",
       "   Message('note_on', channel=0, note=60, velocity=0, time=550),\n",
       "   Message('note_on', channel=0, note=68, velocity=0, time=0),\n",
       "   Message('note_on', channel=0, note=53, velocity=0, time=13),\n",
       "   Message('note_on', channel=0, note=72, velocity=0, time=14),\n",
       "   Message('note_on', channel=0, note=56, velocity=41, time=30),\n",
       "   Message('note_on', channel=0, note=60, velocity=45, time=0),\n",
       "   Message('note_on', channel=0, note=67, velocity=49, time=0),\n",
       "   Message('note_on', channel=0, note=70, velocity=53, time=0),\n",
       "   Message('note_on', channel=0, note=56, velocity=0, time=647),\n",
       "   Message('note_on', channel=0, note=56, velocity=45, time=0),\n",
       "   Message('note_on', channel=0, note=67, velocity=0, time=0),\n",
       "   Message('note_on', channel=0, note=67, velocity=53, time=0),\n",
       "   Message('note_on', channel=0, note=70, velocity=0, time=0),\n",
       "   Message('note_on', channel=0, note=70, velocity=49, time=0),\n",
       "   Message('note_on', channel=0, note=73, velocity=53, time=0),\n",
       "   Message('note_on', channel=0, note=55, velocity=49, time=691),\n",
       "   Message('note_on', channel=0, note=72, velocity=45, time=466),\n",
       "   Message('note_on', channel=0, note=73, velocity=0, time=264),\n",
       "   Message('note_on', channel=0, note=67, velocity=0, time=256),\n",
       "   Message('note_on', channel=0, note=73, velocity=45, time=0),\n",
       "   Message('note_on', channel=0, note=70, velocity=0, time=211),\n",
       "   Message('note_on', channel=0, note=70, velocity=53, time=0),\n",
       "   Message('note_on', channel=0, note=72, velocity=0, time=44),\n",
       "   Message('note_on', channel=0, note=56, velocity=0, time=167),\n",
       "   Message('note_on', channel=0, note=73, velocity=0, time=13),\n",
       "   Message('note_on', channel=0, note=73, velocity=53, time=0),\n",
       "   Message('note_on', channel=0, note=70, velocity=0, time=13),\n",
       "   Message('note_on', channel=0, note=70, velocity=33, time=0),\n",
       "   Message('note_on', channel=0, note=72, velocity=53, time=172),\n",
       "   Message('note_on', channel=0, note=70, velocity=0, time=40),\n",
       "   Message('note_on', channel=0, note=73, velocity=0, time=0),\n",
       "   Message('note_on', channel=0, note=60, velocity=0, time=30),\n",
       "   Message('note_on', channel=0, note=70, velocity=53, time=128),\n",
       "   Message('note_on', channel=0, note=72, velocity=0, time=26),\n",
       "   Message('note_on', channel=0, note=55, velocity=0, time=14),\n",
       "   Message('note_on', channel=0, note=53, velocity=41, time=1650),\n",
       "   Message('note_on', channel=0, note=56, velocity=41, time=0),\n",
       "   Message('note_on', channel=0, note=60, velocity=41, time=0),\n",
       "   Message('note_on', channel=0, note=68, velocity=49, time=0),\n",
       "   Message('note_on', channel=0, note=70, velocity=0, time=70),\n",
       "   Message('note_on', channel=0, note=70, velocity=45, time=40),\n",
       "   Message('note_on', channel=0, note=68, velocity=0, time=83),\n",
       "   Message('note_on', channel=0, note=68, velocity=41, time=0),\n",
       "   Message('note_on', channel=0, note=70, velocity=0, time=88),\n",
       "   Message('note_on', channel=0, note=70, velocity=49, time=0),\n",
       "   Message('note_on', channel=0, note=68, velocity=0, time=97),\n",
       "   Message('note_on', channel=0, note=68, velocity=41, time=0),\n",
       "   Message('note_on', channel=0, note=70, velocity=0, time=84),\n",
       "   Message('note_on', channel=0, note=70, velocity=49, time=0),\n",
       "   Message('note_on', channel=0, note=56, velocity=0, time=101),\n",
       "   Message('note_on', channel=0, note=56, velocity=37, time=0),\n",
       "   Message('note_on', channel=0, note=60, velocity=0, time=0),\n",
       "   Message('note_on', channel=0, note=60, velocity=45, time=0),\n",
       "   Message('note_on', channel=0, note=68, velocity=0, time=0),\n",
       "   Message('note_on', channel=0, note=68, velocity=53, time=0),\n",
       "   Message('note_on', channel=0, note=72, velocity=53, time=97),\n",
       "   Message('note_on', channel=0, note=70, velocity=0, time=96),\n",
       "   Message('note_on', channel=0, note=70, velocity=37, time=0),\n",
       "   Message('note_on', channel=0, note=68, velocity=0, time=88),\n",
       "   Message('note_on', channel=0, note=68, velocity=45, time=0),\n",
       "   Message('note_on', channel=0, note=70, velocity=0, time=84),\n",
       "   Message('note_on', channel=0, note=70, velocity=53, time=0),\n",
       "   Message('note_on', channel=0, note=68, velocity=0, time=97),\n",
       "   Message('note_on', channel=0, note=68, velocity=45, time=0),\n",
       "   Message('note_on', channel=0, note=67, velocity=49, time=83),\n",
       "   Message('note_on', channel=0, note=51, velocity=33, time=18),\n",
       "   Message('note_on', channel=0, note=55, velocity=33, time=0),\n",
       "   Message('note_on', channel=0, note=60, velocity=0, time=0),\n",
       "   Message('note_on', channel=0, note=60, velocity=29, time=0),\n",
       "   Message('note_on', channel=0, note=70, velocity=0, time=0),\n",
       "   Message('note_on', channel=0, note=72, velocity=0, time=0),\n",
       "   Message('note_on', channel=0, note=53, velocity=0, time=13),\n",
       "   Message('note_on', channel=0, note=56, velocity=0, time=0),\n",
       "   Message('note_on', channel=0, note=68, velocity=0, time=0),\n",
       "   Message('note_on', channel=0, note=68, velocity=41, time=84),\n",
       "   Message('note_on', channel=0, note=67, velocity=0, time=83),\n",
       "   Message('note_on', channel=0, note=67, velocity=41, time=0),\n",
       "   Message('note_on', channel=0, note=68, velocity=0, time=102),\n",
       "   Message('note_on', channel=0, note=68, velocity=37, time=0),\n",
       "   Message('note_on', channel=0, note=67, velocity=0, time=83),\n",
       "   Message('note_on', channel=0, note=67, velocity=37, time=0),\n",
       "   Message('note_on', channel=0, note=68, velocity=0, time=97),\n",
       "   Message('note_on', channel=0, note=68, velocity=45, time=0),\n",
       "   Message('note_on', channel=0, note=67, velocity=0, time=84),\n",
       "   Message('note_on', channel=0, note=67, velocity=49, time=0),\n",
       "   Message('note_on', channel=0, note=60, velocity=0, time=17),\n",
       "   Message('note_on', channel=0, note=60, velocity=37, time=0),\n",
       "   Message('note_on', channel=0, note=70, velocity=49, time=84),\n",
       "   Message('note_on', channel=0, note=51, velocity=0, time=13),\n",
       "   Message('note_on', channel=0, note=68, velocity=0, time=84),\n",
       "   Message('note_on', channel=0, note=68, velocity=45, time=0),\n",
       "   Message('note_on', channel=0, note=67, velocity=0, time=83),\n",
       "   Message('note_on', channel=0, note=67, velocity=45, time=0),\n",
       "   Message('note_on', channel=0, note=68, velocity=0, time=101),\n",
       "   Message('note_on', channel=0, note=68, velocity=49, time=0),\n",
       "   Message('note_on', channel=0, note=70, velocity=0, time=14),\n",
       "   Message('note_on', channel=0, note=60, velocity=0, time=70),\n",
       "   Message('note_on', channel=0, note=67, velocity=0, time=0),\n",
       "   Message('note_on', channel=0, note=67, velocity=49, time=0),\n",
       "   Message('note_on', channel=0, note=68, velocity=0, time=13),\n",
       "   Message('note_on', channel=0, note=55, velocity=0, time=13),\n",
       "   Message('note_on', channel=0, note=49, velocity=41, time=71),\n",
       "   Message('note_on', channel=0, note=53, velocity=49, time=0),\n",
       "   Message('note_on', channel=0, note=56, velocity=45, time=0),\n",
       "   Message('note_on', channel=0, note=65, velocity=49, time=0),\n",
       "   Message('note_on', channel=0, note=67, velocity=0, time=88),\n",
       "   Message('note_on', channel=0, note=67, velocity=41, time=0),\n",
       "   Message('note_on', channel=0, note=65, velocity=0, time=83),\n",
       "   Message('note_on', channel=0, note=65, velocity=37, time=0),\n",
       "   Message('note_on', channel=0, note=67, velocity=0, time=97),\n",
       "   Message('note_on', channel=0, note=67, velocity=49, time=0),\n",
       "   Message('note_on', channel=0, note=65, velocity=0, time=84),\n",
       "   Message('note_on', channel=0, note=65, velocity=45, time=0),\n",
       "   Message('note_on', channel=0, note=67, velocity=0, time=101),\n",
       "   Message('note_on', channel=0, note=67, velocity=49, time=0),\n",
       "   Message('note_on', channel=0, note=65, velocity=0, time=84),\n",
       "   Message('note_on', channel=0, note=65, velocity=41, time=0),\n",
       "   Message('note_on', channel=0, note=49, velocity=0, time=13),\n",
       "   Message('note_on', channel=0, note=49, velocity=33, time=0),\n",
       "   Message('note_on', channel=0, note=53, velocity=0, time=0),\n",
       "   Message('note_on', channel=0, note=53, velocity=33, time=0),\n",
       "   Message('note_on', channel=0, note=56, velocity=0, time=0),\n",
       "   Message('note_on', channel=0, note=56, velocity=37, time=0),\n",
       "   Message('note_on', channel=0, note=68, velocity=45, time=83),\n",
       "   Message('note_on', channel=0, note=67, velocity=0, time=102),\n",
       "   Message('note_on', channel=0, note=67, velocity=45, time=0),\n",
       "   Message('note_on', channel=0, note=65, velocity=0, time=13),\n",
       "   Message('note_on', channel=0, note=65, velocity=37, time=70),\n",
       "   Message('note_on', channel=0, note=68, velocity=0, time=13),\n",
       "   Message('note_on', channel=0, note=67, velocity=0, time=71),\n",
       "   Message('note_on', channel=0, note=67, velocity=45, time=0),\n",
       "   Message('note_on', channel=0, note=65, velocity=0, time=114),\n",
       "   Message('note_on', channel=0, note=65, velocity=45, time=0),\n",
       "   Message('note_on', channel=0, note=58, velocity=41, time=84),\n",
       "   Message('note_on', channel=0, note=63, velocity=53, time=0),\n",
       "   Message('note_on', channel=0, note=51, velocity=33, time=13),\n",
       "   Message('note_on', channel=0, note=55, velocity=33, time=0),\n",
       "   Message('note_on', channel=0, note=67, velocity=0, time=0),\n",
       "   Message('note_on', channel=0, note=65, velocity=0, time=13),\n",
       "   Message('note_on', channel=0, note=56, velocity=0, time=18),\n",
       "   Message('note_on', channel=0, note=53, velocity=0, time=13),\n",
       "   Message('note_on', channel=0, note=63, velocity=0, time=13),\n",
       "   Message('note_on', channel=0, note=65, velocity=37, time=27),\n",
       "   Message('note_on', channel=0, note=63, velocity=37, time=101),\n",
       "   Message('note_on', channel=0, note=65, velocity=0, time=83),\n",
       "   Message('note_on', channel=0, note=65, velocity=49, time=0),\n",
       "   Message('note_on', channel=0, note=63, velocity=0, time=27),\n",
       "   Message('note_on', channel=0, note=63, velocity=45, time=70),\n",
       "   Message('note_on', channel=0, note=65, velocity=0, time=31),\n",
       "   Message('note_on', channel=0, note=65, velocity=41, time=57),\n",
       "   Message('note_on', channel=0, note=63, velocity=0, time=53),\n",
       "   Message('note_on', channel=0, note=63, velocity=41, time=44),\n",
       "   Message('note_on', channel=0, note=55, velocity=0, time=13),\n",
       "   Message('note_on', channel=0, note=55, velocity=33, time=0),\n",
       "   Message('note_on', channel=0, note=58, velocity=0, time=0),\n",
       "   Message('note_on', channel=0, note=58, velocity=25, time=0),\n",
       "   Message('note_on', channel=0, note=49, velocity=0, time=13),\n",
       "   Message('note_on', channel=0, note=49, velocity=25, time=0),\n",
       "   Message('note_on', channel=0, note=63, velocity=0, time=383),\n",
       "   Message('note_on', channel=0, note=63, velocity=49, time=0),\n",
       "   Message('note_on', channel=0, note=44, velocity=41, time=225),\n",
       "   Message('note_on', channel=0, note=48, velocity=41, time=0),\n",
       "   Message('note_on', channel=0, note=68, velocity=57, time=0),\n",
       "   Message('note_on', channel=0, note=51, velocity=0, time=26),\n",
       "   Message('note_on', channel=0, note=55, velocity=0, time=0),\n",
       "   Message('note_on', channel=0, note=58, velocity=0, time=0),\n",
       "   Message('note_on', channel=0, note=65, velocity=0, time=0),\n",
       "   Message('note_on', channel=0, note=49, velocity=0, time=18),\n",
       "   Message('note_on', channel=0, note=51, velocity=49, time=140),\n",
       "   Message('note_on', channel=0, note=56, velocity=45, time=168),\n",
       "   Message('note_on', channel=0, note=70, velocity=53, time=0),\n",
       "   Message('note_on', channel=0, note=51, velocity=0, time=184),\n",
       "   Message('note_on', channel=0, note=51, velocity=41, time=0),\n",
       "   Message('note_on', channel=0, note=68, velocity=0, time=0),\n",
       "   Message('note_on', channel=0, note=68, velocity=57, time=0),\n",
       "   Message('note_on', channel=0, note=56, velocity=0, time=168),\n",
       "   Message('note_on', channel=0, note=56, velocity=49, time=0),\n",
       "   Message('note_on', channel=0, note=51, velocity=0, time=184),\n",
       "   Message('note_on', channel=0, note=51, velocity=49, time=0),\n",
       "   Message('note_on', channel=0, note=48, velocity=0, time=168),\n",
       "   Message('note_on', channel=0, note=48, velocity=53, time=0),\n",
       "   Message('note_on', channel=0, note=44, velocity=0, time=26),\n",
       "   Message('note_on', channel=0, note=56, velocity=0, time=0),\n",
       "   Message('note_on', channel=0, note=68, velocity=0, time=0),\n",
       "   Message('note_on', channel=0, note=70, velocity=0, time=0),\n",
       "   Message('note_on', channel=0, note=51, velocity=0, time=18),\n",
       "   Message('note_on', channel=0, note=63, velocity=0, time=0),\n",
       "   Message('note_on', channel=0, note=51, velocity=53, time=154),\n",
       "   Message('note_on', channel=0, note=56, velocity=49, time=167),\n",
       "   Message('note_on', channel=0, note=51, velocity=0, time=185),\n",
       "   Message('note_on', channel=0, note=51, velocity=49, time=0),\n",
       "   Message('note_on', channel=0, note=56, velocity=0, time=154),\n",
       "   Message('note_on', channel=0, note=56, velocity=49, time=0),\n",
       "   Message('note_on', channel=0, note=51, velocity=0, time=184),\n",
       "   Message('note_on', channel=0, note=51, velocity=49, time=0),\n",
       "   Message('note_on', channel=0, note=73, velocity=53, time=0),\n",
       "   Message('note_on', channel=0, note=48, velocity=0, time=168),\n",
       "   Message('note_on', channel=0, note=48, velocity=45, time=0),\n",
       "   Message('note_on', channel=0, note=70, velocity=49, time=13),\n",
       "   Message('note_on', channel=0, note=48, velocity=0, time=31),\n",
       "   Message('note_on', channel=0, note=51, velocity=0, time=0),\n",
       "   Message('note_on', channel=0, note=73, velocity=0, time=0),\n",
       "   Message('note_on', channel=0, note=56, velocity=0, time=13),\n",
       "   Message('note_on', channel=0, note=73, velocity=49, time=141),\n",
       "   Message('note_on', channel=0, note=56, velocity=49, time=39),\n",
       "   Message('note_on', channel=0, note=72, velocity=49, time=128),\n",
       "   Message('note_on', channel=0, note=51, velocity=41, time=13),\n",
       "   Message('note_on', channel=0, note=70, velocity=0, time=172),\n",
       "   Message('note_on', channel=0, note=70, velocity=53, time=0),\n",
       "   Message('note_on', channel=0, note=41, velocity=37, time=13),\n",
       "   Message('note_on', channel=0, note=51, velocity=0, time=0),\n",
       "   Message('note_on', channel=0, note=56, velocity=0, time=0),\n",
       "   Message('note_on', channel=0, note=72, velocity=0, time=0),\n",
       "   Message('note_on', channel=0, note=73, velocity=0, time=0),\n",
       "   Message('note_on', channel=0, note=48, velocity=45, time=167),\n",
       "   Message('note_on', channel=0, note=53, velocity=53, time=185),\n",
       "   Message('note_on', channel=0, note=48, velocity=0, time=167),\n",
       "   Message('note_on', channel=0, note=48, velocity=45, time=0),\n",
       "   Message('note_on', channel=0, note=53, velocity=0, time=172),\n",
       "   Message('note_on', channel=0, note=53, velocity=45, time=0),\n",
       "   Message('note_on', channel=0, note=48, velocity=0, time=180),\n",
       "   Message('note_on', channel=0, note=48, velocity=41, time=0),\n",
       "   Message('note_on', channel=0, note=68, velocity=57, time=0),\n",
       "   Message('note_on', channel=0, note=67, velocity=49, time=185),\n",
       "   Message('note_on', channel=0, note=41, velocity=0, time=13),\n",
       "   Message('note_on', channel=0, note=46, velocity=29, time=0),\n",
       "   Message('note_on', channel=0, note=48, velocity=0, time=0),\n",
       "   Message('note_on', channel=0, note=53, velocity=0, time=0),\n",
       "   Message('note_on', channel=0, note=70, velocity=0, time=0),\n",
       "   Message('note_on', channel=0, note=68, velocity=0, time=13),\n",
       "   Message('note_on', channel=0, note=53, velocity=37, time=159),\n",
       "   Message('note_on', channel=0, note=58, velocity=45, time=180),\n",
       "   Message('note_on', channel=0, note=53, velocity=0, time=172),\n",
       "   Message('note_on', channel=0, note=53, velocity=49, time=0),\n",
       "   Message('note_on', channel=0, note=65, velocity=57, time=0),\n",
       "   Message('note_on', channel=0, note=58, velocity=0, time=167),\n",
       "   Message('note_on', channel=0, note=58, velocity=45, time=0),\n",
       "   Message('note_on', channel=0, note=53, velocity=0, time=167),\n",
       "   Message('note_on', channel=0, note=53, velocity=49, time=0),\n",
       "   Message('note_on', channel=0, note=44, velocity=45, time=185),\n",
       "   Message('note_on', channel=0, note=46, velocity=0, time=26),\n",
       "   Message('note_on', channel=0, note=53, velocity=0, time=0),\n",
       "   Message('note_on', channel=0, note=58, velocity=0, time=0),\n",
       "   Message('note_on', channel=0, note=67, velocity=0, time=0),\n",
       "   Message('note_on', channel=0, note=65, velocity=0, time=18),\n",
       "   Message('note_on', channel=0, note=48, velocity=45, time=154),\n",
       "   Message('note_on', channel=0, note=53, velocity=53, time=167),\n",
       "   Message('note_on', channel=0, note=65, velocity=57, time=0),\n",
       "   Message('note_on', channel=0, note=68, velocity=57, time=154),\n",
       "   Message('note_on', channel=0, note=48, velocity=0, time=18),\n",
       "   Message('note_on', channel=0, note=48, velocity=41, time=0),\n",
       "   Message('note_on', channel=0, note=53, velocity=0, time=167),\n",
       "   Message('note_on', channel=0, note=53, velocity=49, time=0),\n",
       "   Message('note_on', channel=0, note=70, velocity=57, time=0),\n",
       "   Message('note_on', channel=0, note=65, velocity=0, time=83),\n",
       "   Message('note_on', channel=0, note=68, velocity=0, time=58),\n",
       "   Message('note_on', channel=0, note=48, velocity=0, time=26),\n",
       "   Message('note_on', channel=0, note=48, velocity=45, time=0),\n",
       "   Message('note_on', channel=0, note=68, velocity=57, time=0),\n",
       "   Message('note_on', channel=0, note=67, velocity=53, time=172),\n",
       "   Message('note_on', channel=0, note=46, velocity=41, time=13),\n",
       "   Message('note_on', channel=0, note=44, velocity=0, time=13),\n",
       "   Message('note_on', channel=0, note=48, velocity=0, time=0),\n",
       "   Message('note_on', channel=0, note=53, velocity=0, time=0),\n",
       "   Message('note_on', channel=0, note=68, velocity=0, time=0),\n",
       "   Message('note_on', channel=0, note=70, velocity=0, time=44),\n",
       "   Message('note_on', channel=0, note=53, velocity=45, time=110),\n",
       "   Message('note_on', channel=0, note=58, velocity=45, time=172),\n",
       "   Message('note_on', channel=0, note=65, velocity=49, time=154),\n",
       "   Message('note_on', channel=0, note=53, velocity=0, time=13),\n",
       "   Message('note_on', channel=0, note=53, velocity=41, time=0),\n",
       "   Message('note_on', channel=0, note=58, velocity=0, time=154),\n",
       "   Message('note_on', channel=0, note=58, velocity=41, time=0),\n",
       "   Message('note_on', channel=0, note=53, velocity=0, time=185),\n",
       "   Message('note_on', channel=0, note=53, velocity=45, time=0),\n",
       "   Message('note_on', channel=0, note=44, velocity=41, time=167),\n",
       "   Message('note_on', channel=0, note=67, velocity=0, time=44),\n",
       "   Message('note_on', channel=0, note=46, velocity=0, time=13),\n",
       "   Message('note_on', channel=0, note=53, velocity=0, time=0),\n",
       "   Message('note_on', channel=0, note=58, velocity=0, time=0),\n",
       "   Message('note_on', channel=0, note=65, velocity=0, time=13),\n",
       "   Message('note_on', channel=0, note=48, velocity=41, time=115),\n",
       "   Message('note_on', channel=0, note=65, velocity=57, time=167),\n",
       "   Message('note_on', channel=0, note=53, velocity=49, time=17),\n",
       "   Message('note_on', channel=0, note=48, velocity=0, time=154),\n",
       "   Message('note_on', channel=0, note=48, velocity=37, time=0),\n",
       "   Message('note_on', channel=0, note=68, velocity=53, time=0),\n",
       "   Message('note_on', channel=0, note=53, velocity=0, time=168),\n",
       "   Message('note_on', channel=0, note=53, velocity=49, time=0),\n",
       "   Message('note_on', channel=0, note=70, velocity=53, time=0),\n",
       "   Message('note_on', channel=0, note=48, velocity=0, time=171),\n",
       "   Message('note_on', channel=0, note=48, velocity=45, time=0),\n",
       "   Message('note_on', channel=0, note=68, velocity=0, time=0),\n",
       "   Message('note_on', channel=0, note=68, velocity=53, time=0),\n",
       "   Message('note_on', channel=0, note=46, velocity=41, time=167),\n",
       "   Message('note_on', channel=0, note=67, velocity=53, time=0),\n",
       "   Message('note_on', channel=0, note=44, velocity=0, time=27),\n",
       "   Message('note_on', channel=0, note=48, velocity=0, time=0),\n",
       "   Message('note_on', channel=0, note=53, velocity=0, time=0),\n",
       "   Message('note_on', channel=0, note=65, velocity=0, time=0),\n",
       "   Message('note_on', channel=0, note=68, velocity=0, time=0),\n",
       "   Message('note_on', channel=0, note=70, velocity=0, time=44),\n",
       "   Message('note_on', channel=0, note=53, velocity=41, time=114),\n",
       "   Message('note_on', channel=0, note=58, velocity=33, time=181),\n",
       "   Message('note_on', channel=0, note=65, velocity=49, time=154),\n",
       "   Message('note_on', channel=0, note=53, velocity=0, time=17),\n",
       "   Message('note_on', channel=0, note=53, velocity=41, time=0),\n",
       "   Message('note_on', channel=0, note=58, velocity=0, time=154),\n",
       "   Message('note_on', channel=0, note=58, velocity=41, time=0),\n",
       "   Message('note_on', channel=0, note=53, velocity=0, time=167),\n",
       "   Message('note_on', channel=0, note=53, velocity=45, time=0),\n",
       "   Message('note_on', channel=0, note=49, velocity=49, time=185),\n",
       "   Message('note_on', channel=0, note=46, velocity=0, time=13),\n",
       "   Message('note_on', channel=0, note=53, velocity=0, time=14),\n",
       "   Message('note_on', channel=0, note=58, velocity=0, time=0),\n",
       "   Message('note_on', channel=0, note=65, velocity=0, time=0),\n",
       "   Message('note_on', channel=0, note=67, velocity=0, time=0),\n",
       "   Message('note_on', channel=0, note=53, velocity=53, time=140),\n",
       "   Message('note_on', channel=0, note=65, velocity=57, time=0),\n",
       "   Message('note_on', channel=0, note=56, velocity=45, time=172),\n",
       "   Message('note_on', channel=0, note=67, velocity=53, time=0),\n",
       "   Message('note_on', channel=0, note=53, velocity=0, time=167),\n",
       "   Message('note_on', channel=0, note=53, velocity=45, time=0),\n",
       "   Message('note_on', channel=0, note=68, velocity=53, time=0),\n",
       "   Message('note_on', channel=0, note=49, velocity=0, time=27),\n",
       "   Message('note_on', channel=0, note=56, velocity=0, time=0),\n",
       "   Message('note_on', channel=0, note=65, velocity=0, time=0),\n",
       "   Message('note_on', channel=0, note=67, velocity=0, time=0),\n",
       "   Message('note_on', channel=0, note=68, velocity=0, time=114),\n",
       "   Message('note_on', channel=0, note=56, velocity=45, time=26),\n",
       "   Message('note_on', channel=0, note=53, velocity=0, time=172),\n",
       "   Message('note_on', channel=0, note=53, velocity=41, time=0),\n",
       "   Message('note_on', channel=0, note=70, velocity=53, time=0),\n",
       "   Message('note_on', channel=0, note=51, velocity=45, time=167),\n",
       "   Message('note_on', channel=0, note=68, velocity=53, time=0),\n",
       "   Message('note_on', channel=0, note=53, velocity=0, time=44),\n",
       "   Message('note_on', channel=0, note=56, velocity=0, time=0),\n",
       "   Message('note_on', channel=0, note=70, velocity=0, time=0),\n",
       "   Message('note_on', channel=0, note=55, velocity=49, time=110),\n",
       "   Message('note_on', channel=0, note=58, velocity=49, time=185),\n",
       "   Message('note_on', channel=0, note=68, velocity=0, time=0),\n",
       "   Message('note_on', channel=0, note=68, velocity=53, time=0),\n",
       "   Message('note_on', channel=0, note=55, velocity=0, time=167),\n",
       "   Message('note_on', channel=0, note=55, velocity=49, time=0),\n",
       "   Message('note_on', channel=0, note=67, velocity=53, time=0),\n",
       "   Message('note_on', channel=0, note=58, velocity=0, time=172),\n",
       "   Message('note_on', channel=0, note=58, velocity=41, time=0),\n",
       "   Message('note_on', channel=0, note=65, velocity=53, time=0),\n",
       "   Message('note_on', channel=0, note=68, velocity=0, time=26),\n",
       "   Message('note_on', channel=0, note=63, velocity=53, time=115),\n",
       "   Message('note_on', channel=0, note=55, velocity=0, time=13),\n",
       "   Message('note_on', channel=0, note=55, velocity=49, time=0),\n",
       "   Message('note_on', channel=0, note=58, velocity=0, time=167),\n",
       "   Message('note_on', channel=0, note=63, velocity=0, time=0),\n",
       "   Message('note_on', channel=0, note=65, velocity=0, time=0),\n",
       "   Message('note_on', channel=0, note=51, velocity=0, time=18),\n",
       "   Message('note_on', channel=0, note=54, velocity=41, time=0),\n",
       "   Message('note_on', channel=0, note=55, velocity=0, time=0),\n",
       "   Message('note_on', channel=0, note=61, velocity=41, time=0),\n",
       "   Message('note_on', channel=0, note=67, velocity=0, time=0),\n",
       "   Message('note_on', channel=0, note=58, velocity=37, time=13),\n",
       "   Message('note_on', channel=0, note=54, velocity=0, time=352),\n",
       "   Message('note_on', channel=0, note=54, velocity=53, time=0),\n",
       "   Message('note_on', channel=0, note=58, velocity=0, time=0),\n",
       "   Message('note_on', channel=0, note=58, velocity=49, time=0),\n",
       "   Message('note_on', channel=0, note=61, velocity=0, time=0),\n",
       "   Message('note_on', channel=0, note=61, velocity=53, time=0),\n",
       "   Message('note_on', channel=0, note=65, velocity=57, time=0),\n",
       "   Message('note_on', channel=0, note=61, velocity=0, time=378),\n",
       "   Message('note_on', channel=0, note=61, velocity=45, time=0),\n",
       "   Message('note_on', channel=0, note=66, velocity=57, time=0),\n",
       "   Message('note_on', channel=0, note=54, velocity=0, time=13),\n",
       "   Message('note_on', channel=0, note=54, velocity=49, time=0),\n",
       "   Message('note_on', channel=0, note=58, velocity=0, time=0),\n",
       "   Message('note_on', channel=0, note=58, velocity=49, time=0),\n",
       "   Message('note_on', channel=0, note=65, velocity=0, time=31),\n",
       "   Message('note_on', channel=0, note=54, velocity=0, time=321),\n",
       "   Message('note_on', channel=0, note=54, velocity=45, time=0),\n",
       "   Message('note_on', channel=0, note=58, velocity=0, time=0),\n",
       "   Message('note_on', channel=0, note=58, velocity=49, time=0),\n",
       "   Message('note_on', channel=0, note=61, velocity=0, time=18),\n",
       "   Message('note_on', channel=0, note=61, velocity=49, time=0),\n",
       "   Message('note_on', channel=0, note=54, velocity=0, time=378),\n",
       "   Message('note_on', channel=0, note=58, velocity=0, time=0),\n",
       "   Message('note_on', channel=0, note=58, velocity=53, time=0),\n",
       "   Message('note_on', channel=0, note=61, velocity=0, time=0),\n",
       "   Message('note_on', channel=0, note=61, velocity=49, time=0),\n",
       "   Message('note_on', channel=0, note=65, velocity=57, time=0),\n",
       "   Message('note_on', channel=0, note=66, velocity=0, time=0),\n",
       "   Message('note_on', channel=0, note=51, velocity=49, time=14),\n",
       "   Message('note_on', channel=0, note=58, velocity=0, time=396),\n",
       "   Message('note_on', channel=0, note=58, velocity=53, time=0),\n",
       "   Message('note_on', channel=0, note=61, velocity=0, time=0),\n",
       "   Message('note_on', channel=0, note=61, velocity=57, time=0),\n",
       "   Message('note_on', channel=0, note=68, velocity=57, time=0),\n",
       "   Message('note_on', channel=0, note=51, velocity=0, time=13),\n",
       "   Message('note_on', channel=0, note=51, velocity=53, time=0),\n",
       "   Message('note_on', channel=0, note=65, velocity=0, time=0),\n",
       "   Message('note_on', channel=0, note=65, velocity=53, time=0),\n",
       "   Message('note_on', channel=0, note=58, velocity=0, time=396),\n",
       "   Message('note_on', channel=0, note=58, velocity=45, time=0),\n",
       "   Message('note_on', channel=0, note=61, velocity=0, time=0),\n",
       "   Message('note_on', channel=0, note=61, velocity=45, time=0),\n",
       "   Message('note_on', channel=0, note=66, velocity=57, time=0),\n",
       "   Message('note_on', channel=0, note=70, velocity=53, time=0),\n",
       "   Message('note_on', channel=0, note=51, velocity=0, time=26),\n",
       "   Message('note_on', channel=0, note=51, velocity=49, time=0),\n",
       "   Message('note_on', channel=0, note=65, velocity=0, time=0),\n",
       "   Message('note_on', channel=0, note=70, velocity=0, time=0),\n",
       "   Message('note_on', channel=0, note=68, velocity=0, time=13),\n",
       "   Message('note_on', channel=0, note=63, velocity=57, time=423),\n",
       "   Message('note_on', channel=0, note=58, velocity=0, time=83),\n",
       "   Message('note_on', channel=0, note=61, velocity=0, time=18),\n",
       "   Message('note_on', channel=0, note=66, velocity=0, time=0),\n",
       "   Message('note_on', channel=0, note=51, velocity=0, time=84),\n",
       "   Message('note_on', channel=0, note=63, velocity=0, time=96),\n",
       "   Message('note_on', channel=0, note=49, velocity=49, time=282),\n",
       "   Message('note_on', channel=0, note=68, velocity=57, time=0),\n",
       "   Message('note_on', channel=0, note=53, velocity=49, time=172),\n",
       "   Message('note_on', channel=0, note=56, velocity=41, time=154),\n",
       "   Message('note_on', channel=0, note=53, velocity=0, time=180),\n",
       "   Message('note_on', channel=0, note=53, velocity=49, time=0),\n",
       "   Message('note_on', channel=0, note=61, velocity=49, time=185),\n",
       "   Message('note_on', channel=0, note=56, velocity=0, time=167),\n",
       "   Message('note_on', channel=0, note=56, velocity=41, time=0),\n",
       "   Message('note_on', channel=0, note=53, velocity=0, time=154),\n",
       "   Message('note_on', channel=0, note=53, velocity=49, time=0),\n",
       "   Message('note_on', channel=0, note=49, velocity=0, time=172),\n",
       "   Message('note_on', channel=0, note=49, velocity=53, time=0),\n",
       "   Message('note_on', channel=0, note=53, velocity=0, time=26),\n",
       "   Message('note_on', channel=0, note=56, velocity=0, time=0),\n",
       "   Message('note_on', channel=0, note=68, velocity=0, time=0),\n",
       "   Message('note_on', channel=0, note=53, velocity=45, time=141),\n",
       "   Message('note_on', channel=0, note=56, velocity=45, time=154),\n",
       "   Message('note_on', channel=0, note=53, velocity=0, time=171),\n",
       "   Message('note_on', channel=0, note=53, velocity=45, time=0),\n",
       "   Message('note_on', channel=0, note=61, velocity=0, time=154),\n",
       "   Message('note_on', channel=0, note=61, velocity=49, time=0),\n",
       "   Message('note_on', channel=0, note=56, velocity=0, time=168),\n",
       "   Message('note_on', channel=0, note=56, velocity=41, time=0),\n",
       "   Message('note_on', channel=0, note=73, velocity=53, time=0),\n",
       "   Message('note_on', channel=0, note=53, velocity=0, time=171),\n",
       "   Message('note_on', channel=0, note=53, velocity=45, time=0),\n",
       "   Message('note_on', channel=0, note=69, velocity=45, time=13),\n",
       "   Message('note_on', channel=0, note=70, velocity=53, time=141),\n",
       "   Message('note_on', channel=0, note=48, velocity=37, time=13),\n",
       "   Message('note_on', channel=0, note=49, velocity=0, time=14),\n",
       "   Message('note_on', channel=0, note=56, velocity=0, time=0),\n",
       "   Message('note_on', channel=0, note=61, velocity=0, time=0),\n",
       "   Message('note_on', channel=0, note=53, velocity=0, time=17),\n",
       "   Message('note_on', channel=0, note=69, velocity=0, time=0),\n",
       "   Message('note_on', channel=0, note=73, velocity=0, time=0),\n",
       "   Message('note_on', channel=0, note=51, velocity=41, time=123),\n",
       "   Message('note_on', channel=0, note=56, velocity=45, time=172),\n",
       "   Message('note_on', channel=0, note=51, velocity=0, time=167),\n",
       "   Message('note_on', channel=0, note=51, velocity=49, time=0),\n",
       "   Message('note_on', channel=0, note=63, velocity=49, time=154),\n",
       "   Message('note_on', channel=0, note=70, velocity=0, time=0),\n",
       "   Message('note_on', channel=0, note=48, velocity=0, time=18),\n",
       "   Message('note_on', channel=0, note=51, velocity=0, time=0),\n",
       "   Message('note_on', channel=0, note=56, velocity=0, time=0),\n",
       "   Message('note_on', channel=0, note=56, velocity=37, time=154),\n",
       "   Message('note_on', channel=0, note=51, velocity=45, time=154),\n",
       "   Message('note_on', channel=0, note=48, velocity=41, time=167),\n",
       "   Message('note_on', channel=0, note=51, velocity=0, time=18),\n",
       "   Message('note_on', channel=0, note=56, velocity=0, time=13),\n",
       "   Message('note_on', channel=0, note=51, velocity=45, time=141),\n",
       "   Message('note_on', channel=0, note=56, velocity=41, time=167),\n",
       "   Message('note_on', channel=0, note=68, velocity=57, time=154),\n",
       "   Message('note_on', channel=0, note=51, velocity=0, time=17),\n",
       "   Message('note_on', channel=0, note=51, velocity=41, time=0),\n",
       "   Message('note_on', channel=0, note=63, velocity=0, time=154),\n",
       "   Message('note_on', channel=0, note=63, velocity=57, time=0),\n",
       "   Message('note_on', channel=0, note=48, velocity=0, time=14),\n",
       "   Message('note_on', channel=0, note=51, velocity=0, time=154),\n",
       "   Message('note_on', channel=0, note=56, velocity=0, time=0),\n",
       "   Message('note_on', channel=0, note=56, velocity=37, time=0),\n",
       "   Message('note_on', channel=0, note=51, velocity=49, time=154),\n",
       "   Message('note_on', channel=0, note=61, velocity=49, time=184),\n",
       "   Message('note_on', channel=0, note=49, velocity=37, time=14),\n",
       "   Message('note_on', channel=0, note=51, velocity=0, time=13),\n",
       "   Message('note_on', channel=0, note=56, velocity=0, time=0),\n",
       "   Message('note_on', channel=0, note=63, velocity=0, time=0),\n",
       "   Message('note_on', channel=0, note=68, velocity=0, time=0),\n",
       "   Message('note_on', channel=0, note=53, velocity=41, time=141),\n",
       "   Message('note_on', channel=0, note=56, velocity=37, time=158),\n",
       "   Message('note_on', channel=0, note=53, velocity=0, time=167),\n",
       "   Message('note_on', channel=0, note=53, velocity=49, time=0),\n",
       "   Message('note_on', channel=0, note=49, velocity=0, time=13),\n",
       "   Message('note_on', channel=0, note=61, velocity=0, time=141),\n",
       "   Message('note_on', channel=0, note=61, velocity=41, time=0),\n",
       "   Message('note_on', channel=0, note=65, velocity=45, time=0),\n",
       "   Message('note_on', channel=0, note=56, velocity=0, time=185),\n",
       "   Message('note_on', channel=0, note=56, velocity=37, time=0),\n",
       "   Message('note_on', channel=0, note=53, velocity=0, time=154),\n",
       "   Message('note_on', channel=0, note=53, velocity=45, time=0),\n",
       "   Message('note_on', channel=0, note=49, velocity=49, time=167),\n",
       "   Message('note_on', channel=0, note=53, velocity=0, time=31),\n",
       "   Message('note_on', channel=0, note=56, velocity=0, time=0),\n",
       "   Message('note_on', channel=0, note=65, velocity=0, time=13),\n",
       "   Message('note_on', channel=0, note=53, velocity=45, time=128),\n",
       "   Message('note_on', channel=0, note=56, velocity=41, time=167),\n",
       "   Message('note_on', channel=0, note=53, velocity=0, time=172),\n",
       "   Message('note_on', channel=0, note=53, velocity=45, time=0),\n",
       "   Message('note_on', channel=0, note=61, velocity=0, time=167),\n",
       "   Message('note_on', channel=0, note=61, velocity=53, time=0),\n",
       "   Message('note_on', channel=0, note=73, velocity=49, time=141),\n",
       "   Message('note_on', channel=0, note=56, velocity=0, time=13),\n",
       "   Message('note_on', channel=0, note=56, velocity=41, time=0),\n",
       "   Message('note_on', channel=0, note=69, velocity=45, time=154),\n",
       "   Message('note_on', channel=0, note=53, velocity=0, time=17),\n",
       "   Message('note_on', channel=0, note=53, velocity=41, time=0),\n",
       "   Message('note_on', channel=0, note=70, velocity=53, time=154),\n",
       "   Message('note_on', channel=0, note=48, velocity=29, time=14),\n",
       "   Message('note_on', channel=0, note=49, velocity=0, time=0),\n",
       "   Message('note_on', channel=0, note=56, velocity=0, time=0),\n",
       "   Message('note_on', channel=0, note=69, velocity=0, time=0),\n",
       "   Message('note_on', channel=0, note=53, velocity=0, time=13),\n",
       "   Message('note_on', channel=0, note=61, velocity=0, time=0),\n",
       "   Message('note_on', channel=0, note=73, velocity=0, time=0),\n",
       "   Message('note_on', channel=0, note=51, velocity=41, time=141),\n",
       "   Message('note_on', channel=0, note=56, velocity=49, time=184),\n",
       "   Message('note_on', channel=0, note=51, velocity=0, time=154),\n",
       "   Message('note_on', channel=0, note=51, velocity=45, time=0),\n",
       "   Message('note_on', channel=0, note=75, velocity=53, time=154),\n",
       "   Message('note_on', channel=0, note=48, velocity=0, time=14),\n",
       "   Message('note_on', channel=0, note=70, velocity=0, time=0),\n",
       "   Message('note_on', channel=0, note=51, velocity=0, time=13),\n",
       "   Message('note_on', channel=0, note=56, velocity=0, time=0),\n",
       "   Message('note_on', channel=0, note=56, velocity=29, time=141),\n",
       "   Message('note_on', channel=0, note=51, velocity=41, time=158),\n",
       "   Message('note_on', channel=0, note=48, velocity=41, time=167),\n",
       "   Message('note_on', channel=0, note=51, velocity=0, time=27),\n",
       "   Message('note_on', channel=0, note=56, velocity=0, time=0),\n",
       "   Message('note_on', channel=0, note=48, velocity=0, time=140),\n",
       "   Message('note_on', channel=0, note=51, velocity=45, time=0),\n",
       "   Message('note_on', channel=0, note=56, velocity=37, time=159),\n",
       "   Message('note_on', channel=0, note=51, velocity=0, time=154),\n",
       "   Message('note_on', channel=0, note=51, velocity=37, time=0),\n",
       "   Message('note_on', channel=0, note=68, velocity=53, time=0),\n",
       "   Message('note_on', channel=0, note=63, velocity=49, time=154),\n",
       "   Message('note_on', channel=0, note=56, velocity=0, time=13),\n",
       "   Message('note_on', channel=0, note=56, velocity=33, time=0),\n",
       "   Message('note_on', channel=0, note=75, velocity=0, time=13),\n",
       "   Message('note_on', channel=0, note=51, velocity=0, time=141),\n",
       "   Message('note_on', channel=0, note=51, velocity=53, time=0),\n",
       "   Message('note_on', channel=0, note=49, velocity=53, time=172),\n",
       "   Message('note_on', channel=0, note=63, velocity=0, time=13),\n",
       "   Message('note_on', channel=0, note=51, velocity=0, time=13),\n",
       "   Message('note_on', channel=0, note=56, velocity=0, time=0),\n",
       "   Message('note_on', channel=0, note=68, velocity=0, time=44),\n",
       "   Message('note_on', channel=0, note=53, velocity=37, time=110),\n",
       "   Message('note_on', channel=0, note=56, velocity=37, time=158),\n",
       "   Message('note_on', channel=0, note=53, velocity=0, time=181),\n",
       "   Message('note_on', channel=0, note=53, velocity=45, time=0),\n",
       "   Message('note_on', channel=0, note=61, velocity=53, time=171),\n",
       "   Message('note_on', channel=0, note=65, velocity=61, time=0),\n",
       "   Message('note_on', channel=0, note=56, velocity=0, time=154),\n",
       "   Message('note_on', channel=0, note=56, velocity=37, time=0),\n",
       "   Message('note_on', channel=0, note=53, velocity=0, time=168),\n",
       "   Message('note_on', channel=0, note=53, velocity=49, time=0),\n",
       "   Message('note_on', channel=0, note=49, velocity=0, time=171),\n",
       "   Message('note_on', channel=0, note=49, velocity=49, time=0),\n",
       "   Message('note_on', channel=0, note=53, velocity=0, time=27),\n",
       "   Message('note_on', channel=0, note=56, velocity=0, time=0),\n",
       "   Message('note_on', channel=0, note=61, velocity=0, time=13),\n",
       "   Message('note_on', channel=0, note=65, velocity=0, time=0),\n",
       "   Message('note_on', channel=0, note=53, velocity=41, time=127),\n",
       "   Message('note_on', channel=0, note=56, velocity=41, time=141),\n",
       "   Message('note_on', channel=0, note=53, velocity=0, time=185),\n",
       "   Message('note_on', channel=0, note=53, velocity=49, time=0),\n",
       "   Message('note_on', channel=0, note=61, velocity=57, time=154),\n",
       "   Message('note_on', channel=0, note=65, velocity=53, time=0),\n",
       "   Message('note_on', channel=0, note=73, velocity=49, time=167),\n",
       "   Message('note_on', channel=0, note=56, velocity=0, time=13),\n",
       "   Message('note_on', channel=0, note=56, velocity=37, time=0),\n",
       "   Message('note_on', channel=0, note=69, velocity=49, time=159),\n",
       "   Message('note_on', channel=0, note=53, velocity=0, time=13),\n",
       "   Message('note_on', channel=0, note=53, velocity=41, time=0),\n",
       "   Message('note_on', channel=0, note=48, velocity=45, time=154),\n",
       "   Message('note_on', channel=0, note=70, velocity=49, time=0),\n",
       "   Message('note_on', channel=0, note=49, velocity=0, time=44),\n",
       "   Message('note_on', channel=0, note=53, velocity=0, time=0),\n",
       "   Message('note_on', channel=0, note=56, velocity=0, time=0),\n",
       "   Message('note_on', channel=0, note=61, velocity=0, time=0),\n",
       "   Message('note_on', channel=0, note=65, velocity=0, time=0),\n",
       "   Message('note_on', channel=0, note=69, velocity=0, time=0),\n",
       "   Message('note_on', channel=0, note=73, velocity=0, time=0),\n",
       "   Message('note_on', channel=0, note=51, velocity=45, time=123),\n",
       "   Message('note_on', channel=0, note=56, velocity=45, time=159),\n",
       "   Message('note_on', channel=0, note=51, velocity=0, time=167),\n",
       "   Message('note_on', channel=0, note=51, velocity=49, time=0),\n",
       "   Message('note_on', channel=0, note=63, velocity=53, time=154),\n",
       "   Message('note_on', channel=0, note=70, velocity=0, time=13),\n",
       "   Message('note_on', channel=0, note=48, velocity=0, time=18),\n",
       "   Message('note_on', channel=0, note=51, velocity=0, time=0),\n",
       "   Message('note_on', channel=0, note=56, velocity=0, time=0),\n",
       "   Message('note_on', channel=0, note=56, velocity=33, time=136),\n",
       "   Message('note_on', channel=0, note=51, velocity=37, time=158),\n",
       "   Message('note_on', channel=0, note=48, velocity=45, time=168),\n",
       "   Message('note_on', channel=0, note=51, velocity=0, time=26),\n",
       "   Message('note_on', channel=0, note=56, velocity=0, time=0),\n",
       "   Message('note_on', channel=0, note=63, velocity=0, time=18),\n",
       "   Message('note_on', channel=0, note=51, velocity=41, time=110),\n",
       "   Message('note_on', channel=0, note=56, velocity=37, time=171),\n",
       "   Message('note_on', channel=0, note=68, velocity=49, time=154),\n",
       "   Message('note_on', channel=0, note=51, velocity=0, time=13),\n",
       "   Message('note_on', channel=0, note=51, velocity=33, time=0),\n",
       "   Message('note_on', channel=0, note=63, velocity=41, time=141),\n",
       "   Message('note_on', channel=0, note=56, velocity=0, time=13),\n",
       "   Message('note_on', channel=0, note=56, velocity=29, time=0),\n",
       "   Message('note_on', channel=0, note=51, velocity=0, time=141),\n",
       "   Message('note_on', channel=0, note=51, velocity=49, time=0),\n",
       "   Message('note_on', channel=0, note=49, velocity=45, time=172),\n",
       "   Message('note_on', channel=0, note=63, velocity=0, time=0),\n",
       "   Message('note_on', channel=0, note=48, velocity=0, time=13),\n",
       "   Message('note_on', channel=0, note=56, velocity=0, time=0),\n",
       "   Message('note_on', channel=0, note=51, velocity=0, time=13),\n",
       "   Message('note_on', channel=0, note=68, velocity=0, time=57),\n",
       "   Message('note_on', channel=0, note=53, velocity=41, time=97),\n",
       "   Message('note_on', channel=0, note=56, velocity=37, time=154),\n",
       "   Message('note_on', channel=0, note=53, velocity=0, time=159),\n",
       "   Message('note_on', channel=0, note=53, velocity=45, time=0),\n",
       "   Message('note_on', channel=0, note=61, velocity=49, time=180),\n",
       "   Message('note_on', channel=0, note=65, velocity=41, time=0),\n",
       "   Message('note_on', channel=0, note=56, velocity=0, time=198),\n",
       "   Message('note_on', channel=0, note=56, velocity=33, time=0),\n",
       "   Message('note_on', channel=0, note=53, velocity=0, time=185),\n",
       "   Message('note_on', channel=0, note=53, velocity=41, time=0),\n",
       "   Message('note_on', channel=0, note=49, velocity=0, time=167),\n",
       "   Message('note_on', channel=0, note=49, velocity=41, time=0),\n",
       "   Message('note_on', channel=0, note=56, velocity=0, time=0),\n",
       "   Message('note_on', channel=0, note=53, velocity=0, time=13),\n",
       "   Message('note_on', channel=0, note=65, velocity=0, time=13),\n",
       "   Message('note_on', channel=0, note=53, velocity=37, time=141),\n",
       "   Message('note_on', channel=0, note=56, velocity=33, time=198),\n",
       "   Message('note_on', channel=0, note=53, velocity=0, time=185),\n",
       "   Message('note_on', channel=0, note=53, velocity=41, time=0),\n",
       "   Message('note_on', channel=0, note=61, velocity=0, time=198),\n",
       "   Message('note_on', channel=0, note=61, velocity=41, time=0),\n",
       "   Message('note_on', channel=0, note=56, velocity=0, time=211),\n",
       "   Message('note_on', channel=0, note=56, velocity=37, time=0),\n",
       "   Message('note_on', channel=0, note=63, velocity=53, time=181),\n",
       "   Message('note_on', channel=0, note=61, velocity=0, time=13),\n",
       "   Message('note_on', channel=0, note=61, velocity=41, time=0),\n",
       "   Message('note_on', channel=0, note=49, velocity=0, time=17),\n",
       "   Message('note_on', channel=0, note=65, velocity=61, time=194),\n",
       "   Message('note_on', channel=0, note=56, velocity=0, time=18),\n",
       "   Message('note_on', channel=0, note=56, velocity=45, time=0),\n",
       "   Message('note_on', channel=0, note=53, velocity=0, time=13),\n",
       "   Message('note_on', channel=0, note=63, velocity=0, time=70),\n",
       "   Message('note_on', channel=0, note=68, velocity=65, time=225),\n",
       "   Message('note_on', channel=0, note=49, velocity=41, time=13),\n",
       "   Message('note_on', channel=0, note=56, velocity=0, time=0),\n",
       "   Message('note_on', channel=0, note=61, velocity=0, time=44),\n",
       "   Message('note_on', channel=0, note=65, velocity=0, time=39),\n",
       "   Message('note_on', channel=0, note=53, velocity=49, time=115),\n",
       "   Message('note_on', channel=0, note=56, velocity=41, time=185),\n",
       "   Message('note_on', channel=0, note=53, velocity=0, time=180),\n",
       "   Message('note_on', channel=0, note=53, velocity=53, time=0),\n",
       "   Message('note_on', channel=0, note=68, velocity=0, time=31),\n",
       "   Message('note_on', channel=0, note=61, velocity=53, time=154),\n",
       "   Message('note_on', channel=0, note=56, velocity=0, time=167),\n",
       "   Message('note_on', channel=0, note=56, velocity=49, time=0),\n",
       "   Message('note_on', channel=0, note=53, velocity=0, time=172),\n",
       "   Message('note_on', channel=0, note=53, velocity=53, time=0),\n",
       "   Message('note_on', channel=0, note=49, velocity=0, time=193),\n",
       "   Message('note_on', channel=0, note=49, velocity=49, time=0),\n",
       "   Message('note_on', channel=0, note=56, velocity=0, time=71),\n",
       "   Message('note_on', channel=0, note=53, velocity=0, time=158),\n",
       "   Message('note_on', channel=0, note=53, velocity=45, time=0),\n",
       "   Message('note_on', channel=0, note=61, velocity=0, time=13),\n",
       "   Message('note_on', channel=0, note=56, velocity=49, time=198),\n",
       "   Message('note_on', channel=0, note=61, velocity=49, time=27),\n",
       "   Message('note_on', channel=0, note=65, velocity=61, time=184),\n",
       "   Message('note_on', channel=0, note=49, velocity=0, time=27),\n",
       "   Message('note_on', channel=0, note=68, velocity=61, time=185),\n",
       "   Message('note_on', channel=0, note=73, velocity=61, time=0),\n",
       "   Message('note_on', channel=0, note=61, velocity=0, time=13),\n",
       "   Message('note_on', channel=0, note=56, velocity=0, time=13),\n",
       "   Message('note_on', channel=0, note=65, velocity=0, time=0),\n",
       "   Message('note_on', channel=0, note=68, velocity=0, time=396),\n",
       "   Message('note_on', channel=0, note=68, velocity=61, time=0),\n",
       "   Message('note_on', channel=0, note=65, velocity=57, time=211),\n",
       "   Message('note_on', channel=0, note=68, velocity=0, time=13),\n",
       "   Message('note_on', channel=0, note=53, velocity=0, time=14),\n",
       "   Message('note_on', channel=0, note=65, velocity=0, time=127),\n",
       "   Message('note_on', channel=0, note=68, velocity=57, time=110),\n",
       "   Message('note_on', channel=0, note=73, velocity=0, time=31),\n",
       "   Message('note_on', channel=0, note=68, velocity=0, time=154),\n",
       "   Message('note_on', channel=0, note=72, velocity=61, time=44),\n",
       "   Message('note_on', channel=0, note=63, velocity=49, time=660),\n",
       "   Message('note_on', channel=0, note=72, velocity=0, time=97),\n",
       "   Message('note_on', channel=0, note=63, velocity=0, time=127),\n",
       "   Message('note_on', channel=0, note=70, velocity=53, time=0),\n",
       "   Message('note_on', channel=0, note=73, velocity=65, time=225),\n",
       "   Message('note_on', channel=0, note=70, velocity=0, time=13),\n",
       "   Message('note_on', channel=0, note=73, velocity=0, time=57),\n",
       "   Message('note_on', channel=0, note=72, velocity=61, time=141),\n",
       "   Message('note_on', channel=0, note=63, velocity=49, time=634),\n",
       "   Message('note_on', channel=0, note=72, velocity=0, time=13),\n",
       "   Message('note_on', channel=0, note=70, velocity=49, time=198),\n",
       "   Message('note_on', channel=0, note=63, velocity=0, time=31),\n",
       "   Message('note_on', channel=0, note=42, velocity=33, time=193),\n",
       "   Message('note_on', channel=0, note=73, velocity=49, time=0),\n",
       "   Message('note_on', channel=0, note=70, velocity=0, time=31),\n",
       "   Message('note_on', channel=0, note=42, velocity=0, time=13),\n",
       "   Message('note_on', channel=0, note=73, velocity=0, time=13),\n",
       "   Message('note_on', channel=0, note=72, velocity=45, time=198),\n",
       "   Message('note_on', channel=0, note=60, velocity=57, time=256),\n",
       "   Message('note_on', channel=0, note=68, velocity=45, time=250),\n",
       "   Message('note_on', channel=0, note=72, velocity=0, time=212),\n",
       "   Message('note_on', channel=0, note=72, velocity=49, time=0),\n",
       "   Message('note_on', channel=0, note=60, velocity=0, time=466),\n",
       "   Message('note_on', channel=0, note=68, velocity=0, time=26),\n",
       "   Message('note_on', channel=0, note=70, velocity=53, time=115),\n",
       "   Message('note_on', channel=0, note=72, velocity=0, time=26),\n",
       "   Message('note_on', channel=0, note=73, velocity=65, time=185),\n",
       "   Message('note_on', channel=0, note=70, velocity=0, time=13),\n",
       "   Message('note_on', channel=0, note=72, velocity=61, time=211),\n",
       "   Message('note_on', channel=0, note=73, velocity=0, time=0),\n",
       "   Message('note_on', channel=0, note=70, velocity=53, time=691),\n",
       "   Message('note_on', channel=0, note=72, velocity=0, time=27),\n",
       "   Message('note_on', channel=0, note=73, velocity=57, time=250),\n",
       "   Message('note_on', channel=0, note=58, velocity=37, time=18),\n",
       "   Message('note_on', channel=0, note=61, velocity=37, time=0),\n",
       "   Message('note_on', channel=0, note=70, velocity=0, time=0),\n",
       "   Message('note_on', channel=0, note=55, velocity=37, time=13),\n",
       "   Message('note_on', channel=0, note=72, velocity=53, time=603),\n",
       "   Message('note_on', channel=0, note=58, velocity=0, time=31),\n",
       "   Message('note_on', channel=0, note=73, velocity=0, time=13),\n",
       "   Message('note_on', channel=0, note=73, velocity=57, time=409),\n",
       "   Message('note_on', channel=0, note=61, velocity=0, time=13),\n",
       "   Message('note_on', channel=0, note=55, velocity=0, time=14),\n",
       "   Message('note_on', channel=0, note=72, velocity=0, time=0),\n",
       "   Message('note_on', channel=0, note=70, velocity=61, time=184),\n",
       "   Message('note_on', channel=0, note=55, velocity=45, time=14),\n",
       "   Message('note_on', channel=0, note=58, velocity=49, time=0),\n",
       "   Message('note_on', channel=0, note=61, velocity=49, time=0),\n",
       "   Message('note_on', channel=0, note=73, velocity=0, time=26),\n",
       "   Message('note_on', channel=0, note=73, velocity=65, time=198),\n",
       "   Message('note_on', channel=0, note=70, velocity=0, time=31),\n",
       "   Message('note_on', channel=0, note=72, velocity=61, time=167),\n",
       "   Message('note_on', channel=0, note=73, velocity=0, time=57),\n",
       "   Message('note_on', channel=0, note=72, velocity=0, time=27),\n",
       "   Message('note_on', channel=0, note=70, velocity=57, time=154),\n",
       "   Message('note_on', channel=0, note=58, velocity=0, time=338),\n",
       "   Message('note_on', channel=0, note=61, velocity=0, time=0),\n",
       "   Message('note_on', channel=0, note=55, velocity=0, time=14),\n",
       "   Message('note_on', channel=0, note=70, velocity=0, time=228),\n",
       "   Message('note_on', channel=0, note=53, velocity=53, time=53),\n",
       "   Message('note_on', channel=0, note=65, velocity=61, time=0),\n",
       "   Message('note_on', channel=0, note=68, velocity=61, time=0),\n",
       "   Message('note_on', channel=0, note=56, velocity=49, time=115),\n",
       "   Message('note_on', channel=0, note=65, velocity=0, time=83),\n",
       "   Message('note_on', channel=0, note=65, velocity=61, time=0),\n",
       "   Message('note_on', channel=0, note=68, velocity=0, time=13),\n",
       "   Message('note_on', channel=0, note=68, velocity=57, time=0),\n",
       "   Message('note_on', channel=0, note=60, velocity=53, time=18),\n",
       "   Message('note_on', channel=0, note=56, velocity=0, time=110),\n",
       "   Message('note_on', channel=0, note=56, velocity=45, time=0),\n",
       "   Message('note_on', channel=0, note=53, velocity=0, time=114),\n",
       "   Message('note_on', channel=0, note=53, velocity=45, time=0),\n",
       "   Message('note_on', channel=0, note=56, velocity=0, time=97),\n",
       "   Message('note_on', channel=0, note=56, velocity=41, time=0),\n",
       "   Message('note_on', channel=0, note=60, velocity=0, time=115),\n",
       "   Message('note_on', channel=0, note=60, velocity=41, time=0),\n",
       "   Message('note_on', channel=0, note=61, velocity=49, time=0),\n",
       "   Message('note_on', channel=0, note=65, velocity=0, time=0),\n",
       "   Message('note_on', channel=0, note=65, velocity=45, time=0),\n",
       "   Message('note_on', channel=0, note=56, velocity=0, time=110),\n",
       "   Message('note_on', channel=0, note=56, velocity=41, time=0),\n",
       "   Message('note_on', channel=0, note=53, velocity=0, time=101),\n",
       "   Message('note_on', channel=0, note=53, velocity=49, time=0),\n",
       "   Message('note_on', channel=0, note=56, velocity=0, time=97),\n",
       "   Message('note_on', channel=0, note=56, velocity=45, time=0),\n",
       "   Message('note_on', channel=0, note=60, velocity=0, time=101),\n",
       "   Message('note_on', channel=0, note=60, velocity=45, time=0),\n",
       "   Message('note_on', channel=0, note=56, velocity=0, time=97),\n",
       "   Message('note_on', channel=0, note=56, velocity=41, time=0),\n",
       "   Message('note_on', channel=0, note=51, velocity=49, time=114),\n",
       "   Message('note_on', channel=0, note=61, velocity=0, time=0),\n",
       "   Message('note_on', channel=0, note=61, velocity=53, time=0),\n",
       "   Message('note_on', channel=0, note=67, velocity=57, time=0),\n",
       "   Message('note_on', channel=0, note=53, velocity=0, time=13),\n",
       "   Message('note_on', channel=0, note=60, velocity=0, time=0),\n",
       "   Message('note_on', channel=0, note=65, velocity=0, time=0),\n",
       "   Message('note_on', channel=0, note=68, velocity=0, time=0),\n",
       "   Message('note_on', channel=0, note=56, velocity=0, time=13),\n",
       "   Message('note_on', channel=0, note=55, velocity=49, time=84),\n",
       "   Message('note_on', channel=0, note=63, velocity=53, time=101),\n",
       "   Message('note_on', channel=0, note=58, velocity=45, time=13),\n",
       "   Message('note_on', channel=0, note=55, velocity=0, time=97),\n",
       "   Message('note_on', channel=0, note=55, velocity=49, time=0),\n",
       "   Message('note_on', channel=0, note=51, velocity=0, time=115),\n",
       "   Message('note_on', channel=0, note=51, velocity=41, time=0),\n",
       "   Message('note_on', channel=0, note=55, velocity=0, time=70),\n",
       "   Message('note_on', channel=0, note=55, velocity=49, time=0),\n",
       "   Message('note_on', channel=0, note=58, velocity=0, time=97),\n",
       "   Message('note_on', channel=0, note=58, velocity=49, time=0),\n",
       "   Message('note_on', channel=0, note=61, velocity=0, time=0),\n",
       "   Message('note_on', channel=0, note=61, velocity=53, time=0),\n",
       "   Message('note_on', channel=0, note=51, velocity=0, time=31),\n",
       "   Message('note_on', channel=0, note=63, velocity=0, time=0),\n",
       "   Message('note_on', channel=0, note=67, velocity=0, time=0),\n",
       "   Message('note_on', channel=0, note=55, velocity=0, time=13),\n",
       "   Message('note_on', channel=0, note=55, velocity=49, time=70),\n",
       "   Message('note_on', channel=0, note=51, velocity=45, time=97),\n",
       "   Message('note_on', channel=0, note=55, velocity=0, time=101),\n",
       "   Message('note_on', channel=0, note=55, velocity=49, time=0),\n",
       "   Message('note_on', channel=0, note=58, velocity=0, time=97),\n",
       "   Message('note_on', channel=0, note=58, velocity=45, time=0),\n",
       "   Message('note_on', channel=0, note=55, velocity=0, time=84),\n",
       "   Message('note_on', channel=0, note=55, velocity=49, time=0),\n",
       "   Message('note_on', channel=0, note=49, velocity=49, time=114),\n",
       "   Message('note_on', channel=0, note=65, velocity=57, time=0),\n",
       "   Message('note_on', channel=0, note=51, velocity=0, time=13),\n",
       "   Message('note_on', channel=0, note=55, velocity=0, time=0),\n",
       "   Message('note_on', channel=0, note=58, velocity=0, time=0),\n",
       "   Message('note_on', channel=0, note=61, velocity=0, time=0),\n",
       "   Message('note_on', channel=0, note=65, velocity=0, time=27),\n",
       "   Message('note_on', channel=0, note=53, velocity=49, time=57),\n",
       "   Message('note_on', channel=0, note=56, velocity=37, time=114),\n",
       "   Message('note_on', channel=0, note=61, velocity=45, time=0),\n",
       "   Message('note_on', channel=0, note=53, velocity=0, time=84),\n",
       "   Message('note_on', channel=0, note=53, velocity=45, time=0),\n",
       "   Message('note_on', channel=0, note=49, velocity=0, time=97),\n",
       "   Message('note_on', channel=0, note=49, velocity=41, time=0),\n",
       "   Message('note_on', channel=0, note=53, velocity=0, time=101),\n",
       "   Message('note_on', channel=0, note=53, velocity=49, time=0),\n",
       "   Message('note_on', channel=0, note=61, velocity=0, time=97),\n",
       "   Message('note_on', channel=0, note=61, velocity=53, time=0),\n",
       "   Message('note_on', channel=0, note=65, velocity=57, time=0),\n",
       "   Message('note_on', channel=0, note=56, velocity=0, time=13),\n",
       "   Message('note_on', channel=0, note=56, velocity=37, time=0),\n",
       "   Message('note_on', channel=0, note=53, velocity=0, time=17),\n",
       "   Message('note_on', channel=0, note=53, velocity=45, time=97),\n",
       "   Message('note_on', channel=0, note=49, velocity=0, time=128),\n",
       "   Message('note_on', channel=0, note=49, velocity=45, time=0),\n",
       "   Message('note_on', channel=0, note=53, velocity=0, time=70),\n",
       "   Message('note_on', channel=0, note=53, velocity=49, time=0),\n",
       "   Message('note_on', channel=0, note=61, velocity=0, time=0),\n",
       "   Message('note_on', channel=0, note=56, velocity=0, time=110),\n",
       "   Message('note_on', channel=0, note=56, velocity=45, time=0),\n",
       "   Message('note_on', channel=0, note=53, velocity=0, time=101),\n",
       "   Message('note_on', channel=0, note=53, velocity=49, time=0),\n",
       "   Message('note_on', channel=0, note=48, velocity=53, time=97),\n",
       "   Message('note_on', channel=0, note=63, velocity=53, time=0),\n",
       "   Message('note_on', channel=0, note=49, velocity=0, time=13),\n",
       "   Message('note_on', channel=0, note=53, velocity=0, time=0),\n",
       "   Message('note_on', channel=0, note=56, velocity=0, time=0),\n",
       "   Message('note_on', channel=0, note=65, velocity=0, time=0),\n",
       "   Message('note_on', channel=0, note=51, velocity=45, time=102),\n",
       "   Message('note_on', channel=0, note=56, velocity=53, time=96),\n",
       "   Message('note_on', channel=0, note=63, velocity=0, time=0),\n",
       "   Message('note_on', channel=0, note=63, velocity=57, time=0),\n",
       "   Message('note_on', channel=0, note=51, velocity=0, time=115),\n",
       "   Message('note_on', channel=0, note=51, velocity=37, time=0),\n",
       "   Message('note_on', channel=0, note=48, velocity=0, time=97),\n",
       "   Message('note_on', channel=0, note=48, velocity=49, time=0),\n",
       "   Message('note_on', channel=0, note=51, velocity=0, time=101),\n",
       "   Message('note_on', channel=0, note=51, velocity=53, time=0),\n",
       "   Message('note_on', channel=0, note=56, velocity=0, time=97),\n",
       "   Message('note_on', channel=0, note=56, velocity=53, time=0),\n",
       "   Message('note_on', channel=0, note=63, velocity=0, time=0),\n",
       "   Message('note_on', channel=0, note=63, velocity=57, time=0),\n",
       "   Message('note_on', channel=0, note=51, velocity=0, time=26),\n",
       "   Message('note_on', channel=0, note=51, velocity=49, time=101),\n",
       "   Message('note_on', channel=0, note=48, velocity=0, time=97),\n",
       "   Message('note_on', channel=0, note=48, velocity=49, time=0),\n",
       "   Message('note_on', channel=0, note=51, velocity=0, time=101),\n",
       "   Message('note_on', channel=0, note=51, velocity=53, time=0),\n",
       "   Message('note_on', channel=0, note=56, velocity=0, time=110),\n",
       "   Message('note_on', channel=0, note=56, velocity=41, time=0),\n",
       "   Message('note_on', channel=0, note=63, velocity=0, time=0),\n",
       "   Message('note_on', channel=0, note=63, velocity=57, time=0),\n",
       "   Message('note_on', channel=0, note=51, velocity=0, time=101),\n",
       "   Message('note_on', channel=0, note=51, velocity=45, time=0),\n",
       "   Message('note_on', channel=0, note=49, velocity=53, time=97),\n",
       "   Message('note_on', channel=0, note=61, velocity=61, time=0),\n",
       "   Message('note_on', channel=0, note=65, velocity=57, time=0),\n",
       "   Message('note_on', channel=0, note=51, velocity=0, time=13),\n",
       "   Message('note_on', channel=0, note=48, velocity=0, time=14),\n",
       "   Message('note_on', channel=0, note=56, velocity=0, time=0),\n",
       "   Message('note_on', channel=0, note=63, velocity=0, time=0),\n",
       "   Message('note_on', channel=0, note=53, velocity=53, time=70),\n",
       "   Message('note_on', channel=0, note=56, velocity=49, time=114),\n",
       "   Message('note_on', channel=0, note=61, velocity=0, time=0),\n",
       "   Message('note_on', channel=0, note=61, velocity=53, time=0),\n",
       "   Message('note_on', channel=0, note=53, velocity=0, time=84),\n",
       "   Message('note_on', channel=0, note=53, velocity=49, time=0),\n",
       "   Message('note_on', channel=0, note=49, velocity=0, time=114),\n",
       "   Message('note_on', channel=0, note=49, velocity=45, time=0),\n",
       "   Message('note_on', channel=0, note=53, velocity=0, time=84),\n",
       "   Message('note_on', channel=0, note=53, velocity=49, time=0),\n",
       "   Message('note_on', channel=0, note=61, velocity=0, time=0),\n",
       "   Message('note_on', channel=0, note=56, velocity=0, time=114),\n",
       "   Message('note_on', channel=0, note=56, velocity=49, time=0),\n",
       "   Message('note_on', channel=0, note=61, velocity=57, time=0),\n",
       "   Message('note_on', channel=0, note=65, velocity=0, time=0),\n",
       "   Message('note_on', channel=0, note=65, velocity=57, time=0),\n",
       "   Message('note_on', channel=0, note=53, velocity=0, time=14),\n",
       "   Message('note_on', channel=0, note=53, velocity=49, time=110),\n",
       "   Message('note_on', channel=0, note=49, velocity=0, time=101),\n",
       "   Message('note_on', channel=0, note=49, velocity=45, time=0),\n",
       "   Message('note_on', channel=0, note=53, velocity=0, time=83),\n",
       "   Message('note_on', channel=0, note=53, velocity=49, time=0),\n",
       "   Message('note_on', channel=0, note=56, velocity=0, time=84),\n",
       "   Message('note_on', channel=0, note=56, velocity=41, time=0),\n",
       "   Message('note_on', channel=0, note=53, velocity=0, time=84),\n",
       "   Message('note_on', channel=0, note=53, velocity=53, time=0),\n",
       "   Message('note_on', channel=0, note=53, velocity=0, time=101),\n",
       "   Message('note_on', channel=0, note=56, velocity=0, time=0),\n",
       "   Message('note_on', channel=0, note=63, velocity=53, time=0),\n",
       "   Message('note_on', channel=0, note=65, velocity=0, time=0),\n",
       "   Message('note_on', channel=0, note=48, velocity=49, time=13),\n",
       "   Message('note_on', channel=0, note=61, velocity=0, time=0),\n",
       "   Message('note_on', channel=0, note=49, velocity=0, time=13),\n",
       "   Message('note_on', channel=0, note=51, velocity=49, time=84),\n",
       "   Message('note_on', channel=0, note=56, velocity=49, time=101),\n",
       "   Message('note_on', channel=0, note=63, velocity=0, time=0),\n",
       "   Message('note_on', channel=0, note=63, velocity=53, time=0),\n",
       "   Message('note_on', channel=0, note=51, velocity=0, time=110),\n",
       "   Message('note_on', channel=0, note=51, velocity=45, time=0),\n",
       "   Message('note_on', channel=0, note=48, velocity=0, time=88),\n",
       "   Message('note_on', channel=0, note=48, velocity=49, time=0),\n",
       "   Message('note_on', channel=0, note=51, velocity=0, time=97),\n",
       "   Message('note_on', channel=0, note=51, velocity=49, time=0),\n",
       "   Message('note_on', channel=0, note=63, velocity=0, time=83),\n",
       "   Message('note_on', channel=0, note=63, velocity=53, time=0),\n",
       "   Message('note_on', channel=0, note=56, velocity=0, time=14),\n",
       "   Message('note_on', channel=0, note=56, velocity=45, time=0),\n",
       "   Message('note_on', channel=0, note=51, velocity=0, time=101),\n",
       "   Message('note_on', channel=0, note=51, velocity=49, time=0),\n",
       "   Message('note_on', channel=0, note=48, velocity=0, time=97),\n",
       "   Message('note_on', channel=0, note=48, velocity=53, time=0),\n",
       "   Message('note_on', channel=0, note=51, velocity=0, time=101),\n",
       "   Message('note_on', channel=0, note=51, velocity=49, time=0),\n",
       "   Message('note_on', channel=0, note=56, velocity=0, time=97),\n",
       "   Message('note_on', channel=0, note=56, velocity=45, time=0),\n",
       "   Message('note_on', channel=0, note=63, velocity=0, time=0),\n",
       "   Message('note_on', channel=0, note=63, velocity=53, time=0),\n",
       "   Message('note_on', channel=0, note=51, velocity=0, time=83),\n",
       "   Message('note_on', channel=0, note=51, velocity=53, time=0),\n",
       "   Message('note_on', channel=0, note=49, velocity=53, time=115),\n",
       "   Message('note_on', channel=0, note=61, velocity=57, time=0),\n",
       "   Message('note_on', channel=0, note=65, velocity=57, time=0),\n",
       "   Message('note_on', channel=0, note=51, velocity=0, time=13),\n",
       "   Message('note_on', channel=0, note=48, velocity=0, time=13),\n",
       "   Message('note_on', channel=0, note=56, velocity=0, time=0),\n",
       "   Message('note_on', channel=0, note=63, velocity=0, time=0),\n",
       "   Message('note_on', channel=0, note=53, velocity=53, time=70),\n",
       "   Message('note_on', channel=0, note=56, velocity=45, time=102),\n",
       "   Message('note_on', channel=0, note=61, velocity=0, time=13),\n",
       "   Message('note_on', channel=0, note=61, velocity=49, time=0),\n",
       "   Message('note_on', channel=0, note=53, velocity=0, time=83),\n",
       "   Message('note_on', channel=0, note=53, velocity=49, time=0),\n",
       "   Message('note_on', channel=0, note=49, velocity=0, time=115),\n",
       "   Message('note_on', channel=0, note=49, velocity=49, time=0),\n",
       "   Message('note_on', channel=0, note=53, velocity=0, time=83),\n",
       "   Message('note_on', channel=0, note=53, velocity=49, time=0),\n",
       "   Message('note_on', channel=0, note=56, velocity=0, time=110),\n",
       "   Message('note_on', channel=0, note=56, velocity=49, time=0),\n",
       "   Message('note_on', channel=0, note=61, velocity=0, time=0),\n",
       "   Message('note_on', channel=0, note=61, velocity=57, time=0),\n",
       "   Message('note_on', channel=0, note=65, velocity=0, time=0),\n",
       "   Message('note_on', channel=0, note=65, velocity=57, time=0),\n",
       "   Message('note_on', channel=0, note=53, velocity=0, time=18),\n",
       "   Message('note_on', channel=0, note=53, velocity=49, time=110),\n",
       "   Message('note_on', channel=0, note=49, velocity=0, time=84),\n",
       "   Message('note_on', channel=0, note=49, velocity=49, time=0),\n",
       "   Message('note_on', channel=0, note=53, velocity=0, time=101),\n",
       "   Message('note_on', channel=0, note=53, velocity=53, time=0),\n",
       "   Message('note_on', channel=0, note=56, velocity=0, time=110),\n",
       "   Message('note_on', channel=0, note=56, velocity=45, time=0),\n",
       "   Message('note_on', channel=0, note=53, velocity=0, time=88),\n",
       "   Message('note_on', channel=0, note=53, velocity=49, time=0),\n",
       "   Message('note_on', channel=0, note=48, velocity=49, time=110),\n",
       "   Message('note_on', channel=0, note=63, velocity=53, time=0),\n",
       "   Message('note_on', channel=0, note=68, velocity=57, time=0),\n",
       "   Message('note_on', channel=0, note=49, velocity=0, time=13),\n",
       "   Message('note_on', channel=0, note=53, velocity=0, time=0),\n",
       "   Message('note_on', channel=0, note=56, velocity=0, time=0),\n",
       "   Message('note_on', channel=0, note=61, velocity=0, time=0),\n",
       "   Message('note_on', channel=0, note=65, velocity=0, time=0),\n",
       "   Message('note_on', channel=0, note=51, velocity=53, time=101),\n",
       "   Message('note_on', channel=0, note=56, velocity=49, time=97),\n",
       "   Message('note_on', channel=0, note=63, velocity=0, time=0),\n",
       "   Message('note_on', channel=0, note=63, velocity=53, time=0),\n",
       "   Message('note_on', channel=0, note=68, velocity=0, time=13),\n",
       "   Message('note_on', channel=0, note=68, velocity=53, time=0),\n",
       "   Message('note_on', channel=0, note=51, velocity=0, time=88),\n",
       "   Message('note_on', channel=0, note=51, velocity=53, time=0),\n",
       "   Message('note_on', channel=0, note=48, velocity=0, time=110),\n",
       "   Message('note_on', channel=0, note=48, velocity=53, time=0),\n",
       "   Message('note_on', channel=0, note=51, velocity=0, time=84),\n",
       "   Message('note_on', channel=0, note=51, velocity=53, time=0),\n",
       "   Message('note_on', channel=0, note=56, velocity=0, time=127),\n",
       "   Message('note_on', channel=0, note=56, velocity=53, time=0),\n",
       "   Message('note_on', channel=0, note=63, velocity=0, time=0),\n",
       "   Message('note_on', channel=0, note=63, velocity=65, time=0),\n",
       "   Message('note_on', channel=0, note=68, velocity=0, time=0),\n",
       "   Message('note_on', channel=0, note=68, velocity=61, time=0),\n",
       "   Message('note_on', channel=0, note=51, velocity=0, time=102),\n",
       "   Message('note_on', channel=0, note=51, velocity=45, time=0),\n",
       "   Message('note_on', channel=0, note=48, velocity=0, time=110),\n",
       "   Message('note_on', channel=0, note=48, velocity=49, time=0),\n",
       "   Message('note_on', channel=0, note=51, velocity=0, time=101),\n",
       "   Message('note_on', channel=0, note=51, velocity=53, time=0),\n",
       "   Message('note_on', channel=0, note=63, velocity=0, time=97),\n",
       "   Message('note_on', channel=0, note=63, velocity=57, time=0),\n",
       "   Message('note_on', channel=0, note=68, velocity=0, time=0),\n",
       "   Message('note_on', channel=0, note=68, velocity=57, time=0),\n",
       "   Message('note_on', channel=0, note=56, velocity=0, time=13),\n",
       "   Message('note_on', channel=0, note=56, velocity=49, time=0),\n",
       "   Message('note_on', channel=0, note=51, velocity=0, time=101),\n",
       "   Message('note_on', channel=0, note=51, velocity=49, time=0),\n",
       "   Message('note_on', channel=0, note=49, velocity=53, time=110),\n",
       "   Message('note_on', channel=0, note=56, velocity=0, time=0),\n",
       "   Message('note_on', channel=0, note=56, velocity=49, time=0),\n",
       "   Message('note_on', channel=0, note=61, velocity=53, time=0),\n",
       "   Message('note_on', channel=0, note=65, velocity=49, time=0),\n",
       "   Message('note_on', channel=0, note=51, velocity=0, time=13),\n",
       "   Message('note_on', channel=0, note=48, velocity=0, time=18),\n",
       "   Message('note_on', channel=0, note=63, velocity=0, time=0),\n",
       "   Message('note_on', channel=0, note=63, velocity=53, time=83),\n",
       "   Message('note_on', channel=0, note=49, velocity=0, time=110),\n",
       "   Message('note_on', channel=0, note=49, velocity=49, time=0),\n",
       "   Message('note_on', channel=0, note=56, velocity=0, time=0),\n",
       "   Message('note_on', channel=0, note=56, velocity=45, time=0),\n",
       "   Message('note_on', channel=0, note=65, velocity=0, time=0),\n",
       "   Message('note_on', channel=0, note=65, velocity=53, time=0),\n",
       "   Message('note_on', channel=0, note=61, velocity=0, time=31),\n",
       "   Message('note_on', channel=0, note=63, velocity=0, time=0),\n",
       "   Message('note_on', channel=0, note=63, velocity=53, time=71),\n",
       "   Message('note_on', channel=0, note=49, velocity=0, time=110),\n",
       "   Message('note_on', channel=0, note=49, velocity=53, time=0),\n",
       "   Message('note_on', channel=0, note=65, velocity=0, time=0),\n",
       "   Message('note_on', channel=0, note=65, velocity=57, time=0),\n",
       "   Message('note_on', channel=0, note=56, velocity=0, time=17),\n",
       "   Message('note_on', channel=0, note=56, velocity=41, time=0),\n",
       "   Message('note_on', channel=0, note=63, velocity=0, time=97),\n",
       "   Message('note_on', channel=0, note=63, velocity=49, time=0),\n",
       "   Message('note_on', channel=0, note=65, velocity=0, time=97),\n",
       "   Message('note_on', channel=0, note=65, velocity=57, time=0),\n",
       "   Message('note_on', channel=0, note=49, velocity=0, time=17),\n",
       "   Message('note_on', channel=0, note=49, velocity=53, time=0),\n",
       "   Message('note_on', channel=0, note=56, velocity=0, time=0),\n",
       "   Message('note_on', channel=0, note=56, velocity=45, time=0),\n",
       "   Message('note_on', channel=0, note=63, velocity=0, time=14),\n",
       "   Message('note_on', channel=0, note=63, velocity=49, time=96),\n",
       "   Message('note_on', channel=0, note=65, velocity=0, time=102),\n",
       "   Message('note_on', channel=0, note=65, velocity=53, time=0),\n",
       "   Message('note_on', channel=0, note=49, velocity=0, time=13),\n",
       "   Message('note_on', channel=0, note=49, velocity=53, time=0),\n",
       "   Message('note_on', channel=0, note=56, velocity=0, time=0),\n",
       "   Message('note_on', channel=0, note=56, velocity=45, time=0),\n",
       "   Message('note_on', channel=0, note=63, velocity=0, time=26),\n",
       "   Message('note_on', channel=0, note=63, velocity=49, time=71),\n",
       "   Message('note_on', channel=0, note=68, velocity=0, time=0),\n",
       "   Message('note_on', channel=0, note=65, velocity=0, time=101),\n",
       "   Message('note_on', channel=0, note=65, velocity=57, time=0),\n",
       "   Message('note_on', channel=0, note=49, velocity=0, time=13),\n",
       "   Message('note_on', channel=0, note=49, velocity=49, time=0),\n",
       "   Message('note_on', channel=0, note=56, velocity=0, time=0),\n",
       "   Message('note_on', channel=0, note=56, velocity=45, time=0),\n",
       "   Message('note_on', channel=0, note=63, velocity=0, time=26),\n",
       "   Message('note_on', channel=0, note=63, velocity=53, time=71),\n",
       "   Message('note_on', channel=0, note=65, velocity=0, time=101),\n",
       "   Message('note_on', channel=0, note=65, velocity=53, time=0),\n",
       "   Message('note_on', channel=0, note=49, velocity=0, time=13),\n",
       "   Message('note_on', channel=0, note=49, velocity=53, time=0),\n",
       "   Message('note_on', channel=0, note=56, velocity=0, time=0),\n",
       "   Message('note_on', channel=0, note=56, velocity=49, time=0),\n",
       "   Message('note_on', channel=0, note=63, velocity=0, time=27),\n",
       "   Message('note_on', channel=0, note=63, velocity=45, time=70),\n",
       "   Message('note_on', channel=0, note=49, velocity=0, time=114),\n",
       "   Message('note_on', channel=0, note=49, velocity=49, time=0),\n",
       "   Message('note_on', channel=0, note=56, velocity=0, time=0),\n",
       "   Message('note_on', channel=0, note=56, velocity=45, time=0),\n",
       "   Message('note_on', channel=0, note=65, velocity=0, time=0),\n",
       "   Message('note_on', channel=0, note=65, velocity=57, time=0),\n",
       "   Message('note_on', channel=0, note=63, velocity=0, time=14),\n",
       "   Message('note_on', channel=0, note=63, velocity=49, time=83),\n",
       "   Message('note_on', channel=0, note=49, velocity=0, time=115),\n",
       "   Message('note_on', channel=0, note=49, velocity=45, time=0),\n",
       "   Message('note_on', channel=0, note=56, velocity=0, time=0),\n",
       "   Message('note_on', channel=0, note=56, velocity=37, time=0),\n",
       "   Message('note_on', channel=0, note=65, velocity=0, time=0),\n",
       "   Message('note_on', channel=0, note=65, velocity=53, time=0),\n",
       "   Message('note_on', channel=0, note=63, velocity=0, time=26),\n",
       "   Message('note_on', channel=0, note=63, velocity=45, time=84),\n",
       "   Message('note_on', channel=0, note=49, velocity=0, time=114),\n",
       "   Message('note_on', channel=0, note=49, velocity=45, time=0),\n",
       "   Message('note_on', channel=0, note=56, velocity=0, time=0),\n",
       "   Message('note_on', channel=0, note=56, velocity=33, time=0),\n",
       "   Message('note_on', channel=0, note=65, velocity=0, time=0),\n",
       "   Message('note_on', channel=0, note=65, velocity=49, time=0),\n",
       "   Message('note_on', channel=0, note=63, velocity=0, time=13),\n",
       "   Message('note_on', channel=0, note=63, velocity=45, time=101),\n",
       "   Message('note_on', channel=0, note=49, velocity=0, time=124),\n",
       "   Message('note_on', channel=0, note=49, velocity=37, time=0),\n",
       "   Message('note_on', channel=0, note=65, velocity=0, time=0),\n",
       "   Message('note_on', channel=0, note=65, velocity=41, time=0),\n",
       "   Message('note_on', channel=0, note=63, velocity=0, time=17),\n",
       "   Message('note_on', channel=0, note=56, velocity=0, time=13),\n",
       "   Message('note_on', channel=0, note=63, velocity=33, time=97),\n",
       "   Message('note_on', channel=0, note=49, velocity=0, time=141),\n",
       "   Message('note_on', channel=0, note=49, velocity=33, time=0),\n",
       "   Message('note_on', channel=0, note=65, velocity=0, time=31),\n",
       "   Message('note_on', channel=0, note=65, velocity=41, time=0),\n",
       "   Message('note_on', channel=0, note=63, velocity=0, time=13),\n",
       "   Message('note_on', channel=0, note=63, velocity=33, time=141),\n",
       "   Message('note_on', channel=0, note=48, velocity=41, time=167),\n",
       "   Message('note_on', channel=0, note=56, velocity=49, time=0),\n",
       "   Message('note_on', channel=0, note=63, velocity=0, time=0),\n",
       "   Message('note_on', channel=0, note=63, velocity=49, time=0),\n",
       "   Message('note_on', channel=0, note=65, velocity=0, time=31),\n",
       "   Message('note_on', channel=0, note=49, velocity=0, time=13),\n",
       "   Message('note_on', channel=0, note=65, velocity=49, time=97),\n",
       "   Message('note_on', channel=0, note=48, velocity=0, time=154),\n",
       "   Message('note_on', channel=0, note=48, velocity=45, time=0),\n",
       "   Message('note_on', channel=0, note=56, velocity=0, time=0),\n",
       "   Message('note_on', channel=0, note=56, velocity=49, time=0),\n",
       "   Message('note_on', channel=0, note=63, velocity=0, time=0),\n",
       "   Message('note_on', channel=0, note=63, velocity=45, time=0),\n",
       "   Message('note_on', channel=0, note=65, velocity=0, time=31),\n",
       "   Message('note_on', channel=0, note=65, velocity=45, time=140),\n",
       "   Message('note_on', channel=0, note=48, velocity=0, time=154),\n",
       "   Message('note_on', channel=0, note=48, velocity=41, time=0),\n",
       "   Message('note_on', channel=0, note=56, velocity=0, time=0),\n",
       "   Message('note_on', channel=0, note=56, velocity=45, time=0),\n",
       "   Message('note_on', channel=0, note=63, velocity=0, time=0),\n",
       "   Message('note_on', channel=0, note=63, velocity=41, time=0),\n",
       "   Message('note_on', channel=0, note=65, velocity=0, time=27),\n",
       "   Message('note_on', channel=0, note=65, velocity=41, time=141),\n",
       "   Message('note_on', channel=0, note=63, velocity=0, time=158),\n",
       "   Message('note_on', channel=0, note=63, velocity=41, time=0),\n",
       "   Message('note_on', channel=0, note=48, velocity=0, time=13),\n",
       "   Message('note_on', channel=0, note=48, velocity=41, time=0),\n",
       "   Message('note_on', channel=0, note=56, velocity=0, time=0),\n",
       "   Message('note_on', channel=0, note=56, velocity=45, time=0),\n",
       "   Message('note_on', channel=0, note=65, velocity=0, time=40),\n",
       "   Message('note_on', channel=0, note=65, velocity=49, time=88),\n",
       "   Message('note_on', channel=0, note=63, velocity=0, time=167),\n",
       "   Message('note_on', channel=0, note=63, velocity=41, time=0),\n",
       "   Message('note_on', channel=0, note=48, velocity=0, time=13),\n",
       "   Message('note_on', channel=0, note=48, velocity=41, time=0),\n",
       "   Message('note_on', channel=0, note=56, velocity=0, time=0),\n",
       "   Message('note_on', channel=0, note=56, velocity=41, time=0),\n",
       "   Message('note_on', channel=0, note=65, velocity=0, time=31),\n",
       "   Message('note_on', channel=0, note=65, velocity=41, time=141),\n",
       "   Message('note_on', channel=0, note=63, velocity=0, time=154),\n",
       "   Message('note_on', channel=0, note=63, velocity=41, time=0),\n",
       "   Message('note_on', channel=0, note=48, velocity=0, time=13),\n",
       "   Message('note_on', channel=0, note=48, velocity=37, time=0),\n",
       "   Message('note_on', channel=0, note=56, velocity=0, time=0),\n",
       "   Message('note_on', channel=0, note=56, velocity=37, time=0),\n",
       "   Message('note_on', channel=0, note=65, velocity=0, time=44),\n",
       "   Message('note_on', channel=0, note=65, velocity=41, time=123),\n",
       "   Message('note_on', channel=0, note=48, velocity=0, time=159),\n",
       "   Message('note_on', channel=0, note=48, velocity=41, time=0),\n",
       "   Message('note_on', channel=0, note=56, velocity=0, time=0),\n",
       "   Message('note_on', channel=0, note=56, velocity=37, time=0),\n",
       "   Message('note_on', channel=0, note=63, velocity=0, time=0),\n",
       "   Message('note_on', channel=0, note=63, velocity=37, time=0),\n",
       "   Message('note_on', channel=0, note=65, velocity=0, time=154),\n",
       "   Message('note_on', channel=0, note=65, velocity=41, time=0),\n",
       "   Message('note_on', channel=0, note=63, velocity=0, time=154),\n",
       "   Message('note_on', channel=0, note=63, velocity=41, time=0),\n",
       "   Message('note_on', channel=0, note=48, velocity=0, time=13),\n",
       "   Message('note_on', channel=0, note=48, velocity=41, time=0),\n",
       "   Message('note_on', channel=0, note=56, velocity=0, time=0),\n",
       "   Message('note_on', channel=0, note=56, velocity=37, time=0),\n",
       "   Message('note_on', channel=0, note=65, velocity=0, time=141),\n",
       "   Message('note_on', channel=0, note=65, velocity=45, time=0),\n",
       "   Message('note_on', channel=0, note=48, velocity=0, time=171),\n",
       "   Message('note_on', channel=0, note=48, velocity=49, time=0),\n",
       "   Message('note_on', channel=0, note=56, velocity=0, time=0),\n",
       "   Message('note_on', channel=0, note=56, velocity=49, time=0),\n",
       "   Message('note_on', channel=0, note=65, velocity=0, time=40),\n",
       "   Message('note_on', channel=0, note=65, velocity=53, time=101),\n",
       "   Message('note_on', channel=0, note=48, velocity=0, time=167),\n",
       "   Message('note_on', channel=0, note=48, velocity=45, time=0),\n",
       "   Message('note_on', channel=0, note=57, velocity=49, time=0),\n",
       "   Message('note_on', channel=0, note=63, velocity=0, time=0),\n",
       "   Message('note_on', channel=0, note=63, velocity=61, time=0),\n",
       "   Message('note_on', channel=0, note=56, velocity=0, time=13),\n",
       "   Message('note_on', channel=0, note=65, velocity=0, time=14),\n",
       "   Message('note_on', channel=0, note=65, velocity=57, time=140),\n",
       "   Message('note_on', channel=0, note=63, velocity=0, time=159),\n",
       "   Message('note_on', channel=0, note=63, velocity=61, time=0),\n",
       "   Message('note_on', channel=0, note=48, velocity=0, time=13),\n",
       "   Message('note_on', channel=0, note=48, velocity=49, time=0),\n",
       "   Message('note_on', channel=0, note=57, velocity=0, time=0),\n",
       "   Message('note_on', channel=0, note=57, velocity=53, time=0),\n",
       "   Message('note_on', channel=0, note=65, velocity=0, time=26),\n",
       "   Message('note_on', channel=0, note=65, velocity=57, time=141),\n",
       "   Message('note_on', channel=0, note=57, velocity=0, time=141),\n",
       "   Message('note_on', channel=0, note=57, velocity=53, time=0),\n",
       "   Message('note_on', channel=0, note=63, velocity=0, time=0),\n",
       "   Message('note_on', channel=0, note=63, velocity=61, time=0),\n",
       "   Message('note_on', channel=0, note=48, velocity=0, time=13),\n",
       "   Message('note_on', channel=0, note=48, velocity=49, time=0),\n",
       "   Message('note_on', channel=0, note=65, velocity=0, time=44),\n",
       "   Message('note_on', channel=0, note=65, velocity=57, time=115),\n",
       "   Message('note_on', channel=0, note=63, velocity=0, time=154),\n",
       "   Message('note_on', channel=0, note=63, velocity=57, time=0),\n",
       "   Message('note_on', channel=0, note=48, velocity=0, time=13),\n",
       "   Message('note_on', channel=0, note=48, velocity=49, time=0),\n",
       "   Message('note_on', channel=0, note=57, velocity=0, time=0),\n",
       "   Message('note_on', channel=0, note=57, velocity=49, time=0),\n",
       "   Message('note_on', channel=0, note=65, velocity=0, time=44),\n",
       "   Message('note_on', channel=0, note=57, velocity=0, time=845),\n",
       "   Message('note_on', channel=0, note=48, velocity=0, time=13),\n",
       "   Message('note_on', channel=0, note=63, velocity=0, time=0),\n",
       "   Message('note_on', channel=0, note=65, velocity=57, time=70),\n",
       "   Message('note_on', channel=0, note=61, velocity=57, time=13),\n",
       "   Message('note_on', channel=0, note=77, velocity=57, time=185),\n",
       "   Message('note_on', channel=0, note=85, velocity=61, time=0),\n",
       "   Message('note_on', channel=0, note=73, velocity=61, time=577),\n",
       "   Message('note_on', channel=0, note=65, velocity=0, time=26),\n",
       "   Message('note_on', channel=0, note=77, velocity=0, time=31),\n",
       "   Message('note_on', channel=0, note=61, velocity=0, time=519),\n",
       "   Message('note_on', channel=0, note=61, velocity=57, time=0),\n",
       "   Message('note_on', channel=0, note=58, velocity=57, time=13),\n",
       "   Message('note_on', channel=0, note=85, velocity=0, time=31),\n",
       "   Message('note_on', channel=0, note=73, velocity=0, time=97),\n",
       "   Message('note_on', channel=0, note=80, velocity=57, time=26),\n",
       "   Message('note_on', channel=0, note=87, velocity=61, time=0),\n",
       "   Message('note_on', channel=0, note=85, velocity=57, time=255),\n",
       "   Message('note_on', channel=0, note=87, velocity=0, time=44),\n",
       "   Message('note_on', channel=0, note=61, velocity=0, time=577),\n",
       "   Message('note_on', channel=0, note=61, velocity=61, time=0),\n",
       "   Message('note_on', channel=0, note=70, velocity=57, time=13),\n",
       "   Message('note_on', channel=0, note=58, velocity=0, time=26),\n",
       "   Message('note_on', channel=0, note=80, velocity=0, time=0),\n",
       "   Message('note_on', channel=0, note=85, velocity=0, time=0),\n",
       "   Message('note_on', channel=0, note=73, velocity=61, time=256),\n",
       "   Message('note_on', channel=0, note=85, velocity=69, time=0),\n",
       "   Message('note_on', channel=0, note=72, velocity=65, time=308),\n",
       "   Message('note_on', channel=0, note=84, velocity=69, time=0),\n",
       "   Message('note_on', channel=0, note=73, velocity=0, time=17),\n",
       "   Message('note_on', channel=0, note=85, velocity=0, time=27),\n",
       "   Message('note_on', channel=0, note=61, velocity=0, time=140),\n",
       "   Message('note_on', channel=0, note=61, velocity=61, time=0),\n",
       "   Message('note_on', channel=0, note=73, velocity=61, time=0),\n",
       "   Message('note_on', channel=0, note=85, velocity=65, time=0),\n",
       "   Message('note_on', channel=0, note=70, velocity=0, time=71),\n",
       "   Message('note_on', channel=0, note=70, velocity=61, time=0),\n",
       "   Message('note_on', channel=0, note=72, velocity=0, time=0),\n",
       "   Message('note_on', channel=0, note=82, velocity=69, time=0),\n",
       "   Message('note_on', channel=0, note=84, velocity=0, time=0),\n",
       "   Message('note_on', channel=0, note=61, velocity=0, time=57),\n",
       "   Message('note_on', channel=0, note=61, velocity=61, time=0),\n",
       "   Message('note_on', channel=0, note=73, velocity=0, time=0),\n",
       "   Message('note_on', channel=0, note=73, velocity=61, time=0),\n",
       "   Message('note_on', channel=0, note=85, velocity=0, time=0),\n",
       "   Message('note_on', channel=0, note=85, velocity=69, time=0),\n",
       "   Message('note_on', channel=0, note=70, velocity=0, time=13),\n",
       "   Message('note_on', channel=0, note=82, velocity=0, time=0),\n",
       "   Message('note_on', channel=0, note=72, velocity=65, time=57),\n",
       "   Message('note_on', channel=0, note=84, velocity=69, time=0),\n",
       "   Message('note_on', channel=0, note=70, velocity=65, time=58),\n",
       "   Message('note_on', channel=0, note=82, velocity=69, time=0),\n",
       "   Message('note_on', channel=0, note=60, velocity=65, time=294),\n",
       "   Message('note_on', channel=0, note=64, velocity=65, time=0),\n",
       "   Message('note_on', channel=0, note=70, velocity=0, time=14),\n",
       "   Message('note_on', channel=0, note=72, velocity=0, time=0),\n",
       "   Message('note_on', channel=0, note=82, velocity=0, time=0),\n",
       "   Message('note_on', channel=0, note=84, velocity=0, time=0),\n",
       "   Message('note_on', channel=0, note=85, velocity=0, time=0),\n",
       "   Message('note_on', channel=0, note=73, velocity=0, time=13),\n",
       "   Message('note_on', channel=0, note=61, velocity=0, time=242),\n",
       "   Message('note_on', channel=0, note=70, velocity=65, time=673),\n",
       "   Message('note_on', channel=0, note=82, velocity=69, time=0),\n",
       "   Message('note_on', channel=0, note=73, velocity=69, time=255),\n",
       "   Message('note_on', channel=0, note=85, velocity=69, time=0),\n",
       "   Message('note_on', channel=0, note=60, velocity=0, time=211),\n",
       "   Message('note_on', channel=0, note=60, velocity=61, time=0),\n",
       "   Message('note_on', channel=0, note=72, velocity=65, time=0),\n",
       "   Message('note_on', channel=0, note=84, velocity=69, time=0),\n",
       "   Message('note_on', channel=0, note=64, velocity=0, time=14),\n",
       "   Message('note_on', channel=0, note=70, velocity=0, time=0),\n",
       "   Message('note_on', channel=0, note=82, velocity=0, time=0),\n",
       "   Message('note_on', channel=0, note=73, velocity=0, time=13),\n",
       "   Message('note_on', channel=0, note=85, velocity=0, time=0),\n",
       "   Message('note_on', channel=0, note=70, velocity=65, time=576),\n",
       "   Message('note_on', channel=0, note=82, velocity=69, time=0),\n",
       "   Message('note_on', channel=0, note=72, velocity=0, time=18),\n",
       "   Message('note_on', channel=0, note=84, velocity=0, time=13),\n",
       "   Message('note_on', channel=0, note=73, velocity=65, time=198),\n",
       "   Message('note_on', channel=0, note=85, velocity=69, time=0),\n",
       "   Message('note_on', channel=0, note=60, velocity=0, time=167),\n",
       "   Message('note_on', channel=0, note=60, velocity=61, time=0),\n",
       "   Message('note_on', channel=0, note=84, velocity=69, time=0),\n",
       "   Message('note_on', channel=0, note=72, velocity=65, time=13),\n",
       "   Message('note_on', channel=0, note=82, velocity=0, time=0),\n",
       "   Message('note_on', channel=0, note=70, velocity=0, time=14),\n",
       "   Message('note_on', channel=0, note=73, velocity=0, time=0),\n",
       "   Message('note_on', channel=0, note=85, velocity=0, time=17),\n",
       "   Message('note_on', channel=0, note=60, velocity=0, time=436),\n",
       "   Message('note_on', channel=0, note=60, velocity=61, time=0),\n",
       "   Message('note_on', channel=0, note=64, velocity=65, time=0),\n",
       "   Message('note_on', channel=0, note=72, velocity=0, time=0),\n",
       "   Message('note_on', channel=0, note=72, velocity=69, time=0),\n",
       "   Message('note_on', channel=0, note=70, velocity=65, time=589),\n",
       "   Message('note_on', channel=0, note=82, velocity=69, time=0),\n",
       "   Message('note_on', channel=0, note=84, velocity=0, time=44),\n",
       "   Message('note_on', channel=0, note=72, velocity=0, time=97),\n",
       "   Message('note_on', channel=0, note=58, velocity=65, time=198),\n",
       "   Message('note_on', channel=0, note=73, velocity=65, time=0),\n",
       "   Message('note_on', channel=0, note=85, velocity=73, time=0),\n",
       "   Message('note_on', channel=0, note=70, velocity=0, time=27),\n",
       "   Message('note_on', channel=0, note=82, velocity=0, time=0),\n",
       "   Message('note_on', channel=0, note=60, velocity=0, time=17),\n",
       "   Message('note_on', channel=0, note=64, velocity=0, time=0),\n",
       "   Message('note_on', channel=0, note=72, velocity=65, time=519),\n",
       "   Message('note_on', channel=0, note=84, velocity=69, time=0),\n",
       "   Message('note_on', channel=0, note=56, velocity=57, time=449),\n",
       "   Message('note_on', channel=0, note=73, velocity=0, time=0),\n",
       "   Message('note_on', channel=0, note=73, velocity=69, time=0),\n",
       "   Message('note_on', channel=0, note=85, velocity=0, time=0),\n",
       "   Message('note_on', channel=0, note=85, velocity=69, time=0),\n",
       "   Message('note_on', channel=0, note=84, velocity=0, time=31),\n",
       "   Message('note_on', channel=0, note=58, velocity=0, time=13),\n",
       "   Message('note_on', channel=0, note=72, velocity=0, time=0),\n",
       "   Message('note_on', channel=0, note=73, velocity=0, time=13),\n",
       "   Message('note_on', channel=0, note=58, velocity=65, time=154),\n",
       "   Message('note_on', channel=0, note=70, velocity=65, time=0),\n",
       "   Message('note_on', channel=0, note=82, velocity=69, time=0),\n",
       "   Message('note_on', channel=0, note=56, velocity=0, time=31),\n",
       "   Message('note_on', channel=0, note=85, velocity=0, time=0),\n",
       "   Message('note_on', channel=0, note=73, velocity=69, time=339),\n",
       "   Message('note_on', channel=0, note=85, velocity=69, time=0),\n",
       "   Message('note_on', channel=0, note=72, velocity=65, time=295),\n",
       "   Message('note_on', channel=0, note=84, velocity=69, time=0),\n",
       "   Message('note_on', channel=0, note=82, velocity=0, time=13),\n",
       "   Message('note_on', channel=0, note=58, velocity=0, time=154),\n",
       "   Message('note_on', channel=0, note=58, velocity=61, time=0),\n",
       "   Message('note_on', channel=0, note=73, velocity=0, time=0),\n",
       "   Message('note_on', channel=0, note=73, velocity=65, time=0),\n",
       "   Message('note_on', channel=0, note=85, velocity=0, time=0),\n",
       "   Message('note_on', channel=0, note=85, velocity=65, time=0),\n",
       "   Message('note_on', channel=0, note=70, velocity=0, time=57),\n",
       "   Message('note_on', channel=0, note=70, velocity=69, time=0),\n",
       "   Message('note_on', channel=0, note=82, velocity=69, time=0),\n",
       "   Message('note_on', channel=0, note=72, velocity=0, time=27),\n",
       "   Message('note_on', channel=0, note=73, velocity=0, time=0),\n",
       "   Message('note_on', channel=0, note=73, velocity=61, time=0),\n",
       "   Message('note_on', channel=0, note=84, velocity=0, time=0),\n",
       "   Message('note_on', channel=0, note=85, velocity=0, time=0),\n",
       "   Message('note_on', channel=0, note=85, velocity=69, time=0),\n",
       "   Message('note_on', channel=0, note=72, velocity=65, time=57),\n",
       "   Message('note_on', channel=0, note=82, velocity=0, time=0),\n",
       "   Message('note_on', channel=0, note=84, velocity=69, time=0),\n",
       "   Message('note_on', channel=0, note=70, velocity=0, time=13),\n",
       "   Message('note_on', channel=0, note=73, velocity=0, time=0),\n",
       "   Message('note_on', channel=0, note=85, velocity=0, time=0),\n",
       "   Message('note_on', channel=0, note=70, velocity=65, time=44),\n",
       "   Message('note_on', channel=0, note=82, velocity=69, time=0),\n",
       "   Message('note_on', channel=0, note=84, velocity=0, time=0),\n",
       "   Message('note_on', channel=0, note=60, velocity=65, time=268),\n",
       "   Message('note_on', channel=0, note=64, velocity=65, time=0),\n",
       "   Message('note_on', channel=0, note=72, velocity=0, time=0),\n",
       "   Message('note_on', channel=0, note=72, velocity=65, time=0),\n",
       "   Message('note_on', channel=0, note=58, velocity=0, time=27),\n",
       "   Message('note_on', channel=0, note=70, velocity=0, time=0),\n",
       "   Message('note_on', channel=0, note=82, velocity=0, time=0),\n",
       "   Message('note_on', channel=0, note=82, velocity=69, time=1069),\n",
       "   Message('note_on', channel=0, note=70, velocity=65, time=18),\n",
       "   Message('note_on', channel=0, note=72, velocity=0, time=110),\n",
       "   Message('note_on', channel=0, note=73, velocity=65, time=114),\n",
       "   Message('note_on', channel=0, note=85, velocity=69, time=0),\n",
       "   Message('note_on', channel=0, note=60, velocity=0, time=211),\n",
       "   Message('note_on', channel=0, note=60, velocity=61, time=0),\n",
       "   Message('note_on', channel=0, note=84, velocity=69, time=0),\n",
       "   Message('note_on', channel=0, note=72, velocity=69, time=13),\n",
       "   Message('note_on', channel=0, note=82, velocity=0, time=0),\n",
       "   Message('note_on', channel=0, note=70, velocity=0, time=14),\n",
       "   Message('note_on', channel=0, note=73, velocity=0, time=0),\n",
       "   Message('note_on', channel=0, note=85, velocity=0, time=13),\n",
       "   Message('note_on', channel=0, note=70, velocity=65, time=633),\n",
       "   Message('note_on', channel=0, note=82, velocity=69, time=0),\n",
       "   Message('note_on', channel=0, note=85, velocity=69, time=185),\n",
       "   Message('note_on', channel=0, note=73, velocity=65, time=13),\n",
       "   Message('note_on', channel=0, note=84, velocity=0, time=14),\n",
       "   Message('note_on', channel=0, note=72, velocity=0, time=17),\n",
       "   Message('note_on', channel=0, note=60, velocity=0, time=141),\n",
       "   Message('note_on', channel=0, note=60, velocity=65, time=0),\n",
       "   Message('note_on', channel=0, note=64, velocity=0, time=0),\n",
       "   Message('note_on', channel=0, note=72, velocity=65, time=0),\n",
       "   Message('note_on', channel=0, note=84, velocity=69, time=0),\n",
       "   Message('note_on', channel=0, note=70, velocity=0, time=26),\n",
       "   Message('note_on', channel=0, note=73, velocity=0, time=0),\n",
       "   Message('note_on', channel=0, note=82, velocity=0, time=0),\n",
       "   Message('note_on', channel=0, note=85, velocity=0, time=0),\n",
       "   Message('note_on', channel=0, note=60, velocity=0, time=352),\n",
       "   Message('note_on', channel=0, note=60, velocity=65, time=0),\n",
       "   Message('note_on', channel=0, note=64, velocity=65, time=0),\n",
       "   Message('note_on', channel=0, note=72, velocity=0, time=0),\n",
       "   Message('note_on', channel=0, note=72, velocity=69, time=0),\n",
       "   Message('note_on', channel=0, note=70, velocity=69, time=608),\n",
       "   Message('note_on', channel=0, note=82, velocity=69, time=0),\n",
       "   Message('note_on', channel=0, note=84, velocity=0, time=26),\n",
       "   Message('note_on', channel=0, note=68, velocity=65, time=396),\n",
       "   Message('note_on', channel=0, note=80, velocity=73, time=0),\n",
       "   Message('note_on', channel=0, note=72, velocity=0, time=26),\n",
       "   Message('note_on', channel=0, note=70, velocity=0, time=14),\n",
       "   Message('note_on', channel=0, note=70, velocity=65, time=396),\n",
       "   Message('note_on', channel=0, note=82, velocity=0, time=13),\n",
       "   Message('note_on', channel=0, note=82, velocity=69, time=0),\n",
       "   Message('note_on', channel=0, note=64, velocity=0, time=13),\n",
       "   Message('note_on', channel=0, note=68, velocity=0, time=0),\n",
       "   Message('note_on', channel=0, note=80, velocity=0, time=0),\n",
       "   Message('note_on', channel=0, note=68, velocity=65, time=396),\n",
       "   Message('note_on', channel=0, note=80, velocity=69, time=0),\n",
       "   Message('note_on', channel=0, note=60, velocity=0, time=110),\n",
       "   Message('note_on', channel=0, note=82, velocity=0, time=198),\n",
       "   Message('note_on', channel=0, note=67, velocity=61, time=224),\n",
       "   Message('note_on', channel=0, note=79, velocity=69, time=0),\n",
       "   Message('note_on', channel=0, note=70, velocity=0, time=18),\n",
       "   Message('note_on', channel=0, note=80, velocity=0, time=0),\n",
       "   Message('note_on', channel=0, note=68, velocity=0, time=238),\n",
       "   Message('note_on', channel=0, note=60, velocity=61, time=268),\n",
       "   Message('note_on', channel=0, note=64, velocity=61, time=40),\n",
       "   Message('note_on', channel=0, note=67, velocity=0, time=17),\n",
       "   Message('note_on', channel=0, note=67, velocity=61, time=0),\n",
       "   Message('note_on', channel=0, note=72, velocity=69, time=53),\n",
       "   Message('note_on', channel=0, note=79, velocity=0, time=620),\n",
       "   Message('note_on', channel=0, note=67, velocity=0, time=1620),\n",
       "   Message('note_on', channel=0, note=72, velocity=0, time=0),\n",
       "   Message('note_on', channel=0, note=64, velocity=0, time=13),\n",
       "   Message('note_on', channel=0, note=60, velocity=0, time=31),\n",
       "   MetaMessage('end_of_track', time=1)]),\n",
       " MidiTrack([\n",
       "   Message('program_change', channel=1, program=0, time=0),\n",
       "   Message('note_on', channel=1, note=65, velocity=50, time=37),\n",
       "   Message('note_on', channel=1, note=68, velocity=52, time=0),\n",
       "   Message('note_on', channel=1, note=77, velocity=58, time=183),\n",
       "   Message('note_on', channel=1, note=80, velocity=64, time=0),\n",
       "   Message('note_on', channel=1, note=77, velocity=0, time=704),\n",
       "   Message('note_on', channel=1, note=77, velocity=54, time=0),\n",
       "   Message('note_on', channel=1, note=73, velocity=54, time=14),\n",
       "   Message('note_on', channel=1, note=66, velocity=52, time=648),\n",
       "   Message('note_on', channel=1, note=69, velocity=53, time=0),\n",
       "   Message('note_on', channel=1, note=80, velocity=0, time=14),\n",
       "   Message('note_on', channel=1, note=65, velocity=0, time=28),\n",
       "   Message('note_on', channel=1, note=77, velocity=0, time=0),\n",
       "   Message('note_on', channel=1, note=68, velocity=0, time=14),\n",
       "   Message('note_on', channel=1, note=72, velocity=58, time=113),\n",
       "   Message('note_on', channel=1, note=75, velocity=65, time=0),\n",
       "   Message('note_on', channel=1, note=73, velocity=0, time=28),\n",
       "   Message('note_on', channel=1, note=73, velocity=63, time=127),\n",
       "   Message('note_on', channel=1, note=77, velocity=60, time=0),\n",
       "   Message('note_on', channel=1, note=72, velocity=0, time=169),\n",
       "   Message('note_on', channel=1, note=72, velocity=51, time=0),\n",
       "   Message('note_on', channel=1, note=75, velocity=0, time=0),\n",
       "   Message('note_on', channel=1, note=75, velocity=54, time=0),\n",
       "   Message('note_on', channel=1, note=77, velocity=0, time=42),\n",
       "   Message('note_on', channel=1, note=73, velocity=0, time=28),\n",
       "   Message('note_on', channel=1, note=66, velocity=0, time=843),\n",
       "   Message('note_on', channel=1, note=69, velocity=0, time=0),\n",
       "   Message('note_on', channel=1, note=72, velocity=0, time=0),\n",
       "   Message('note_on', channel=1, note=75, velocity=0, time=0),\n",
       "   MetaMessage('end_of_track', time=1)])]"
      ]
     },
     "execution_count": 86,
     "metadata": {},
     "output_type": "execute_result"
    }
   ],
   "source": [
    "mid.tracks"
   ]
  },
  {
   "cell_type": "code",
   "execution_count": 107,
   "id": "funny-tattoo",
   "metadata": {},
   "outputs": [
    {
     "name": "stdout",
     "output_type": "stream",
     "text": [
      "program_change channel=0 program=0 time=0\n",
      "note_on channel=0 note=66 velocity=100 time=3133\n",
      "note_on channel=0 note=69 velocity=100 time=0\n",
      "note_on channel=0 note=72 velocity=61 time=171\n",
      "note_on channel=0 note=75 velocity=65 time=0\n",
      "note_on channel=0 note=73 velocity=57 time=308\n",
      "note_on channel=0 note=77 velocity=57 time=0\n",
      "note_on channel=0 note=69 velocity=0 time=198\n",
      "note_on channel=0 note=69 velocity=49 time=0\n",
      "note_on channel=0 note=72 velocity=0 time=0\n",
      "note_on channel=0 note=72 velocity=57 time=0\n",
      "note_on channel=0 note=73 velocity=0 time=0\n",
      "note_on channel=0 note=75 velocity=0 time=0\n",
      "note_on channel=0 note=75 velocity=61 time=0\n",
      "note_on channel=0 note=77 velocity=0 time=14\n",
      "note_on channel=0 note=80 velocity=61 time=167\n",
      "note_on channel=0 note=66 velocity=0 time=198\n",
      "note_on channel=0 note=69 velocity=0 time=0\n",
      "note_on channel=0 note=72 velocity=0 time=0\n",
      "note_on channel=0 note=75 velocity=0 time=0\n",
      "note_on channel=0 note=80 velocity=0 time=0\n",
      "note_on channel=0 note=62 velocity=37 time=31\n",
      "note_on channel=0 note=72 velocity=53 time=0\n",
      "note_on channel=0 note=82 velocity=57 time=0\n",
      "note_on channel=0 note=67 velocity=45 time=13\n",
      "note_on channel=0 note=67 velocity=0 time=563\n",
      "note_on channel=0 note=67 velocity=45 time=0\n",
      "note_on channel=0 note=72 velocity=0 time=0\n",
      "note_on channel=0 note=72 velocity=41 time=0\n",
      "note_on channel=0 note=82 velocity=0 time=0\n",
      "note_on channel=0 note=82 velocity=57 time=0\n",
      "note_on channel=0 note=62 velocity=0 time=13\n",
      "note_on channel=0 note=62 velocity=41 time=0\n",
      "note_on channel=0 note=80 velocity=53 time=735\n",
      "note_on channel=0 note=61 velocity=49 time=13\n",
      "note_on channel=0 note=67 velocity=0 time=0\n",
      "note_on channel=0 note=67 velocity=53 time=0\n",
      "note_on channel=0 note=70 velocity=53 time=0\n",
      "note_on channel=0 note=72 velocity=0 time=27\n",
      "note_on channel=0 note=62 velocity=0 time=13\n",
      "note_on channel=0 note=82 velocity=0 time=0\n",
      "note_on channel=0 note=60 velocity=41 time=620\n",
      "note_on channel=0 note=63 velocity=45 time=0\n",
      "note_on channel=0 note=68 velocity=49 time=0\n",
      "note_on channel=0 note=80 velocity=0 time=13\n",
      "note_on channel=0 note=70 velocity=0 time=31\n",
      "note_on channel=0 note=61 velocity=0 time=13\n",
      "note_on channel=0 note=67 velocity=0 time=0\n",
      "note_on channel=0 note=70 velocity=53 time=115\n",
      "note_on channel=0 note=72 velocity=53 time=154\n",
      "note_on channel=0 note=70 velocity=0 time=154\n",
      "note_on channel=0 note=70 velocity=49 time=0\n",
      "note_on channel=0 note=72 velocity=0 time=57\n",
      "note_on channel=0 note=68 velocity=0 time=449\n",
      "note_on channel=0 note=68 velocity=45 time=0\n",
      "note_on channel=0 note=60 velocity=0 time=268\n",
      "note_on channel=0 note=63 velocity=0 time=0\n",
      "note_on channel=0 note=68 velocity=0 time=0\n",
      "note_on channel=0 note=70 velocity=0 time=0\n",
      "note_on channel=0 note=60 velocity=49 time=44\n",
      "note_on channel=0 note=67 velocity=53 time=0\n",
      "note_on channel=0 note=70 velocity=53 time=0\n",
      "note_on channel=0 note=60 velocity=0 time=577\n",
      "note_on channel=0 note=60 velocity=49 time=0\n",
      "note_on channel=0 note=67 velocity=0 time=0\n",
      "note_on channel=0 note=67 velocity=49 time=0\n",
      "note_on channel=0 note=70 velocity=0 time=0\n",
      "note_on channel=0 note=70 velocity=53 time=0\n",
      "note_on channel=0 note=73 velocity=57 time=0\n",
      "note_on channel=0 note=68 velocity=49 time=704\n",
      "note_on channel=0 note=60 velocity=0 time=13\n",
      "note_on channel=0 note=60 velocity=49 time=0\n",
      "note_on channel=0 note=63 velocity=49 time=0\n",
      "note_on channel=0 note=67 velocity=0 time=44\n",
      "note_on channel=0 note=70 velocity=0 time=13\n",
      "note_on channel=0 note=73 velocity=0 time=0\n",
      "note_on channel=0 note=65 velocity=45 time=717\n",
      "note_on channel=0 note=68 velocity=0 time=13\n",
      "note_on channel=0 note=68 velocity=41 time=0\n",
      "note_on channel=0 note=85 velocity=57 time=242\n",
      "note_on channel=0 note=77 velocity=49 time=14\n",
      "note_on channel=0 note=60 velocity=0 time=70\n",
      "note_on channel=0 note=68 velocity=0 time=339\n",
      "note_on channel=0 note=61 velocity=33 time=198\n",
      "note_on channel=0 note=89 velocity=61 time=39\n",
      "note_on channel=0 note=73 velocity=53 time=14\n",
      "note_on channel=0 note=77 velocity=0 time=0\n",
      "note_on channel=0 note=77 velocity=53 time=0\n",
      "note_on channel=0 note=63 velocity=0 time=536\n",
      "note_on channel=0 note=61 velocity=0 time=31\n",
      "note_on channel=0 note=85 velocity=0 time=71\n",
      "note_on channel=0 note=68 velocity=45 time=39\n",
      "note_on channel=0 note=73 velocity=0 time=31\n",
      "note_on channel=0 note=73 velocity=45 time=0\n",
      "note_on channel=0 note=65 velocity=0 time=26\n",
      "note_on channel=0 note=89 velocity=0 time=58\n",
      "note_on channel=0 note=80 velocity=49 time=96\n",
      "note_on channel=0 note=87 velocity=57 time=0\n",
      "note_on channel=0 note=85 velocity=57 time=339\n",
      "note_on channel=0 note=87 velocity=0 time=44\n",
      "note_on channel=0 note=77 velocity=0 time=123\n",
      "note_on channel=0 note=73 velocity=0 time=242\n",
      "note_on channel=0 note=73 velocity=45 time=0\n",
      "note_on channel=0 note=77 velocity=53 time=0\n",
      "note_on channel=0 note=62 velocity=37 time=14\n",
      "note_on channel=0 note=68 velocity=0 time=0\n",
      "note_on channel=0 note=68 velocity=41 time=0\n",
      "note_on channel=0 note=85 velocity=0 time=0\n",
      "note_on channel=0 note=63 velocity=37 time=589\n",
      "note_on channel=0 note=67 velocity=41 time=0\n",
      "note_on channel=0 note=70 velocity=41 time=0\n",
      "note_on channel=0 note=62 velocity=0 time=18\n",
      "note_on channel=0 note=68 velocity=0 time=0\n",
      "note_on channel=0 note=73 velocity=0 time=0\n",
      "note_on channel=0 note=80 velocity=0 time=13\n",
      "note_on channel=0 note=77 velocity=0 time=13\n",
      "note_on channel=0 note=72 velocity=45 time=115\n",
      "note_on channel=0 note=73 velocity=41 time=154\n",
      "note_on channel=0 note=72 velocity=0 time=154\n",
      "note_on channel=0 note=72 velocity=37 time=0\n",
      "note_on channel=0 note=63 velocity=0 time=448\n",
      "note_on channel=0 note=70 velocity=0 time=0\n",
      "note_on channel=0 note=70 velocity=37 time=0\n",
      "note_on channel=0 note=72 velocity=0 time=198\n",
      "note_on channel=0 note=67 velocity=0 time=31\n",
      "note_on channel=0 note=73 velocity=0 time=0\n",
      "note_on channel=0 note=77 velocity=49 time=40\n",
      "note_on channel=0 note=63 velocity=33 time=13\n",
      "note_on channel=0 note=67 velocity=33 time=0\n",
      "note_on channel=0 note=70 velocity=0 time=0\n",
      "note_on channel=0 note=70 velocity=37 time=0\n",
      "note_on channel=0 note=73 velocity=49 time=229\n",
      "note_on channel=0 note=77 velocity=0 time=180\n",
      "note_on channel=0 note=75 velocity=53 time=13\n",
      "note_on channel=0 note=63 velocity=0 time=493\n",
      "note_on channel=0 note=70 velocity=0 time=18\n",
      "note_on channel=0 note=67 velocity=0 time=39\n",
      "note_on channel=0 note=56 velocity=37 time=454\n",
      "note_on channel=0 note=60 velocity=41 time=0\n",
      "note_on channel=0 note=63 velocity=49 time=0\n",
      "note_on channel=0 note=68 velocity=53 time=0\n",
      "note_on channel=0 note=73 velocity=0 time=26\n",
      "note_on channel=0 note=70 velocity=53 time=128\n",
      "note_on channel=0 note=75 velocity=0 time=26\n",
      "note_on channel=0 note=72 velocity=53 time=141\n",
      "note_on channel=0 note=70 velocity=0 time=185\n",
      "note_on channel=0 note=70 velocity=53 time=0\n",
      "note_on channel=0 note=56 velocity=0 time=519\n",
      "note_on channel=0 note=56 velocity=33 time=0\n",
      "note_on channel=0 note=68 velocity=0 time=13\n",
      "note_on channel=0 note=68 velocity=45 time=0\n",
      "note_on channel=0 note=56 velocity=0 time=268\n",
      "note_on channel=0 note=60 velocity=0 time=0\n",
      "note_on channel=0 note=63 velocity=0 time=0\n",
      "note_on channel=0 note=68 velocity=0 time=0\n",
      "note_on channel=0 note=70 velocity=0 time=0\n",
      "note_on channel=0 note=72 velocity=0 time=0\n",
      "note_on channel=0 note=60 velocity=45 time=84\n",
      "note_on channel=0 note=70 velocity=53 time=0\n",
      "note_on channel=0 note=53 velocity=41 time=18\n",
      "note_on channel=0 note=56 velocity=37 time=0\n",
      "note_on channel=0 note=73 velocity=57 time=0\n",
      "note_on channel=0 note=68 velocity=57 time=616\n",
      "note_on channel=0 note=72 velocity=57 time=0\n",
      "note_on channel=0 note=60 velocity=0 time=17\n",
      "note_on channel=0 note=60 velocity=41 time=0\n",
      "note_on channel=0 note=70 velocity=0 time=53\n",
      "note_on channel=0 note=73 velocity=0 time=0\n",
      "note_on channel=0 note=56 velocity=0 time=57\n",
      "note_on channel=0 note=60 velocity=0 time=550\n",
      "note_on channel=0 note=68 velocity=0 time=0\n",
      "note_on channel=0 note=53 velocity=0 time=13\n",
      "note_on channel=0 note=72 velocity=0 time=14\n",
      "note_on channel=0 note=56 velocity=41 time=30\n",
      "note_on channel=0 note=60 velocity=45 time=0\n",
      "note_on channel=0 note=67 velocity=49 time=0\n",
      "note_on channel=0 note=70 velocity=53 time=0\n",
      "note_on channel=0 note=56 velocity=0 time=647\n",
      "note_on channel=0 note=56 velocity=45 time=0\n",
      "note_on channel=0 note=67 velocity=0 time=0\n",
      "note_on channel=0 note=67 velocity=53 time=0\n",
      "note_on channel=0 note=70 velocity=0 time=0\n"
     ]
    },
    {
     "name": "stdout",
     "output_type": "stream",
     "text": [
      "note_on channel=0 note=70 velocity=49 time=0\n",
      "note_on channel=0 note=73 velocity=53 time=0\n",
      "note_on channel=0 note=55 velocity=49 time=691\n",
      "note_on channel=0 note=72 velocity=45 time=466\n",
      "note_on channel=0 note=73 velocity=0 time=264\n",
      "note_on channel=0 note=67 velocity=0 time=256\n",
      "note_on channel=0 note=73 velocity=45 time=0\n",
      "note_on channel=0 note=70 velocity=0 time=211\n",
      "note_on channel=0 note=70 velocity=53 time=0\n",
      "note_on channel=0 note=72 velocity=0 time=44\n",
      "note_on channel=0 note=56 velocity=0 time=167\n",
      "note_on channel=0 note=73 velocity=0 time=13\n",
      "note_on channel=0 note=73 velocity=53 time=0\n",
      "note_on channel=0 note=70 velocity=0 time=13\n",
      "note_on channel=0 note=70 velocity=33 time=0\n",
      "note_on channel=0 note=72 velocity=53 time=172\n",
      "note_on channel=0 note=70 velocity=0 time=40\n",
      "note_on channel=0 note=73 velocity=0 time=0\n",
      "note_on channel=0 note=60 velocity=0 time=30\n",
      "note_on channel=0 note=70 velocity=53 time=128\n",
      "note_on channel=0 note=72 velocity=0 time=26\n",
      "note_on channel=0 note=55 velocity=0 time=14\n",
      "note_on channel=0 note=53 velocity=41 time=1650\n",
      "note_on channel=0 note=56 velocity=41 time=0\n",
      "note_on channel=0 note=60 velocity=41 time=0\n",
      "note_on channel=0 note=68 velocity=49 time=0\n",
      "note_on channel=0 note=70 velocity=0 time=70\n",
      "note_on channel=0 note=70 velocity=45 time=40\n",
      "note_on channel=0 note=68 velocity=0 time=83\n",
      "note_on channel=0 note=68 velocity=41 time=0\n",
      "note_on channel=0 note=70 velocity=0 time=88\n",
      "note_on channel=0 note=70 velocity=49 time=0\n",
      "note_on channel=0 note=68 velocity=0 time=97\n",
      "note_on channel=0 note=68 velocity=41 time=0\n",
      "note_on channel=0 note=70 velocity=0 time=84\n",
      "note_on channel=0 note=70 velocity=49 time=0\n",
      "note_on channel=0 note=56 velocity=0 time=101\n",
      "note_on channel=0 note=56 velocity=37 time=0\n",
      "note_on channel=0 note=60 velocity=0 time=0\n",
      "note_on channel=0 note=60 velocity=45 time=0\n",
      "note_on channel=0 note=68 velocity=0 time=0\n",
      "note_on channel=0 note=68 velocity=53 time=0\n",
      "note_on channel=0 note=72 velocity=53 time=97\n",
      "note_on channel=0 note=70 velocity=0 time=96\n",
      "note_on channel=0 note=70 velocity=37 time=0\n",
      "note_on channel=0 note=68 velocity=0 time=88\n",
      "note_on channel=0 note=68 velocity=45 time=0\n",
      "note_on channel=0 note=70 velocity=0 time=84\n",
      "note_on channel=0 note=70 velocity=53 time=0\n",
      "note_on channel=0 note=68 velocity=0 time=97\n",
      "note_on channel=0 note=68 velocity=45 time=0\n",
      "note_on channel=0 note=67 velocity=49 time=83\n",
      "note_on channel=0 note=51 velocity=33 time=18\n",
      "note_on channel=0 note=55 velocity=33 time=0\n",
      "note_on channel=0 note=60 velocity=0 time=0\n",
      "note_on channel=0 note=60 velocity=29 time=0\n",
      "note_on channel=0 note=70 velocity=0 time=0\n",
      "note_on channel=0 note=72 velocity=0 time=0\n",
      "note_on channel=0 note=53 velocity=0 time=13\n",
      "note_on channel=0 note=56 velocity=0 time=0\n",
      "note_on channel=0 note=68 velocity=0 time=0\n",
      "note_on channel=0 note=68 velocity=41 time=84\n",
      "note_on channel=0 note=67 velocity=0 time=83\n",
      "note_on channel=0 note=67 velocity=41 time=0\n",
      "note_on channel=0 note=68 velocity=0 time=102\n",
      "note_on channel=0 note=68 velocity=37 time=0\n",
      "note_on channel=0 note=67 velocity=0 time=83\n",
      "note_on channel=0 note=67 velocity=37 time=0\n",
      "note_on channel=0 note=68 velocity=0 time=97\n",
      "note_on channel=0 note=68 velocity=45 time=0\n",
      "note_on channel=0 note=67 velocity=0 time=84\n",
      "note_on channel=0 note=67 velocity=49 time=0\n",
      "note_on channel=0 note=60 velocity=0 time=17\n",
      "note_on channel=0 note=60 velocity=37 time=0\n",
      "note_on channel=0 note=70 velocity=49 time=84\n",
      "note_on channel=0 note=51 velocity=0 time=13\n",
      "note_on channel=0 note=68 velocity=0 time=84\n",
      "note_on channel=0 note=68 velocity=45 time=0\n",
      "note_on channel=0 note=67 velocity=0 time=83\n",
      "note_on channel=0 note=67 velocity=45 time=0\n",
      "note_on channel=0 note=68 velocity=0 time=101\n",
      "note_on channel=0 note=68 velocity=49 time=0\n",
      "note_on channel=0 note=70 velocity=0 time=14\n",
      "note_on channel=0 note=60 velocity=0 time=70\n",
      "note_on channel=0 note=67 velocity=0 time=0\n",
      "note_on channel=0 note=67 velocity=49 time=0\n",
      "note_on channel=0 note=68 velocity=0 time=13\n",
      "note_on channel=0 note=55 velocity=0 time=13\n",
      "note_on channel=0 note=49 velocity=41 time=71\n",
      "note_on channel=0 note=53 velocity=49 time=0\n",
      "note_on channel=0 note=56 velocity=45 time=0\n",
      "note_on channel=0 note=65 velocity=49 time=0\n",
      "note_on channel=0 note=67 velocity=0 time=88\n",
      "note_on channel=0 note=67 velocity=41 time=0\n",
      "note_on channel=0 note=65 velocity=0 time=83\n",
      "note_on channel=0 note=65 velocity=37 time=0\n",
      "note_on channel=0 note=67 velocity=0 time=97\n",
      "note_on channel=0 note=67 velocity=49 time=0\n",
      "note_on channel=0 note=65 velocity=0 time=84\n",
      "note_on channel=0 note=65 velocity=45 time=0\n",
      "note_on channel=0 note=67 velocity=0 time=101\n",
      "note_on channel=0 note=67 velocity=49 time=0\n",
      "note_on channel=0 note=65 velocity=0 time=84\n",
      "note_on channel=0 note=65 velocity=41 time=0\n",
      "note_on channel=0 note=49 velocity=0 time=13\n",
      "note_on channel=0 note=49 velocity=33 time=0\n",
      "note_on channel=0 note=53 velocity=0 time=0\n",
      "note_on channel=0 note=53 velocity=33 time=0\n",
      "note_on channel=0 note=56 velocity=0 time=0\n",
      "note_on channel=0 note=56 velocity=37 time=0\n",
      "note_on channel=0 note=68 velocity=45 time=83\n",
      "note_on channel=0 note=67 velocity=0 time=102\n",
      "note_on channel=0 note=67 velocity=45 time=0\n",
      "note_on channel=0 note=65 velocity=0 time=13\n",
      "note_on channel=0 note=65 velocity=37 time=70\n",
      "note_on channel=0 note=68 velocity=0 time=13\n",
      "note_on channel=0 note=67 velocity=0 time=71\n",
      "note_on channel=0 note=67 velocity=45 time=0\n",
      "note_on channel=0 note=65 velocity=0 time=114\n",
      "note_on channel=0 note=65 velocity=45 time=0\n",
      "note_on channel=0 note=58 velocity=41 time=84\n",
      "note_on channel=0 note=63 velocity=53 time=0\n",
      "note_on channel=0 note=51 velocity=33 time=13\n",
      "note_on channel=0 note=55 velocity=33 time=0\n",
      "note_on channel=0 note=67 velocity=0 time=0\n",
      "note_on channel=0 note=65 velocity=0 time=13\n",
      "note_on channel=0 note=56 velocity=0 time=18\n",
      "note_on channel=0 note=53 velocity=0 time=13\n",
      "note_on channel=0 note=63 velocity=0 time=13\n",
      "note_on channel=0 note=65 velocity=37 time=27\n",
      "note_on channel=0 note=63 velocity=37 time=101\n",
      "note_on channel=0 note=65 velocity=0 time=83\n",
      "note_on channel=0 note=65 velocity=49 time=0\n",
      "note_on channel=0 note=63 velocity=0 time=27\n",
      "note_on channel=0 note=63 velocity=45 time=70\n",
      "note_on channel=0 note=65 velocity=0 time=31\n",
      "note_on channel=0 note=65 velocity=41 time=57\n",
      "note_on channel=0 note=63 velocity=0 time=53\n",
      "note_on channel=0 note=63 velocity=41 time=44\n",
      "note_on channel=0 note=55 velocity=0 time=13\n",
      "note_on channel=0 note=55 velocity=33 time=0\n",
      "note_on channel=0 note=58 velocity=0 time=0\n",
      "note_on channel=0 note=58 velocity=25 time=0\n",
      "note_on channel=0 note=49 velocity=0 time=13\n",
      "note_on channel=0 note=49 velocity=25 time=0\n",
      "note_on channel=0 note=63 velocity=0 time=383\n",
      "note_on channel=0 note=63 velocity=49 time=0\n",
      "note_on channel=0 note=44 velocity=41 time=225\n",
      "note_on channel=0 note=48 velocity=41 time=0\n",
      "note_on channel=0 note=68 velocity=57 time=0\n",
      "note_on channel=0 note=51 velocity=0 time=26\n",
      "note_on channel=0 note=55 velocity=0 time=0\n",
      "note_on channel=0 note=58 velocity=0 time=0\n",
      "note_on channel=0 note=65 velocity=0 time=0\n",
      "note_on channel=0 note=49 velocity=0 time=18\n",
      "note_on channel=0 note=51 velocity=49 time=140\n",
      "note_on channel=0 note=56 velocity=45 time=168\n",
      "note_on channel=0 note=70 velocity=53 time=0\n",
      "note_on channel=0 note=51 velocity=0 time=184\n",
      "note_on channel=0 note=51 velocity=41 time=0\n",
      "note_on channel=0 note=68 velocity=0 time=0\n",
      "note_on channel=0 note=68 velocity=57 time=0\n",
      "note_on channel=0 note=56 velocity=0 time=168\n",
      "note_on channel=0 note=56 velocity=49 time=0\n",
      "note_on channel=0 note=51 velocity=0 time=184\n",
      "note_on channel=0 note=51 velocity=49 time=0\n",
      "note_on channel=0 note=48 velocity=0 time=168\n",
      "note_on channel=0 note=48 velocity=53 time=0\n",
      "note_on channel=0 note=44 velocity=0 time=26\n",
      "note_on channel=0 note=56 velocity=0 time=0\n",
      "note_on channel=0 note=68 velocity=0 time=0\n",
      "note_on channel=0 note=70 velocity=0 time=0\n",
      "note_on channel=0 note=51 velocity=0 time=18\n",
      "note_on channel=0 note=63 velocity=0 time=0\n",
      "note_on channel=0 note=51 velocity=53 time=154\n",
      "note_on channel=0 note=56 velocity=49 time=167\n",
      "note_on channel=0 note=51 velocity=0 time=185\n",
      "note_on channel=0 note=51 velocity=49 time=0\n",
      "note_on channel=0 note=56 velocity=0 time=154\n",
      "note_on channel=0 note=56 velocity=49 time=0\n",
      "note_on channel=0 note=51 velocity=0 time=184\n",
      "note_on channel=0 note=51 velocity=49 time=0\n"
     ]
    },
    {
     "name": "stdout",
     "output_type": "stream",
     "text": [
      "note_on channel=0 note=73 velocity=53 time=0\n",
      "note_on channel=0 note=48 velocity=0 time=168\n",
      "note_on channel=0 note=48 velocity=45 time=0\n",
      "note_on channel=0 note=70 velocity=49 time=13\n",
      "note_on channel=0 note=48 velocity=0 time=31\n",
      "note_on channel=0 note=51 velocity=0 time=0\n",
      "note_on channel=0 note=73 velocity=0 time=0\n",
      "note_on channel=0 note=56 velocity=0 time=13\n",
      "note_on channel=0 note=73 velocity=49 time=141\n",
      "note_on channel=0 note=56 velocity=49 time=39\n",
      "note_on channel=0 note=72 velocity=49 time=128\n",
      "note_on channel=0 note=51 velocity=41 time=13\n",
      "note_on channel=0 note=70 velocity=0 time=172\n",
      "note_on channel=0 note=70 velocity=53 time=0\n",
      "note_on channel=0 note=41 velocity=37 time=13\n",
      "note_on channel=0 note=51 velocity=0 time=0\n",
      "note_on channel=0 note=56 velocity=0 time=0\n",
      "note_on channel=0 note=72 velocity=0 time=0\n",
      "note_on channel=0 note=73 velocity=0 time=0\n",
      "note_on channel=0 note=48 velocity=45 time=167\n",
      "note_on channel=0 note=53 velocity=53 time=185\n",
      "note_on channel=0 note=48 velocity=0 time=167\n",
      "note_on channel=0 note=48 velocity=45 time=0\n",
      "note_on channel=0 note=53 velocity=0 time=172\n",
      "note_on channel=0 note=53 velocity=45 time=0\n",
      "note_on channel=0 note=48 velocity=0 time=180\n",
      "note_on channel=0 note=48 velocity=41 time=0\n",
      "note_on channel=0 note=68 velocity=57 time=0\n",
      "note_on channel=0 note=67 velocity=49 time=185\n",
      "note_on channel=0 note=41 velocity=0 time=13\n",
      "note_on channel=0 note=46 velocity=29 time=0\n",
      "note_on channel=0 note=48 velocity=0 time=0\n",
      "note_on channel=0 note=53 velocity=0 time=0\n",
      "note_on channel=0 note=70 velocity=0 time=0\n",
      "note_on channel=0 note=68 velocity=0 time=13\n",
      "note_on channel=0 note=53 velocity=37 time=159\n",
      "note_on channel=0 note=58 velocity=45 time=180\n",
      "note_on channel=0 note=53 velocity=0 time=172\n",
      "note_on channel=0 note=53 velocity=49 time=0\n",
      "note_on channel=0 note=65 velocity=57 time=0\n",
      "note_on channel=0 note=58 velocity=0 time=167\n",
      "note_on channel=0 note=58 velocity=45 time=0\n",
      "note_on channel=0 note=53 velocity=0 time=167\n",
      "note_on channel=0 note=53 velocity=49 time=0\n",
      "note_on channel=0 note=44 velocity=45 time=185\n",
      "note_on channel=0 note=46 velocity=0 time=26\n",
      "note_on channel=0 note=53 velocity=0 time=0\n",
      "note_on channel=0 note=58 velocity=0 time=0\n",
      "note_on channel=0 note=67 velocity=0 time=0\n",
      "note_on channel=0 note=65 velocity=0 time=18\n",
      "note_on channel=0 note=48 velocity=45 time=154\n",
      "note_on channel=0 note=53 velocity=53 time=167\n",
      "note_on channel=0 note=65 velocity=57 time=0\n",
      "note_on channel=0 note=68 velocity=57 time=154\n",
      "note_on channel=0 note=48 velocity=0 time=18\n",
      "note_on channel=0 note=48 velocity=41 time=0\n",
      "note_on channel=0 note=53 velocity=0 time=167\n",
      "note_on channel=0 note=53 velocity=49 time=0\n",
      "note_on channel=0 note=70 velocity=57 time=0\n",
      "note_on channel=0 note=65 velocity=0 time=83\n",
      "note_on channel=0 note=68 velocity=0 time=58\n",
      "note_on channel=0 note=48 velocity=0 time=26\n",
      "note_on channel=0 note=48 velocity=45 time=0\n",
      "note_on channel=0 note=68 velocity=57 time=0\n",
      "note_on channel=0 note=67 velocity=53 time=172\n",
      "note_on channel=0 note=46 velocity=41 time=13\n",
      "note_on channel=0 note=44 velocity=0 time=13\n",
      "note_on channel=0 note=48 velocity=0 time=0\n",
      "note_on channel=0 note=53 velocity=0 time=0\n",
      "note_on channel=0 note=68 velocity=0 time=0\n",
      "note_on channel=0 note=70 velocity=0 time=44\n",
      "note_on channel=0 note=53 velocity=45 time=110\n",
      "note_on channel=0 note=58 velocity=45 time=172\n",
      "note_on channel=0 note=65 velocity=49 time=154\n",
      "note_on channel=0 note=53 velocity=0 time=13\n",
      "note_on channel=0 note=53 velocity=41 time=0\n",
      "note_on channel=0 note=58 velocity=0 time=154\n",
      "note_on channel=0 note=58 velocity=41 time=0\n",
      "note_on channel=0 note=53 velocity=0 time=185\n",
      "note_on channel=0 note=53 velocity=45 time=0\n",
      "note_on channel=0 note=44 velocity=41 time=167\n",
      "note_on channel=0 note=67 velocity=0 time=44\n",
      "note_on channel=0 note=46 velocity=0 time=13\n",
      "note_on channel=0 note=53 velocity=0 time=0\n",
      "note_on channel=0 note=58 velocity=0 time=0\n",
      "note_on channel=0 note=65 velocity=0 time=13\n",
      "note_on channel=0 note=48 velocity=41 time=115\n",
      "note_on channel=0 note=65 velocity=57 time=167\n",
      "note_on channel=0 note=53 velocity=49 time=17\n",
      "note_on channel=0 note=48 velocity=0 time=154\n",
      "note_on channel=0 note=48 velocity=37 time=0\n",
      "note_on channel=0 note=68 velocity=53 time=0\n",
      "note_on channel=0 note=53 velocity=0 time=168\n",
      "note_on channel=0 note=53 velocity=49 time=0\n",
      "note_on channel=0 note=70 velocity=53 time=0\n",
      "note_on channel=0 note=48 velocity=0 time=171\n",
      "note_on channel=0 note=48 velocity=45 time=0\n",
      "note_on channel=0 note=68 velocity=0 time=0\n",
      "note_on channel=0 note=68 velocity=53 time=0\n",
      "note_on channel=0 note=46 velocity=41 time=167\n",
      "note_on channel=0 note=67 velocity=53 time=0\n",
      "note_on channel=0 note=44 velocity=0 time=27\n",
      "note_on channel=0 note=48 velocity=0 time=0\n",
      "note_on channel=0 note=53 velocity=0 time=0\n",
      "note_on channel=0 note=65 velocity=0 time=0\n",
      "note_on channel=0 note=68 velocity=0 time=0\n",
      "note_on channel=0 note=70 velocity=0 time=44\n",
      "note_on channel=0 note=53 velocity=41 time=114\n",
      "note_on channel=0 note=58 velocity=33 time=181\n",
      "note_on channel=0 note=65 velocity=49 time=154\n",
      "note_on channel=0 note=53 velocity=0 time=17\n",
      "note_on channel=0 note=53 velocity=41 time=0\n",
      "note_on channel=0 note=58 velocity=0 time=154\n",
      "note_on channel=0 note=58 velocity=41 time=0\n",
      "note_on channel=0 note=53 velocity=0 time=167\n",
      "note_on channel=0 note=53 velocity=45 time=0\n",
      "note_on channel=0 note=49 velocity=49 time=185\n",
      "note_on channel=0 note=46 velocity=0 time=13\n",
      "note_on channel=0 note=53 velocity=0 time=14\n",
      "note_on channel=0 note=58 velocity=0 time=0\n",
      "note_on channel=0 note=65 velocity=0 time=0\n",
      "note_on channel=0 note=67 velocity=0 time=0\n",
      "note_on channel=0 note=53 velocity=53 time=140\n",
      "note_on channel=0 note=65 velocity=57 time=0\n",
      "note_on channel=0 note=56 velocity=45 time=172\n",
      "note_on channel=0 note=67 velocity=53 time=0\n",
      "note_on channel=0 note=53 velocity=0 time=167\n",
      "note_on channel=0 note=53 velocity=45 time=0\n",
      "note_on channel=0 note=68 velocity=53 time=0\n",
      "note_on channel=0 note=49 velocity=0 time=27\n",
      "note_on channel=0 note=56 velocity=0 time=0\n",
      "note_on channel=0 note=65 velocity=0 time=0\n",
      "note_on channel=0 note=67 velocity=0 time=0\n",
      "note_on channel=0 note=68 velocity=0 time=114\n",
      "note_on channel=0 note=56 velocity=45 time=26\n",
      "note_on channel=0 note=53 velocity=0 time=172\n",
      "note_on channel=0 note=53 velocity=41 time=0\n",
      "note_on channel=0 note=70 velocity=53 time=0\n",
      "note_on channel=0 note=51 velocity=45 time=167\n",
      "note_on channel=0 note=68 velocity=53 time=0\n",
      "note_on channel=0 note=53 velocity=0 time=44\n",
      "note_on channel=0 note=56 velocity=0 time=0\n",
      "note_on channel=0 note=70 velocity=0 time=0\n",
      "note_on channel=0 note=55 velocity=49 time=110\n",
      "note_on channel=0 note=58 velocity=49 time=185\n",
      "note_on channel=0 note=68 velocity=0 time=0\n",
      "note_on channel=0 note=68 velocity=53 time=0\n",
      "note_on channel=0 note=55 velocity=0 time=167\n",
      "note_on channel=0 note=55 velocity=49 time=0\n",
      "note_on channel=0 note=67 velocity=53 time=0\n",
      "note_on channel=0 note=58 velocity=0 time=172\n",
      "note_on channel=0 note=58 velocity=41 time=0\n",
      "note_on channel=0 note=65 velocity=53 time=0\n",
      "note_on channel=0 note=68 velocity=0 time=26\n",
      "note_on channel=0 note=63 velocity=53 time=115\n",
      "note_on channel=0 note=55 velocity=0 time=13\n",
      "note_on channel=0 note=55 velocity=49 time=0\n",
      "note_on channel=0 note=58 velocity=0 time=167\n",
      "note_on channel=0 note=63 velocity=0 time=0\n",
      "note_on channel=0 note=65 velocity=0 time=0\n",
      "note_on channel=0 note=51 velocity=0 time=18\n",
      "note_on channel=0 note=54 velocity=41 time=0\n",
      "note_on channel=0 note=55 velocity=0 time=0\n",
      "note_on channel=0 note=61 velocity=41 time=0\n",
      "note_on channel=0 note=67 velocity=0 time=0\n",
      "note_on channel=0 note=58 velocity=37 time=13\n",
      "note_on channel=0 note=54 velocity=0 time=352\n",
      "note_on channel=0 note=54 velocity=53 time=0\n",
      "note_on channel=0 note=58 velocity=0 time=0\n",
      "note_on channel=0 note=58 velocity=49 time=0\n",
      "note_on channel=0 note=61 velocity=0 time=0\n",
      "note_on channel=0 note=61 velocity=53 time=0\n",
      "note_on channel=0 note=65 velocity=57 time=0\n",
      "note_on channel=0 note=61 velocity=0 time=378\n",
      "note_on channel=0 note=61 velocity=45 time=0\n",
      "note_on channel=0 note=66 velocity=57 time=0\n",
      "note_on channel=0 note=54 velocity=0 time=13\n",
      "note_on channel=0 note=54 velocity=49 time=0\n",
      "note_on channel=0 note=58 velocity=0 time=0\n",
      "note_on channel=0 note=58 velocity=49 time=0\n",
      "note_on channel=0 note=65 velocity=0 time=31\n"
     ]
    },
    {
     "name": "stdout",
     "output_type": "stream",
     "text": [
      "note_on channel=0 note=54 velocity=0 time=321\n",
      "note_on channel=0 note=54 velocity=45 time=0\n",
      "note_on channel=0 note=58 velocity=0 time=0\n",
      "note_on channel=0 note=58 velocity=49 time=0\n",
      "note_on channel=0 note=61 velocity=0 time=18\n",
      "note_on channel=0 note=61 velocity=49 time=0\n",
      "note_on channel=0 note=54 velocity=0 time=378\n",
      "note_on channel=0 note=58 velocity=0 time=0\n",
      "note_on channel=0 note=58 velocity=53 time=0\n",
      "note_on channel=0 note=61 velocity=0 time=0\n",
      "note_on channel=0 note=61 velocity=49 time=0\n",
      "note_on channel=0 note=65 velocity=57 time=0\n",
      "note_on channel=0 note=66 velocity=0 time=0\n",
      "note_on channel=0 note=51 velocity=49 time=14\n",
      "note_on channel=0 note=58 velocity=0 time=396\n",
      "note_on channel=0 note=58 velocity=53 time=0\n",
      "note_on channel=0 note=61 velocity=0 time=0\n",
      "note_on channel=0 note=61 velocity=57 time=0\n",
      "note_on channel=0 note=68 velocity=57 time=0\n",
      "note_on channel=0 note=51 velocity=0 time=13\n",
      "note_on channel=0 note=51 velocity=53 time=0\n",
      "note_on channel=0 note=65 velocity=0 time=0\n",
      "note_on channel=0 note=65 velocity=53 time=0\n",
      "note_on channel=0 note=58 velocity=0 time=396\n",
      "note_on channel=0 note=58 velocity=45 time=0\n",
      "note_on channel=0 note=61 velocity=0 time=0\n",
      "note_on channel=0 note=61 velocity=45 time=0\n",
      "note_on channel=0 note=66 velocity=57 time=0\n",
      "note_on channel=0 note=70 velocity=53 time=0\n",
      "note_on channel=0 note=51 velocity=0 time=26\n",
      "note_on channel=0 note=51 velocity=49 time=0\n",
      "note_on channel=0 note=65 velocity=0 time=0\n",
      "note_on channel=0 note=70 velocity=0 time=0\n",
      "note_on channel=0 note=68 velocity=0 time=13\n",
      "note_on channel=0 note=63 velocity=57 time=423\n",
      "note_on channel=0 note=58 velocity=0 time=83\n",
      "note_on channel=0 note=61 velocity=0 time=18\n",
      "note_on channel=0 note=66 velocity=0 time=0\n",
      "note_on channel=0 note=51 velocity=0 time=84\n",
      "note_on channel=0 note=63 velocity=0 time=96\n",
      "note_on channel=0 note=49 velocity=49 time=282\n",
      "note_on channel=0 note=68 velocity=57 time=0\n",
      "note_on channel=0 note=53 velocity=49 time=172\n",
      "note_on channel=0 note=56 velocity=41 time=154\n",
      "note_on channel=0 note=53 velocity=0 time=180\n",
      "note_on channel=0 note=53 velocity=49 time=0\n",
      "note_on channel=0 note=61 velocity=49 time=185\n",
      "note_on channel=0 note=56 velocity=0 time=167\n",
      "note_on channel=0 note=56 velocity=41 time=0\n",
      "note_on channel=0 note=53 velocity=0 time=154\n",
      "note_on channel=0 note=53 velocity=49 time=0\n",
      "note_on channel=0 note=49 velocity=0 time=172\n",
      "note_on channel=0 note=49 velocity=53 time=0\n",
      "note_on channel=0 note=53 velocity=0 time=26\n",
      "note_on channel=0 note=56 velocity=0 time=0\n",
      "note_on channel=0 note=68 velocity=0 time=0\n",
      "note_on channel=0 note=53 velocity=45 time=141\n",
      "note_on channel=0 note=56 velocity=45 time=154\n",
      "note_on channel=0 note=53 velocity=0 time=171\n",
      "note_on channel=0 note=53 velocity=45 time=0\n",
      "note_on channel=0 note=61 velocity=0 time=154\n",
      "note_on channel=0 note=61 velocity=49 time=0\n",
      "note_on channel=0 note=56 velocity=0 time=168\n",
      "note_on channel=0 note=56 velocity=41 time=0\n",
      "note_on channel=0 note=73 velocity=53 time=0\n",
      "note_on channel=0 note=53 velocity=0 time=171\n",
      "note_on channel=0 note=53 velocity=45 time=0\n",
      "note_on channel=0 note=69 velocity=45 time=13\n",
      "note_on channel=0 note=70 velocity=53 time=141\n",
      "note_on channel=0 note=48 velocity=37 time=13\n",
      "note_on channel=0 note=49 velocity=0 time=14\n",
      "note_on channel=0 note=56 velocity=0 time=0\n",
      "note_on channel=0 note=61 velocity=0 time=0\n",
      "note_on channel=0 note=53 velocity=0 time=17\n",
      "note_on channel=0 note=69 velocity=0 time=0\n",
      "note_on channel=0 note=73 velocity=0 time=0\n",
      "note_on channel=0 note=51 velocity=41 time=123\n",
      "note_on channel=0 note=56 velocity=45 time=172\n",
      "note_on channel=0 note=51 velocity=0 time=167\n",
      "note_on channel=0 note=51 velocity=49 time=0\n",
      "note_on channel=0 note=63 velocity=49 time=154\n",
      "note_on channel=0 note=70 velocity=0 time=0\n",
      "note_on channel=0 note=48 velocity=0 time=18\n",
      "note_on channel=0 note=51 velocity=0 time=0\n",
      "note_on channel=0 note=56 velocity=0 time=0\n",
      "note_on channel=0 note=56 velocity=37 time=154\n",
      "note_on channel=0 note=51 velocity=45 time=154\n",
      "note_on channel=0 note=48 velocity=41 time=167\n",
      "note_on channel=0 note=51 velocity=0 time=18\n",
      "note_on channel=0 note=56 velocity=0 time=13\n",
      "note_on channel=0 note=51 velocity=45 time=141\n",
      "note_on channel=0 note=56 velocity=41 time=167\n",
      "note_on channel=0 note=68 velocity=57 time=154\n",
      "note_on channel=0 note=51 velocity=0 time=17\n",
      "note_on channel=0 note=51 velocity=41 time=0\n",
      "note_on channel=0 note=63 velocity=0 time=154\n",
      "note_on channel=0 note=63 velocity=57 time=0\n",
      "note_on channel=0 note=48 velocity=0 time=14\n",
      "note_on channel=0 note=51 velocity=0 time=154\n",
      "note_on channel=0 note=56 velocity=0 time=0\n",
      "note_on channel=0 note=56 velocity=37 time=0\n",
      "note_on channel=0 note=51 velocity=49 time=154\n",
      "note_on channel=0 note=61 velocity=49 time=184\n",
      "note_on channel=0 note=49 velocity=37 time=14\n",
      "note_on channel=0 note=51 velocity=0 time=13\n",
      "note_on channel=0 note=56 velocity=0 time=0\n",
      "note_on channel=0 note=63 velocity=0 time=0\n",
      "note_on channel=0 note=68 velocity=0 time=0\n",
      "note_on channel=0 note=53 velocity=41 time=141\n",
      "note_on channel=0 note=56 velocity=37 time=158\n",
      "note_on channel=0 note=53 velocity=0 time=167\n",
      "note_on channel=0 note=53 velocity=49 time=0\n",
      "note_on channel=0 note=49 velocity=0 time=13\n",
      "note_on channel=0 note=61 velocity=0 time=141\n",
      "note_on channel=0 note=61 velocity=41 time=0\n",
      "note_on channel=0 note=65 velocity=45 time=0\n",
      "note_on channel=0 note=56 velocity=0 time=185\n",
      "note_on channel=0 note=56 velocity=37 time=0\n",
      "note_on channel=0 note=53 velocity=0 time=154\n",
      "note_on channel=0 note=53 velocity=45 time=0\n",
      "note_on channel=0 note=49 velocity=49 time=167\n",
      "note_on channel=0 note=53 velocity=0 time=31\n",
      "note_on channel=0 note=56 velocity=0 time=0\n",
      "note_on channel=0 note=65 velocity=0 time=13\n",
      "note_on channel=0 note=53 velocity=45 time=128\n",
      "note_on channel=0 note=56 velocity=41 time=167\n",
      "note_on channel=0 note=53 velocity=0 time=172\n",
      "note_on channel=0 note=53 velocity=45 time=0\n",
      "note_on channel=0 note=61 velocity=0 time=167\n",
      "note_on channel=0 note=61 velocity=53 time=0\n",
      "note_on channel=0 note=73 velocity=49 time=141\n",
      "note_on channel=0 note=56 velocity=0 time=13\n",
      "note_on channel=0 note=56 velocity=41 time=0\n",
      "note_on channel=0 note=69 velocity=45 time=154\n",
      "note_on channel=0 note=53 velocity=0 time=17\n",
      "note_on channel=0 note=53 velocity=41 time=0\n",
      "note_on channel=0 note=70 velocity=53 time=154\n",
      "note_on channel=0 note=48 velocity=29 time=14\n",
      "note_on channel=0 note=49 velocity=0 time=0\n",
      "note_on channel=0 note=56 velocity=0 time=0\n",
      "note_on channel=0 note=69 velocity=0 time=0\n",
      "note_on channel=0 note=53 velocity=0 time=13\n",
      "note_on channel=0 note=61 velocity=0 time=0\n",
      "note_on channel=0 note=73 velocity=0 time=0\n",
      "note_on channel=0 note=51 velocity=41 time=141\n",
      "note_on channel=0 note=56 velocity=49 time=184\n",
      "note_on channel=0 note=51 velocity=0 time=154\n",
      "note_on channel=0 note=51 velocity=45 time=0\n",
      "note_on channel=0 note=75 velocity=53 time=154\n",
      "note_on channel=0 note=48 velocity=0 time=14\n",
      "note_on channel=0 note=70 velocity=0 time=0\n",
      "note_on channel=0 note=51 velocity=0 time=13\n",
      "note_on channel=0 note=56 velocity=0 time=0\n",
      "note_on channel=0 note=56 velocity=29 time=141\n",
      "note_on channel=0 note=51 velocity=41 time=158\n",
      "note_on channel=0 note=48 velocity=41 time=167\n",
      "note_on channel=0 note=51 velocity=0 time=27\n",
      "note_on channel=0 note=56 velocity=0 time=0\n",
      "note_on channel=0 note=48 velocity=0 time=140\n",
      "note_on channel=0 note=51 velocity=45 time=0\n",
      "note_on channel=0 note=56 velocity=37 time=159\n",
      "note_on channel=0 note=51 velocity=0 time=154\n",
      "note_on channel=0 note=51 velocity=37 time=0\n",
      "note_on channel=0 note=68 velocity=53 time=0\n",
      "note_on channel=0 note=63 velocity=49 time=154\n",
      "note_on channel=0 note=56 velocity=0 time=13\n",
      "note_on channel=0 note=56 velocity=33 time=0\n",
      "note_on channel=0 note=75 velocity=0 time=13\n",
      "note_on channel=0 note=51 velocity=0 time=141\n",
      "note_on channel=0 note=51 velocity=53 time=0\n",
      "note_on channel=0 note=49 velocity=53 time=172\n",
      "note_on channel=0 note=63 velocity=0 time=13\n",
      "note_on channel=0 note=51 velocity=0 time=13\n",
      "note_on channel=0 note=56 velocity=0 time=0\n",
      "note_on channel=0 note=68 velocity=0 time=44\n",
      "note_on channel=0 note=53 velocity=37 time=110\n",
      "note_on channel=0 note=56 velocity=37 time=158\n",
      "note_on channel=0 note=53 velocity=0 time=181\n",
      "note_on channel=0 note=53 velocity=45 time=0\n",
      "note_on channel=0 note=61 velocity=53 time=171\n",
      "note_on channel=0 note=65 velocity=61 time=0\n"
     ]
    },
    {
     "name": "stdout",
     "output_type": "stream",
     "text": [
      "note_on channel=0 note=56 velocity=0 time=154\n",
      "note_on channel=0 note=56 velocity=37 time=0\n",
      "note_on channel=0 note=53 velocity=0 time=168\n",
      "note_on channel=0 note=53 velocity=49 time=0\n",
      "note_on channel=0 note=49 velocity=0 time=171\n",
      "note_on channel=0 note=49 velocity=49 time=0\n",
      "note_on channel=0 note=53 velocity=0 time=27\n",
      "note_on channel=0 note=56 velocity=0 time=0\n",
      "note_on channel=0 note=61 velocity=0 time=13\n",
      "note_on channel=0 note=65 velocity=0 time=0\n",
      "note_on channel=0 note=53 velocity=41 time=127\n",
      "note_on channel=0 note=56 velocity=41 time=141\n",
      "note_on channel=0 note=53 velocity=0 time=185\n",
      "note_on channel=0 note=53 velocity=49 time=0\n",
      "note_on channel=0 note=61 velocity=57 time=154\n",
      "note_on channel=0 note=65 velocity=53 time=0\n",
      "note_on channel=0 note=73 velocity=49 time=167\n",
      "note_on channel=0 note=56 velocity=0 time=13\n",
      "note_on channel=0 note=56 velocity=37 time=0\n",
      "note_on channel=0 note=69 velocity=49 time=159\n",
      "note_on channel=0 note=53 velocity=0 time=13\n",
      "note_on channel=0 note=53 velocity=41 time=0\n",
      "note_on channel=0 note=48 velocity=45 time=154\n",
      "note_on channel=0 note=70 velocity=49 time=0\n",
      "note_on channel=0 note=49 velocity=0 time=44\n",
      "note_on channel=0 note=53 velocity=0 time=0\n",
      "note_on channel=0 note=56 velocity=0 time=0\n",
      "note_on channel=0 note=61 velocity=0 time=0\n",
      "note_on channel=0 note=65 velocity=0 time=0\n",
      "note_on channel=0 note=69 velocity=0 time=0\n",
      "note_on channel=0 note=73 velocity=0 time=0\n",
      "note_on channel=0 note=51 velocity=45 time=123\n"
     ]
    },
    {
     "ename": "KeyboardInterrupt",
     "evalue": "",
     "output_type": "error",
     "traceback": [
      "\u001b[0;31m---------------------------------------------------------------------------\u001b[0m",
      "\u001b[0;31mKeyboardInterrupt\u001b[0m                         Traceback (most recent call last)",
      "\u001b[0;32m<ipython-input-107-310fdc4d3f54>\u001b[0m in \u001b[0;36m<module>\u001b[0;34m\u001b[0m\n\u001b[1;32m      1\u001b[0m \u001b[0;32mfor\u001b[0m \u001b[0mmsg\u001b[0m \u001b[0;32min\u001b[0m \u001b[0mmid\u001b[0m\u001b[0;34m.\u001b[0m\u001b[0mtracks\u001b[0m\u001b[0;34m[\u001b[0m\u001b[0;36m1\u001b[0m\u001b[0;34m]\u001b[0m\u001b[0;34m:\u001b[0m\u001b[0;34m\u001b[0m\u001b[0;34m\u001b[0m\u001b[0m\n\u001b[1;32m      2\u001b[0m     \u001b[0mprint\u001b[0m\u001b[0;34m(\u001b[0m\u001b[0mmsg\u001b[0m\u001b[0;34m)\u001b[0m\u001b[0;34m\u001b[0m\u001b[0;34m\u001b[0m\u001b[0m\n\u001b[0;32m----> 3\u001b[0;31m     \u001b[0mtime\u001b[0m\u001b[0;34m.\u001b[0m\u001b[0msleep\u001b[0m\u001b[0;34m(\u001b[0m\u001b[0;36m.3\u001b[0m\u001b[0;34m)\u001b[0m\u001b[0;34m\u001b[0m\u001b[0;34m\u001b[0m\u001b[0m\n\u001b[0m\u001b[1;32m      4\u001b[0m     \u001b[0moutport\u001b[0m\u001b[0;34m.\u001b[0m\u001b[0msend\u001b[0m\u001b[0;34m(\u001b[0m\u001b[0mmsg\u001b[0m\u001b[0;34m)\u001b[0m\u001b[0;34m\u001b[0m\u001b[0;34m\u001b[0m\u001b[0m\n",
      "\u001b[0;31mKeyboardInterrupt\u001b[0m: "
     ]
    }
   ],
   "source": [
    "for msg in mid.tracks[1]:\n",
    "    print(msg)\n",
    "    time.sleep(.3)\n",
    "    outport.send(msg)"
   ]
  },
  {
   "cell_type": "code",
   "execution_count": 100,
   "id": "worthy-memphis",
   "metadata": {},
   "outputs": [
    {
     "data": {
      "text/plain": [
       "0.17708333333333334"
      ]
     },
     "execution_count": 100,
     "metadata": {},
     "output_type": "execute_result"
    }
   ],
   "source": [
    "mido.tick2second(170,480,500000)"
   ]
  },
  {
   "cell_type": "code",
   "execution_count": 77,
   "id": "creative-eleven",
   "metadata": {},
   "outputs": [
    {
     "data": {
      "text/plain": [
       "['IAC Driver Bus 1',\n",
       " 'IAC Driver python',\n",
       " 'Network Session 1',\n",
       " 'iPad',\n",
       " 'IAC Driver Bus 1',\n",
       " 'IAC Driver python',\n",
       " 'Network Session 1',\n",
       " 'iPad']"
      ]
     },
     "execution_count": 77,
     "metadata": {},
     "output_type": "execute_result"
    }
   ],
   "source": [
    "inport = mido.open_input()\n",
    "mido.get_input_names()"
   ]
  }
 ],
 "metadata": {
  "kernelspec": {
   "display_name": "Python 3",
   "language": "python",
   "name": "python3"
  },
  "language_info": {
   "codemirror_mode": {
    "name": "ipython",
    "version": 3
   },
   "file_extension": ".py",
   "mimetype": "text/x-python",
   "name": "python",
   "nbconvert_exporter": "python",
   "pygments_lexer": "ipython3",
   "version": "3.8.2"
  }
 },
 "nbformat": 4,
 "nbformat_minor": 5
}
